<svg height="29.88" width="146.79" xmlns="http://www.w3.org/2000/svg"><g fill="#0099d8" transform="translate(1037.245 -633.887)"><path d="m-986.06 652.659c-.111 1.219-1.064 4.61-5.386 4.61-4.433 0-5.45-3.391-5.45-5.873 0-3.814 1.661-6.54 5.65-6.54 1.863 0 4.921.841 5.209 4.521h-3.148c-.134-.776-.62-1.994-2.061-1.906-1.95 0-2.461 1.95-2.461 3.413 0 1.286.045 3.835 2.395 3.835 1.575 0 2.105-1.506 2.105-2.06h3.148z"/><path d="m-976.373 651.062c0 1.508-.444 3.593-2.839 3.593-2.391 0-2.836-2.085-2.836-3.593s.445-3.59 2.836-3.59c2.395 0 2.839 2.083 2.839 3.59m3.19 0c0-4.255-2.859-6.206-6.029-6.206-3.169 0-6.028 1.951-6.028 6.206 0 4.256 2.859 6.208 6.028 6.208 3.17 0 6.029-1.951 6.029-6.208"/><path d="m-961.014 656.958h-3.101v-7.159c0-.865-.046-2.328-2.018-2.328-1.376 0-2.439.93-2.439 2.725v6.761h-3.103v-11.793h2.97v1.73h.044c.421-.71 1.309-2.04 3.548-2.04 2.304 0 4.099 1.354 4.099 3.946v8.156z"/><path d="m-946.849 643.858h-8.448v3.346h7.758v2.816h-7.758v4.121h8.823v2.816h-12.079v-15.915h11.704v2.815z"/><path d="m-942.174 651.151c0-1.863.665-3.614 2.638-3.614 2.129 0 2.66 1.906 2.66 3.791 0 1.75-.775 3.39-2.749 3.39-1.994 0-2.549-2.171-2.549-3.568m8.268-10.109h-3.101v5.653h-.045c-.486-.754-1.419-1.839-3.414-1.839-2.593 0-4.898 1.995-4.898 6.074 0 3.235 1.461 6.339 4.964 6.339 1.286 0 2.659-.468 3.414-1.796h.045v1.485h3.035v-15.915z"/><path d="m-928.61 640.889h-3.101v2.881h3.101zm-3.101 16.069h3.101v-11.793h-3.101z"/><path d="m-919.635 648.757c-.13-.753-.398-1.553-2.081-1.553-1.685 0-1.905.644-1.905 1.155 0 1.861 7.379.509 7.379 4.853 0 3.435-3.325 4.058-5.161 4.058-2.684 0-5.586-.931-5.676-4.079h3.193c0 .998.62 1.729 2.571 1.729 1.595 0 1.971-.778 1.971-1.22 0-1.971-7.314-.488-7.314-4.898 0-1.729 1.086-3.946 4.766-3.946 2.305 0 5.051.576 5.296 3.901z"/><path d="m-906.466 651.062c0 1.508-.443 3.593-2.838 3.593-2.394 0-2.836-2.085-2.836-3.593s.443-3.59 2.836-3.59c2.395 0 2.838 2.083 2.838 3.59m3.191 0c0-4.255-2.859-6.206-6.029-6.206-3.169 0-6.028 1.951-6.028 6.206 0 4.256 2.859 6.208 6.028 6.208 3.17 0 6.029-1.951 6.029-6.208"/><path d="m-891.107 656.958h-3.103v-7.159c0-.865-.045-2.328-2.018-2.328-1.374 0-2.438.93-2.438 2.725v6.761h-3.103v-11.793h2.97v1.73h.045c.419-.71 1.306-2.04 3.546-2.04 2.304 0 4.099 1.354 4.099 3.946v8.156z"/><path d="m-1002.653 659.328h-19.306c-5.704 0-10.343-4.64-10.343-10.343 0-5.704 4.639-10.343 10.343-10.343h19.306v-3.598h-19.306c-7.689 0-13.943 6.253-13.943 13.94 0 7.688 6.254 13.943 13.943 13.943h19.306v-3.6z"/><path d="m-1029.674 649.014c0 4.419 3.595 8.015 8.014 8.015h18.98v-3.599h-18.98c-2.434 0-4.415-1.98-4.415-4.416 0-2.435 1.981-4.416 4.415-4.416h18.98v-3.599h-18.98c-4.419 0-8.014 3.596-8.014 8.015"/><path d="m-1002.653 647.202h-19.126c-.992 0-1.799.805-1.799 1.798 0 .995.806 1.801 1.799 1.801h19.126z"/></g></svg>