<?xml version="1.0" encoding="utf-8"?>
<!-- Generator: Adobe Illustrator 25.0.1, SVG Export Plug-In . SVG Version: 6.00 Build 0)  -->
<svg version="1.1" id="corp_x5F_horz_x5F_4cp" xmlns="http://www.w3.org/2000/svg" xmlns:xlink="http://www.w3.org/1999/xlink"
	 x="0px" y="0px" viewBox="0 0 150 52.06" style="enable-background:new 0 0 150 52.06;" xml:space="preserve">
<style type="text/css">
	.st0{fill:#77787B;}
	.st1{fill:#FAA61A;}
	.st2{fill:#39B54A;}
	.st3{fill:#0077C0;}
	.st4{fill:none;}
</style>
<g>
	<g>
		<path class="st0" d="M68.97,30.13c1.22,0,1.98-0.68,1.98-1.57c0-1.32-1.33-1.8-2.48-2.54c-1.55-0.91-2.36-1.79-2.36-3.16
			c0-1.72,1.34-2.95,3.4-2.95c0.98,0,1.88,0.22,2.81,0.68l-0.06,1.79c-1.04-0.57-1.9-0.89-2.61-0.89c-1.06,0-1.66,0.52-1.66,1.28
			c0,1.03,1.29,1.53,2.34,2.21c1.71,1.01,2.59,1.99,2.59,3.54c0,1.95-1.45,3.34-3.86,3.34c-1.06,0-2.08-0.22-3.02-0.66l-0.17-2.2
			C67.02,29.73,68.02,30.13,68.97,30.13z"/>
		<path class="st0" d="M57.89,30.13c1.22,0,1.98-0.68,1.98-1.57c0-1.32-1.33-1.8-2.48-2.54c-1.55-0.91-2.35-1.79-2.35-3.16
			c0-1.72,1.34-2.95,3.39-2.95c0.98,0,1.88,0.22,2.81,0.68l-0.06,1.79c-1.04-0.57-1.9-0.89-2.61-0.89c-1.06,0-1.66,0.52-1.66,1.28
			c0,1.03,1.28,1.53,2.34,2.21c1.71,1.01,2.59,1.99,2.59,3.54c0,1.95-1.45,3.34-3.86,3.34c-1.06,0-2.08-0.22-3.02-0.66l-0.17-2.2
			C55.95,29.73,56.94,30.13,57.89,30.13z"/>
		<path class="st0" d="M79.23,26.81c0,2.16,0.91,3.27,2.7,3.27c1.75,0,2.7-1.12,2.7-3.32v-6.48h2v6.51c0,3.27-1.78,5.04-4.69,5.04
			c-3.01,0-4.7-1.98-4.7-5.01v-6.54h1.99V26.81z"/>
		<path class="st0" d="M91.55,20.28h2.59c1.43,0,2.53,0.09,3.49,0.77c0.84,0.59,1.31,1.47,1.31,2.39c0,1.47-0.87,2.57-2.45,3.11
			l3.62,4.91h-2.29l-3.4-4.64h-0.95v4.64h-1.93V20.28z M96.99,23.6c0-1.75-1.9-1.72-3.51-1.72v3.47
			C94.74,25.35,96.99,25.47,96.99,23.6z"/>
		<polygon class="st0" points="136.78,31.47 134.8,31.47 134.8,21.99 131.03,21.99 131.03,20.28 140.53,20.28 140.53,21.99 
			136.78,21.99 		"/>
		<g>
			<path class="st0" d="M46.2,19.92c0,0-0.04-0.04-0.08-0.04c-0.05,0-0.09,0.04-0.09,0.04c-2.78,4.13-3.83,6.36-5.51,11.55h2
				c0.18-0.68,0.66-2.09,0.89-2.76h5.4c0.24,0.67,0.71,2.08,0.89,2.76h2C50.01,26.23,48.93,23.98,46.2,19.92z M44.26,27.01
				c0.51-1.42,1.08-2.69,1.88-3.95c0.78,1.26,1.41,2.6,1.89,3.95H44.26z"/>
		</g>
		<g>
			<path class="st0" d="M108.39,19.92c0,0-0.04-0.04-0.08-0.04c-0.05,0-0.08,0.04-0.08,0.04c-2.78,4.13-3.83,6.36-5.51,11.55h2
				c0.18-0.68,0.66-2.09,0.9-2.76h5.4c0.24,0.67,0.71,2.08,0.9,2.76h2C112.2,26.23,111.12,23.98,108.39,19.92z M106.45,27.01
				c0.51-1.42,1.08-2.69,1.87-3.95c0.78,1.26,1.41,2.6,1.89,3.95H106.45z"/>
		</g>
		<path class="st0" d="M119.59,24.51l7.34,7.33c0,0,0.06,0.01,0.09-0.03c0.02-0.02,0.03-0.05,0.03-0.09V20.28h-1.9v6.92l-7.34-7.34
			c0,0-0.06,0-0.09,0.03c-0.02,0.02-0.03,0.06-0.03,0.09v11.48h1.9V24.51z"/>
	</g>
	<g>
		<path class="st1" d="M1.4,25c-0.02,0.29-0.02,0.58-0.02,0.87c0,2.87,0.79,5.56,2.16,7.86c0.97-3.23,2.36-6.64,4.15-10.06
			C5.47,24,3.36,24.45,1.4,25z"/>
		<path class="st1" d="M4.08,17.16c2.59-0.55,5.38-0.94,8.33-1.14c1.4-1.95,2.86-3.73,4.35-5.33c-0.06-0.07-0.13-0.14-0.19-0.21
			C11.38,10.56,6.82,13.18,4.08,17.16z"/>
		<path class="st1" d="M25.19,13.01c-1.14,4.5-3.14,9.42-5.96,14.29c-0.79,1.37-1.62,2.69-2.47,3.95c0.85,1.25,1.73,2.45,2.63,3.58
			c1.26-0.05,2.5-0.14,3.72-0.26c0.79-1.18,1.56-2.42,2.3-3.7c2.27-3.93,4.02-7.89,5.23-11.62C29.42,16.7,27.53,14.54,25.19,13.01z"
			/>
		<path class="st2" d="M25.19,13.01c-2.42-1.59-5.32-2.51-8.43-2.51c-0.06,0-0.13,0-0.19,0c2.31,2.46,4.57,5.36,6.63,8.62
			C24.02,17.03,24.69,14.98,25.19,13.01z"/>
		<path class="st2" d="M30.64,19.24c-0.81,2.52-1.88,5.14-3.18,7.78c0.98,2.19,1.8,4.35,2.44,6.44c0.09-0.02,0.18-0.04,0.27-0.06
			c1.25-2.22,1.96-4.79,1.96-7.52C32.14,23.49,31.6,21.25,30.64,19.24z"/>
		<path class="st2" d="M14.28,27.3c-0.79-1.37-1.52-2.75-2.18-4.12c-1.51,0.11-2.99,0.27-4.41,0.49c-0.59,1.12-1.13,2.24-1.63,3.35
			c0.63,1.28,1.31,2.56,2.05,3.84c2.27,3.93,4.82,7.43,7.45,10.34c0.4,0.03,0.8,0.05,1.2,0.05c2.49,0,4.84-0.59,6.92-1.64
			C20.36,36.36,17.1,32.17,14.28,27.3z"/>
		<path class="st3" d="M30.17,33.39c-3.29,0.78-6.93,1.27-10.79,1.43c1.4,1.76,2.84,3.36,4.3,4.78
			C26.42,38.22,28.68,36.05,30.17,33.39z"/>
		<path class="st3" d="M10.41,34.56c-2.39-0.24-4.67-0.62-6.8-1.11c-0.03,0.09-0.05,0.18-0.08,0.27c2.49,4.18,6.91,7.08,12.02,7.48
			C13.79,39.23,12.05,37.01,10.41,34.56z"/>
		<path class="st3" d="M16.76,15.89c-4.54,0-8.84,0.46-12.68,1.28C2.53,19.42,1.57,22.1,1.4,25c4.47-1.26,9.73-1.99,15.35-1.99
			c1.58,0,3.14,0.06,4.66,0.17c0.66-1.36,1.26-2.72,1.78-4.06c-0.68-1.07-1.37-2.1-2.09-3.09C19.69,15.93,18.24,15.89,16.76,15.89z"
			/>
	</g>
	<g>
		<path class="st0" d="M144.08,22.54c0-0.62,0.22-1.14,0.66-1.58c0.44-0.44,0.96-0.65,1.58-0.65c0.61,0,1.14,0.22,1.57,0.65
			c0.44,0.44,0.65,0.96,0.65,1.58c0,0.61-0.22,1.14-0.65,1.58c-0.43,0.44-0.96,0.65-1.57,0.65c-0.61,0-1.14-0.22-1.58-0.65
			C144.3,23.68,144.08,23.15,144.08,22.54z M148.17,22.54c0-0.52-0.18-0.96-0.55-1.32c-0.36-0.36-0.8-0.55-1.32-0.55
			c-0.52,0-0.96,0.18-1.32,0.55c-0.37,0.36-0.55,0.8-0.55,1.32c0,0.52,0.18,0.96,0.55,1.32c0.37,0.37,0.81,0.55,1.32,0.55
			c0.52,0,0.96-0.18,1.32-0.55C147.99,23.49,148.17,23.05,148.17,22.54z M147,23.89l-0.7-1.18h-0.4v1.18h-0.39v-2.75h0.71
			c0.66,0,0.99,0.25,0.99,0.76c0,0.35-0.18,0.6-0.53,0.75l0.75,1.24H147z M145.91,21.47v0.92c0.03,0.01,0.12,0.01,0.26,0.01
			c0.25,0,0.43-0.03,0.51-0.1c0.09-0.07,0.13-0.19,0.13-0.37c0-0.3-0.2-0.46-0.59-0.46h-0.15L145.91,21.47z"/>
	</g>
</g>
<rect x="-9.49" y="-1.09" class="st4" width="170.62" height="54.24"/>
</svg>
