<svg width="49" height="21" viewBox="0 0 49 21" fill="none" xmlns="http://www.w3.org/2000/svg">
<path d="M45.0944 14.5446C44.9651 14.5446 44.876 14.4549 44.876 14.326V7.92274H42.701C42.5716 7.92274 42.4824 7.8335 42.4824 7.70445V6.82118C42.4824 6.69184 42.5717 6.60236 42.701 6.60236H48.4907C48.6199 6.60236 48.7088 6.69193 48.7088 6.82118V7.7044C48.7088 7.83336 48.6199 7.92274 48.4907 7.92274H46.3157V14.3259C46.3157 14.455 46.2262 14.5446 46.0974 14.5446H45.0944ZM28.4328 11.3477L27.2911 8.07185L26.139 11.3477H28.4328ZM30.9652 14.2858C31.0151 14.4152 30.9355 14.5446 30.7964 14.5446H29.7638C29.6148 14.5446 29.5253 14.4753 29.4755 14.3357L28.8899 12.6486H25.6826L25.0959 14.3357C25.0466 14.4753 24.9569 14.5446 24.8083 14.5446H23.8354C23.7061 14.5446 23.6166 14.4152 23.6663 14.2858L26.3574 6.80132C26.4072 6.66188 26.4965 6.60269 26.6452 6.60269H27.9759C28.125 6.60269 28.2244 6.66193 28.274 6.80132L30.9652 14.2858ZM38.679 13.4722C39.3143 13.4722 39.7415 13.165 40.0892 12.6385L38.4807 10.911C37.8647 11.2587 37.4673 11.6057 37.4673 12.3008C37.4674 12.9859 38.0232 13.4722 38.679 13.4722ZM39.1258 7.65464C38.6096 7.65464 38.3117 7.98256 38.3117 8.41929C38.3117 8.75678 38.4901 9.05465 38.8974 9.49157C39.6024 9.08426 39.9005 8.83621 39.9005 8.39953C39.9005 7.99217 39.6424 7.65464 39.1258 7.65464ZM43.5254 14.2666C43.6544 14.4057 43.5751 14.5446 43.4157 14.5446H42.1546C41.9858 14.5446 41.8964 14.5047 41.7873 14.3755L41.0326 13.5419C40.5262 14.217 39.8205 14.7232 38.649 14.7232C37.1992 14.7232 36.0569 13.8496 36.0569 12.3509C36.0569 11.1989 36.6729 10.5833 37.6065 10.0672C37.1493 9.54105 36.9412 8.98507 36.9412 8.49886C36.9412 7.26753 37.8051 6.42383 39.1058 6.42383C40.4365 6.42383 41.2509 7.20839 41.2509 8.36967C41.2509 9.36242 40.5361 9.91786 39.7811 10.3351L40.8935 11.5367L41.519 10.4443C41.5984 10.3155 41.6878 10.2656 41.8465 10.2656H42.8096C42.9687 10.2656 43.0581 10.3751 42.9591 10.5438L41.8466 12.4496L43.5254 14.2666ZM33.615 14.5446C33.744 14.5446 33.8339 14.4549 33.8339 14.326V7.92274H36.0083C36.1374 7.92274 36.2267 7.8335 36.2267 7.70445V6.82118C36.2267 6.69184 36.1374 6.60236 36.0083 6.60236H30.2186C30.0893 6.60236 30.0001 6.69193 30.0001 6.82118V7.7044C30.0001 7.83336 30.0894 7.92274 30.2186 7.92274H32.3931V14.3259C32.3931 14.455 32.4827 14.5446 32.6117 14.5446H33.615Z" fill="black"/>
<path d="M4.22596 18.4084C5.9101 19.7121 8.02398 20.4955 10.3174 20.4955C12.8272 20.4955 15.1153 19.5636 16.8615 18.0339C16.8827 18.0152 16.8722 18.0029 16.8514 18.0152C16.0678 18.5386 13.8345 19.681 10.3175 19.681C7.26117 19.681 5.32967 18.999 4.23891 18.3902C4.21804 18.3799 4.21031 18.3955 4.22596 18.4084ZM10.9917 18.916C13.4363 18.916 16.1225 18.2496 17.7291 16.9304C18.1688 16.571 18.5875 16.0926 18.9626 15.4497C19.1785 15.0798 19.3897 14.6403 19.5617 14.2083C19.5693 14.1872 19.5563 14.177 19.5405 14.2007C18.0464 16.3994 13.7201 17.7709 9.25287 17.7709C6.09528 17.7709 2.69778 16.7611 1.36763 14.8329C1.35454 14.8151 1.34145 14.8227 1.34942 14.8432C2.58855 17.4771 6.34777 18.916 10.9917 18.916ZM8.32086 14.5465C3.23671 14.5465 0.839428 12.1784 0.404564 10.5623C0.399201 10.539 0.383789 10.5441 0.383789 10.5651C0.383789 11.1091 0.438238 11.8112 0.531916 12.2772C0.576606 12.5041 0.761209 12.8601 1.03186 13.1438C2.26297 14.4272 5.33228 16.2254 10.6479 16.2254C17.8901 16.2254 19.546 13.8128 19.8842 13.0194C20.126 12.4519 20.2512 11.4265 20.2512 10.5651C20.2512 10.3567 20.246 10.1902 20.2381 10.0268C20.2381 10.0002 20.2228 9.99806 20.2175 10.0239C19.8556 11.9653 13.6679 14.5465 8.32086 14.5465ZM1.34145 6.30496C1.05012 6.88316 0.727197 7.85862 0.631199 8.36348C0.589119 8.57979 0.607043 8.68367 0.682894 8.84509C1.29226 10.1381 4.37457 12.2069 11.5644 12.2069C15.9507 12.2069 19.3581 11.1292 19.9102 9.16258C20.0118 8.80054 20.0173 8.41832 19.8867 7.90326C19.7408 7.32772 19.4675 6.65656 19.2362 6.18528C19.2286 6.16992 19.2151 6.17219 19.2179 6.19036C19.3038 8.76977 12.1111 10.4322 8.48199 10.4322C4.55101 10.4322 1.27149 8.86587 1.27149 6.88809C1.27149 6.69806 1.31082 6.50799 1.3599 6.31018C1.36483 6.29211 1.34937 6.28912 1.34145 6.30496ZM16.8776 3.13798C16.9193 3.2034 16.9402 3.27322 16.9402 3.36719C16.9402 4.47054 13.5635 6.42242 8.18839 6.42242C4.23891 6.42242 3.49948 4.95718 3.49948 4.02536C3.49948 3.69226 3.62722 3.35144 3.90855 3.0053C3.92391 2.98472 3.91087 2.9768 3.89314 2.99211C3.38006 3.42696 2.90862 3.91626 2.49506 4.44445C2.29746 4.69425 2.17479 4.91553 2.17479 5.04811C2.17479 6.97917 7.01651 8.37928 11.5437 8.37928C16.3674 8.37928 18.5202 6.80446 18.5202 5.42049C18.5202 4.92587 18.3277 4.63714 17.8352 4.07734C17.5155 3.71319 17.2131 3.41667 16.8931 3.12479C16.8776 3.11203 16.8668 3.12242 16.8776 3.13798ZM15.3988 2.03487C13.9101 1.14247 12.1813 0.634766 10.3175 0.634766C8.44078 0.634766 6.65992 1.1602 5.16584 2.07623C4.71769 2.35207 4.46545 2.57312 4.46545 2.85726C4.46545 3.69487 6.42285 4.59549 9.89553 4.59549C13.3322 4.59549 15.9977 3.60902 15.9977 2.65946C15.9977 2.43281 15.7996 2.27423 15.3988 2.03487Z" fill="#00A8E0"/>
</svg>
