<svg width="27" height="28" viewBox="0 0 27 28" fill="none" xmlns="http://www.w3.org/2000/svg">
<path d="M13.5 0.959961C10.9288 0.959961 8.41543 1.74622 6.27759 3.21932C4.13975 4.69242 2.47351 6.78619 1.48957 9.23586C0.505633 11.6855 0.248189 14.3811 0.749797 16.9816C1.25141 19.5822 2.48953 21.971 4.30762 23.8459C6.1257 25.7208 8.44208 26.9976 10.9638 27.5149C13.4856 28.0321 16.0995 27.7667 18.4749 26.752C20.8503 25.7373 22.8807 24.019 24.3091 21.8143C25.7376 19.6097 26.5 17.0177 26.5 14.3662C26.4961 10.8119 25.1252 7.40429 22.6881 4.891C20.251 2.37772 16.9466 0.963984 13.5 0.959961ZM15 20.5537H14.5V21.585C14.5 21.8585 14.3946 22.1208 14.2071 22.3142C14.0196 22.5076 13.7652 22.6162 13.5 22.6162C13.2348 22.6162 12.9804 22.5076 12.7929 22.3142C12.6054 22.1208 12.5 21.8585 12.5 21.585V20.5537H10.5C10.2348 20.5537 9.98044 20.4451 9.7929 20.2517C9.60536 20.0583 9.50001 19.796 9.50001 19.5225C9.50001 19.249 9.60536 18.9867 9.7929 18.7933C9.98044 18.5999 10.2348 18.4912 10.5 18.4912H15C15.3978 18.4912 15.7794 18.3282 16.0607 18.0381C16.342 17.748 16.5 17.3546 16.5 16.9443C16.5 16.5341 16.342 16.1406 16.0607 15.8505C15.7794 15.5604 15.3978 15.3975 15 15.3975H12C11.0717 15.3975 10.1815 15.0172 9.52513 14.3403C8.86876 13.6634 8.50001 12.7454 8.50001 11.7881C8.50001 10.8308 8.86876 9.91276 9.52513 9.23587C10.1815 8.55898 11.0717 8.17871 12 8.17871H12.5V7.14746C12.5 6.87396 12.6054 6.61165 12.7929 6.41826C12.9804 6.22486 13.2348 6.11621 13.5 6.11621C13.7652 6.11621 14.0196 6.22486 14.2071 6.41826C14.3946 6.61165 14.5 6.87396 14.5 7.14746V8.17871H16.5C16.7652 8.17871 17.0196 8.28736 17.2071 8.48076C17.3946 8.67415 17.5 8.93646 17.5 9.20996C17.5 9.48347 17.3946 9.74577 17.2071 9.93916C17.0196 10.1326 16.7652 10.2412 16.5 10.2412H12C11.6022 10.2412 11.2206 10.4042 10.9393 10.6943C10.658 10.9844 10.5 11.3778 10.5 11.7881C10.5 12.1983 10.658 12.5918 10.9393 12.8819C11.2206 13.172 11.6022 13.335 12 13.335H15C15.9283 13.335 16.8185 13.7152 17.4749 14.3921C18.1313 15.069 18.5 15.9871 18.5 16.9443C18.5 17.9016 18.1313 18.8197 17.4749 19.4965C16.8185 20.1734 15.9283 20.5537 15 20.5537Z" fill="#76E4AF"/>
</svg>
