<svg width="376" height="311" viewBox="0 0 376 311" fill="none" xmlns="http://www.w3.org/2000/svg">
<mask id="mask0_788_32627" style="mask-type:alpha" maskUnits="userSpaceOnUse" x="0" y="0" width="376" height="311">
<path d="M375.62 20.458C375.62 9.41232 366.666 0.458008 355.62 0.458008H20.6201C9.57443 0.458008 0.620117 9.41231 0.620117 20.458V310.292H375.62V20.458Z" fill="#D9D9D9"/>
</mask>
<g mask="url(#mask0_788_32627)">
<path d="M55.3078 130.403H493.233C500.448 130.403 506.297 136.253 506.297 143.468C506.297 150.683 500.448 156.533 493.233 156.533H55.3078C48.0924 156.533 42.2432 150.683 42.2432 143.468C42.2432 136.253 48.0924 130.403 55.3078 130.403Z" fill="#F5F5F5" stroke="#CCCCCC" stroke-width="2" stroke-linecap="round" stroke-linejoin="round"/>
<path d="M55.3078 156.532H493.233C500.448 156.532 506.297 162.381 506.297 169.597V211.16C506.297 218.375 500.448 224.224 493.233 224.224H55.3078C48.0924 224.224 42.2432 218.375 42.2432 211.16V169.597C42.2432 162.381 48.0924 156.532 55.3078 156.532Z" fill="#F5F5F5" stroke="#CCCCCC" stroke-width="2" stroke-linecap="round" stroke-linejoin="round"/>
<path d="M356 19.6943H474.318C481.533 19.6943 487.382 25.5436 487.382 32.759V107.719C487.382 114.934 481.533 120.784 474.318 120.784H356C348.785 120.784 342.936 114.934 342.936 107.719V32.759C342.936 25.5436 348.785 19.6943 356 19.6943Z" fill="#F5F5F5" stroke="#CCCCCC" stroke-width="2" stroke-linecap="round" stroke-linejoin="round"/>
<path d="M211.554 19.6943H329.871C337.086 19.6943 342.936 25.5436 342.936 32.759V107.719C342.936 114.934 337.086 120.784 329.871 120.784H211.554C204.338 120.784 198.489 114.934 198.489 107.719V32.759C198.489 25.5436 204.338 19.6943 211.554 19.6943Z" fill="#F5F5F5" stroke="#CCCCCC" stroke-width="2" stroke-linecap="round" stroke-linejoin="round"/>
<path d="M67.098 19.6943H185.415C192.631 19.6943 198.48 25.5436 198.48 32.759V107.719C198.48 114.934 192.631 120.784 185.415 120.784H67.098C59.8826 120.784 54.0334 114.934 54.0334 107.719V32.759C54.0334 25.5436 59.8826 19.6943 67.098 19.6943Z" fill="#F5F5F5" stroke="#CCCCCC" stroke-width="2" stroke-linecap="round" stroke-linejoin="round"/>
<path d="M54.0336 224.224H63.6616V248.469H54.0336V224.224Z" fill="#F5F5F5" stroke="#CCCCCC" stroke-width="2" stroke-linecap="round" stroke-linejoin="round"/>
<path d="M297.147 74.7259C294.67 74.7259 292.66 72.7159 292.66 70.2394C292.66 67.7629 294.67 65.7529 297.147 65.7529C299.623 65.7529 301.633 67.7629 301.633 70.2394C301.633 72.7159 299.632 74.7259 297.147 74.7259Z" fill="#F5F5F5" stroke="#CCCCCC" stroke-width="2" stroke-linecap="round" stroke-linejoin="round"/>
<path d="M244.269 74.7259C241.793 74.7259 239.783 72.7159 239.783 70.2394C239.783 67.7629 241.793 65.7529 244.269 65.7529C246.746 65.7529 248.756 67.7629 248.756 70.2394C248.756 72.7159 246.755 74.7259 244.269 74.7259Z" fill="#F5F5F5" stroke="#CCCCCC" stroke-width="2" stroke-linecap="round" stroke-linejoin="round"/>
<path d="M152.7 74.7259C150.224 74.7259 148.214 72.7159 148.214 70.2394C148.214 67.7629 150.224 65.7529 152.7 65.7529C155.177 65.7529 157.187 67.7629 157.187 70.2394C157.187 72.7159 155.186 74.7259 152.7 74.7259Z" fill="#F5F5F5" stroke="#CCCCCC" stroke-width="2" stroke-linecap="round" stroke-linejoin="round"/>
<path d="M99.8226 74.7259C97.3461 74.7259 95.3361 72.7159 95.3361 70.2394C95.3361 67.7629 97.3461 65.7529 99.8226 65.7529C102.299 65.7529 104.309 67.7629 104.309 70.2394C104.309 72.7159 102.308 74.7259 99.8226 74.7259Z" fill="#F5F5F5" stroke="#CCCCCC" stroke-width="2" stroke-linecap="round" stroke-linejoin="round"/>
</g>
<path d="M146.025 184.521C146.025 184.521 140.45 172.762 151.483 153.66" stroke="#28293C" stroke-width="2" stroke-linecap="round" stroke-linejoin="round"/>
<path d="M142.446 184.731C142.446 184.731 139.403 173.502 124.889 172.343" stroke="#28293C" stroke-width="2" stroke-linecap="round" stroke-linejoin="round"/>
<path d="M163.026 168.051C157.699 167.142 152.647 170.76 151.738 176.087L136.674 267.039C135.764 272.366 139.39 277.425 144.729 278.334L190.719 285.99C196.046 286.9 201.111 283.281 202.007 277.955L217.084 187.009C217.981 181.682 214.356 176.624 209.029 175.714L163.032 168.058L163.026 168.051Z" fill="#FF827A" stroke="#28293C" stroke-width="2" stroke-linecap="round" stroke-linejoin="round"/>
<path d="M184.692 195.024L190.209 184.095C191.099 182.374 192.853 181.465 194.731 181.727L243.318 188.604C245.203 188.859 246.564 190.233 246.944 192.059L249.293 203.517" fill="white"/>
<path d="M184.692 195.024L190.209 184.095C191.099 182.374 192.853 181.465 194.731 181.727L243.318 188.604C245.203 188.859 246.564 190.233 246.944 192.059L249.293 203.517" stroke="#28293C" stroke-width="2" stroke-linecap="round" stroke-linejoin="round"/>
<path d="M184.679 195.024L192.231 208.694L237.534 214.564L249.293 203.407L184.686 195.024H184.679Z" fill="white" stroke="#28293C" stroke-width="2" stroke-linecap="round" stroke-linejoin="round"/>
<path d="M196.851 186.739L240.852 193.034C243.247 193.335 244.87 195.567 244.569 197.968L243.339 206.718C243.038 209.113 240.793 210.722 238.398 210.428L194.397 204.133C192.002 203.832 190.393 201.6 190.687 199.199L191.917 190.45C192.323 188.061 194.463 186.34 196.851 186.739Z" fill="#B1D0FC"/>
<path d="M195.772 197.497L238.843 203.609C241.441 204.028 243.253 206.384 242.933 208.995L241.768 216.906C241.349 219.504 238.993 221.317 236.382 221.002L193.311 214.891C190.713 214.472 188.894 212.109 189.208 209.505L190.373 201.594C190.687 198.989 193.161 197.183 195.772 197.504V197.497Z" fill="#62A0F8"/>
<path d="M187.375 233.469C183.207 232.919 180.243 229.104 180.786 224.936L184.679 195.024L192.231 208.694L237.534 214.564L249.293 203.407L245.4 233.318C244.85 237.487 241.035 240.445 236.853 239.895L187.375 233.475V233.469Z" fill="#B1D0FC" stroke="#28293C" stroke-width="2" stroke-linecap="round" stroke-linejoin="round"/>
<path d="M175.878 228.921L143.709 237.84C142.027 238.259 140.247 237.421 139.619 235.74L127.421 204.041C126.688 202.15 127.735 200.05 129.731 199.526L168.209 188.925C170.205 188.402 172.207 189.658 172.521 191.654L178.398 225.034C178.62 226.716 177.56 228.391 175.878 228.921Z" fill="#CFDEFA" stroke="#28293C" stroke-width="2" stroke-linecap="round" stroke-linejoin="round"/>
<path d="M172.835 191.026L126.472 203.832C125.098 204.251 123.521 203.518 122.788 202.151L119.849 196.588C118.789 194.592 119.745 192.178 121.636 191.654L170.407 178.115C172.305 177.592 174.301 179.057 174.51 181.263L175.033 187.46C175.243 189.141 174.301 190.607 172.828 191.026H172.835Z" fill="#96C0FA" stroke="#28293C" stroke-width="2" stroke-linecap="round" stroke-linejoin="round"/>
<path d="M263.755 217.901L263.859 283.294C263.859 290.852 257.669 297.042 250.091 297.042L120.478 297.147C112.913 297.147 106.71 290.957 106.71 283.398L106.605 218.006L263.761 217.901H263.755Z" fill="#DFD1C4" stroke="#28293C" stroke-width="2" stroke-linecap="round" stroke-linejoin="round"/>
<path d="M98.4973 222.201L78.4209 244.875" stroke="#28293C" stroke-width="2" stroke-linecap="round" stroke-linejoin="round"/>
<path d="M295.82 249.39L274.271 221.258" stroke="#28293C" stroke-width="2" stroke-linecap="round" stroke-linejoin="round"/>
<path d="M163.693 156.648L163.685 156.669L163.677 156.691C162.849 159.09 160.929 161.128 158.264 161.999H158.254L158.103 162.048C154.772 163.132 151.243 162.148 148.861 159.817C149.385 156.581 151.613 153.691 154.944 152.616L154.954 152.613L154.964 152.61C157.677 151.67 160.517 152.223 162.708 153.654L162.719 153.661L162.729 153.667C163.688 154.259 164.14 155.526 163.693 156.648Z" fill="#C8F4DF" stroke="black" stroke-width="2"/>
<path d="M124.648 170.713L124.654 170.713C128.201 170.804 131.208 172.888 132.626 175.791C131.113 178.782 128.024 180.765 124.498 180.676C121.566 180.581 118.909 179.066 117.297 176.794C116.81 176.095 116.816 175.014 117.367 174.321L117.378 174.308L117.387 174.295C119 172.121 121.653 170.62 124.648 170.713Z" fill="#C8F4DF" stroke="black" stroke-width="2"/>
<path d="M129.972 164.138L130.223 164.38C132.737 166.948 133.716 170.474 133.165 173.831C132.927 174.912 132.158 175.651 131.185 175.877C127.721 176.643 123.964 175.682 121.277 173.09L121.275 173.088C118.576 170.497 117.521 166.953 118.091 163.494C118.333 162.317 119.188 161.48 120.262 161.25C123.616 160.576 127.276 161.538 129.972 164.138Z" fill="#76E4AF" stroke="black" stroke-width="2"/>
<path d="M151.747 150.844L151.748 150.843C152.195 154.367 150.48 157.617 147.786 159.283C144.679 158.238 142.314 155.498 141.86 151.952C141.484 148.934 142.608 146.21 144.687 144.318C145.395 143.682 146.397 143.597 147.213 144.031C149.672 145.458 151.37 147.914 151.747 150.844Z" fill="#C8F4DF" stroke="black" stroke-width="2"/>
<path d="M158.168 143.425C159.354 143.509 160.258 144.197 160.643 145.279C161.79 148.534 161.315 152.276 159.108 155.255C156.762 158.262 153.3 159.878 149.871 159.691C148.786 159.611 147.975 159.015 147.595 158.025C146.342 154.675 146.813 150.933 149.043 147.846C151.25 144.877 154.711 143.335 158.168 143.425Z" fill="#76E4AF" stroke="black" stroke-width="2"/>
<path d="M176.173 295.956H193.186V273.053H193.115C193.115 273.053 193.16 273.053 193.186 273.053L190.706 270.573C190.51 270.376 190.189 270.376 189.993 270.573L187.513 273.053C187.513 273.053 187.559 273.053 187.585 273.053H187.441C187.441 273.053 187.487 273.053 187.513 273.053L185.033 270.573C184.837 270.376 184.516 270.376 184.32 270.573L181.84 273.053C181.84 273.053 181.885 273.053 181.911 273.053H181.768C181.768 273.053 181.813 273.053 181.84 273.053L179.359 270.573C179.163 270.376 178.842 270.376 178.646 270.573L176.166 273.053C176.166 273.053 176.212 273.053 176.238 273.053H176.166V295.956H176.173Z" fill="white"/>
</svg>
