<svg width="301" height="319" viewBox="0 0 301 319" fill="none" xmlns="http://www.w3.org/2000/svg">
<rect width="231" height="234" transform="matrix(-1 0 0 1 244 21)" fill="#F5F5F5" stroke="#CCCCCC" stroke-width="1.5"/>
<rect width="67.3652" height="11.1768" rx="2" transform="matrix(-1 0 0 1 87.1416 243.888)" fill="#F5F5F5" stroke="#CCCCCC" stroke-width="1.5" stroke-linejoin="round"/>
<rect width="57.7416" height="11.1768" rx="2" transform="matrix(-1 0 0 1 82.3296 232.712)" fill="#F5F5F5" stroke="#CCCCCC" stroke-width="1.5" stroke-linejoin="round"/>
<rect width="48.118" height="86.5426" transform="matrix(-1 0 0 1 77.5176 146.169)" fill="#F5F5F5" stroke="#CCCCCC" stroke-width="1.5" stroke-linejoin="round"/>
<rect width="33.6826" height="64.7569" rx="2" transform="matrix(-1 0 0 1 70.2998 155.444)" fill="white" stroke="#CCCCCC" stroke-width="1.5" stroke-linejoin="round"/>
<path d="M48.6411 166.769L41.2793 172.416" stroke="#CCCCCC" stroke-width="1.5" stroke-linecap="round" stroke-linejoin="round"/>
<path d="M61.9226 162.068L40.0713 178.403" stroke="#CCCCCC" stroke-width="1.5" stroke-linecap="round" stroke-linejoin="round" stroke-dasharray="2 3 10 3 2 10"/>
<path d="M251.214 5.99999C251.214 3.23857 248.975 1 246.214 1H6.00024C3.23883 1 1.00024 3.23858 1.00024 6V21.0907H251.214V5.99999Z" fill="#F5F5F5" stroke="#CCCCCC" stroke-width="1.5" stroke-linejoin="round"/>
<path d="M251.013 21.0557H246.201V25.7127H246.356C248.928 25.7127 251.013 23.6277 251.013 21.0557Z" fill="#F5F5F5" stroke="#CCCCCC" stroke-width="1.5"/>
<rect width="4.8118" height="4.65702" transform="matrix(-1 0 0 1 193.271 21.0557)" fill="#F5F5F5" stroke="#CCCCCC" stroke-width="1.5"/>
<rect width="4.8118" height="4.65702" transform="matrix(-1 0 0 1 231.766 21.0557)" fill="#F5F5F5" stroke="#CCCCCC" stroke-width="1.5"/>
<rect width="4.8118" height="4.65702" transform="matrix(-1 0 0 1 174.024 21.0557)" fill="#F5F5F5" stroke="#CCCCCC" stroke-width="1.5"/>
<rect width="4.8118" height="4.65702" transform="matrix(-1 0 0 1 212.518 21.0557)" fill="#F5F5F5" stroke="#CCCCCC" stroke-width="1.5"/>
<rect width="4.8118" height="4.65702" transform="matrix(-1 0 0 1 154.777 21.0557)" fill="#F5F5F5" stroke="#CCCCCC" stroke-width="1.5"/>
<rect width="4.8118" height="4.65702" transform="matrix(-1 0 0 1 241.389 21.0557)" fill="#F5F5F5" stroke="#CCCCCC" stroke-width="1.5"/>
<rect width="4.8118" height="4.65702" transform="matrix(-1 0 0 1 183.647 21.0557)" fill="#F5F5F5" stroke="#CCCCCC" stroke-width="1.5"/>
<rect width="4.8118" height="4.65702" transform="matrix(-1 0 0 1 222.142 21.0557)" fill="#F5F5F5" stroke="#CCCCCC" stroke-width="1.5"/>
<rect width="4.8118" height="4.65702" transform="matrix(-1 0 0 1 164.4 21.0557)" fill="#F5F5F5" stroke="#CCCCCC" stroke-width="1.5"/>
<rect width="4.8118" height="4.65702" transform="matrix(-1 0 0 1 202.895 21.0557)" fill="#F5F5F5" stroke="#CCCCCC" stroke-width="1.5"/>
<rect width="4.8118" height="4.65702" transform="matrix(-1 0 0 1 145.153 21.0557)" fill="#F5F5F5" stroke="#CCCCCC" stroke-width="1.5"/>
<rect width="4.8118" height="4.65702" transform="matrix(-1 0 0 1 130.718 21.0557)" fill="#F5F5F5" stroke="#CCCCCC" stroke-width="1.5"/>
<rect width="4.8118" height="4.65702" transform="matrix(-1 0 0 1 246.201 21.0557)" fill="#F5F5F5" stroke="#CCCCCC" stroke-width="1.5"/>
<rect width="4.8118" height="4.65702" transform="matrix(-1 0 0 1 188.459 21.0557)" fill="#F5F5F5" stroke="#CCCCCC" stroke-width="1.5"/>
<rect width="4.8118" height="4.65702" transform="matrix(-1 0 0 1 226.954 21.0557)" fill="#F5F5F5" stroke="#CCCCCC" stroke-width="1.5"/>
<rect width="4.8118" height="4.65702" transform="matrix(-1 0 0 1 169.212 21.0557)" fill="#F5F5F5" stroke="#CCCCCC" stroke-width="1.5"/>
<rect width="4.8118" height="4.65702" transform="matrix(-1 0 0 1 207.707 21.0557)" fill="#F5F5F5" stroke="#CCCCCC" stroke-width="1.5"/>
<rect width="4.8118" height="4.65702" transform="matrix(-1 0 0 1 149.965 21.0557)" fill="#F5F5F5" stroke="#CCCCCC" stroke-width="1.5"/>
<rect width="4.8118" height="4.65702" transform="matrix(-1 0 0 1 135.529 21.0557)" fill="#F5F5F5" stroke="#CCCCCC" stroke-width="1.5"/>
<rect width="4.8118" height="4.65702" transform="matrix(-1 0 0 1 236.577 21.0557)" fill="#F5F5F5" stroke="#CCCCCC" stroke-width="1.5"/>
<rect width="4.8118" height="4.65702" transform="matrix(-1 0 0 1 178.836 21.0557)" fill="#F5F5F5" stroke="#CCCCCC" stroke-width="1.5"/>
<rect width="4.8118" height="4.65702" transform="matrix(-1 0 0 1 217.33 21.0557)" fill="#F5F5F5" stroke="#CCCCCC" stroke-width="1.5"/>
<rect width="4.8118" height="4.65702" transform="matrix(-1 0 0 1 159.588 21.0557)" fill="#F5F5F5" stroke="#CCCCCC" stroke-width="1.5"/>
<rect width="4.8118" height="4.65702" transform="matrix(-1 0 0 1 198.083 21.0557)" fill="#F5F5F5" stroke="#CCCCCC" stroke-width="1.5"/>
<rect width="4.8118" height="4.65702" transform="matrix(-1 0 0 1 140.341 21.0557)" fill="#F5F5F5" stroke="#CCCCCC" stroke-width="1.5"/>
<rect width="4.8118" height="4.65702" transform="matrix(-1 0 0 1 125.906 21.0557)" fill="#F5F5F5" stroke="#CCCCCC" stroke-width="1.5" stroke-linejoin="round"/>
<rect width="4.8118" height="4.65702" transform="matrix(-1 0 0 1 68.1646 21.0557)" fill="#F5F5F5" stroke="#CCCCCC" stroke-width="1.5" stroke-linejoin="round"/>
<rect width="4.8118" height="4.65702" transform="matrix(-1 0 0 1 106.659 21.0557)" fill="#F5F5F5" stroke="#CCCCCC" stroke-width="1.5" stroke-linejoin="round"/>
<rect width="4.8118" height="4.65702" transform="matrix(-1 0 0 1 48.9175 21.0557)" fill="#F5F5F5" stroke="#CCCCCC" stroke-width="1.5" stroke-linejoin="round"/>
<rect width="4.8118" height="4.65702" transform="matrix(-1 0 0 1 87.4121 21.0557)" fill="#F5F5F5" stroke="#CCCCCC" stroke-width="1.5" stroke-linejoin="round"/>
<rect width="4.8118" height="4.65702" transform="matrix(-1 0 0 1 29.6704 21.0557)" fill="#F5F5F5" stroke="#CCCCCC" stroke-width="1.5" stroke-linejoin="round"/>
<rect width="4.8118" height="4.65702" transform="matrix(-1 0 0 1 116.283 21.0557)" fill="#F5F5F5" stroke="#CCCCCC" stroke-width="1.5" stroke-linejoin="round"/>
<rect width="4.8118" height="4.65702" transform="matrix(-1 0 0 1 58.541 21.0557)" fill="#F5F5F5" stroke="#CCCCCC" stroke-width="1.5" stroke-linejoin="round"/>
<rect width="4.8118" height="4.65702" transform="matrix(-1 0 0 1 97.0356 21.0557)" fill="#F5F5F5" stroke="#CCCCCC" stroke-width="1.5" stroke-linejoin="round"/>
<rect width="4.8118" height="4.65702" transform="matrix(-1 0 0 1 39.2939 21.0557)" fill="#F5F5F5" stroke="#CCCCCC" stroke-width="1.5" stroke-linejoin="round"/>
<rect width="4.8118" height="4.65702" transform="matrix(-1 0 0 1 77.7881 21.0557)" fill="#F5F5F5" stroke="#CCCCCC" stroke-width="1.5" stroke-linejoin="round"/>
<rect width="4.8118" height="4.65702" transform="matrix(-1 0 0 1 20.0469 21.0557)" fill="#F5F5F5" stroke="#CCCCCC" stroke-width="1.5" stroke-linejoin="round"/>
<path d="M5.61133 21.0557H0.799528C0.799528 23.6277 2.88454 25.7127 5.45654 25.7127H5.61133V21.0557Z" fill="#F5F5F5" stroke="#CCCCCC" stroke-width="1.5" stroke-linejoin="round"/>
<rect width="4.8118" height="4.65702" transform="matrix(-1 0 0 1 121.094 21.0557)" fill="#F5F5F5" stroke="#CCCCCC" stroke-width="1.5" stroke-linejoin="round"/>
<rect width="4.8118" height="4.65702" transform="matrix(-1 0 0 1 63.353 21.0557)" fill="#F5F5F5" stroke="#CCCCCC" stroke-width="1.5" stroke-linejoin="round"/>
<rect width="4.8118" height="4.65702" transform="matrix(-1 0 0 1 101.847 21.0557)" fill="#F5F5F5" stroke="#CCCCCC" stroke-width="1.5" stroke-linejoin="round"/>
<rect width="4.8118" height="4.65702" transform="matrix(-1 0 0 1 44.1055 21.0557)" fill="#F5F5F5" stroke="#CCCCCC" stroke-width="1.5" stroke-linejoin="round"/>
<rect width="4.8118" height="4.65702" transform="matrix(-1 0 0 1 82.6001 21.0557)" fill="#F5F5F5" stroke="#CCCCCC" stroke-width="1.5" stroke-linejoin="round"/>
<rect width="4.8118" height="4.65702" transform="matrix(-1 0 0 1 24.8584 21.0557)" fill="#F5F5F5" stroke="#CCCCCC" stroke-width="1.5" stroke-linejoin="round"/>
<rect width="4.8118" height="4.65702" transform="matrix(-1 0 0 1 10.4229 21.0557)" fill="#F5F5F5" stroke="#CCCCCC" stroke-width="1.5" stroke-linejoin="round"/>
<rect width="4.8118" height="4.65702" transform="matrix(-1 0 0 1 111.471 21.0557)" fill="#F5F5F5" stroke="#CCCCCC" stroke-width="1.5" stroke-linejoin="round"/>
<rect width="4.8118" height="4.65702" transform="matrix(-1 0 0 1 53.7295 21.0557)" fill="#F5F5F5" stroke="#CCCCCC" stroke-width="1.5" stroke-linejoin="round"/>
<rect width="4.8118" height="4.65702" transform="matrix(-1 0 0 1 92.2236 21.0557)" fill="#F5F5F5" stroke="#CCCCCC" stroke-width="1.5" stroke-linejoin="round"/>
<rect width="4.8118" height="4.65702" transform="matrix(-1 0 0 1 34.4819 21.0557)" fill="#F5F5F5" stroke="#CCCCCC" stroke-width="1.5" stroke-linejoin="round"/>
<rect width="4.8118" height="4.65702" transform="matrix(-1 0 0 1 72.9766 21.0557)" fill="#F5F5F5" stroke="#CCCCCC" stroke-width="1.5" stroke-linejoin="round"/>
<rect width="4.8118" height="4.65702" transform="matrix(-1 0 0 1 15.2349 21.0557)" fill="#F5F5F5" stroke="#CCCCCC" stroke-width="1.5" stroke-linejoin="round"/>
<path d="M72.7656 189.44C72.7656 190.043 73.2775 190.573 73.9609 190.573C74.6444 190.573 75.1562 190.043 75.1562 189.44C75.1562 188.837 74.6444 188.307 73.9609 188.307C73.2775 188.307 72.7656 188.837 72.7656 189.44Z" fill="#F5F5F5" stroke="#CCCCCC" stroke-width="1.5"/>
<path d="M220.006 55.2388H176.7V111.123H220.006V55.2388Z" fill="#F5F5F5" stroke="#CCCCCC" stroke-width="1.5" stroke-linejoin="round"/>
<rect width="33.6826" height="46.5702" transform="matrix(-1 0 0 1 215.194 59.8955)" fill="white" stroke="#CCCCCC" stroke-width="1.5" stroke-linejoin="round"/>
<rect x="224.873" y="118.574" width="53.0401" height="7.45123" rx="2" transform="rotate(180 224.873 118.574)" fill="#F5F5F5" stroke="#CCCCCC" stroke-width="1.5" stroke-linejoin="round"/>
<rect x="224.873" y="55.2388" width="53.0401" height="3.72561" rx="1.86281" transform="rotate(180 224.873 55.2388)" fill="#F5F5F5" stroke="#CCCCCC" stroke-width="1.5" stroke-linejoin="round"/>
<line y1="-0.75" x2="33.6826" y2="-0.75" transform="matrix(-1 0 0 1 215.194 83.1812)" stroke="#CCCCCC" stroke-width="1.5"/>
<path d="M220.006 145.838H176.7V201.722H220.006V145.838Z" fill="#F5F5F5" stroke="#CCCCCC" stroke-width="1.5" stroke-linejoin="round"/>
<rect width="33.6826" height="46.5702" transform="matrix(-1 0 0 1 215.194 150.495)" fill="white" stroke="#CCCCCC" stroke-width="1.5" stroke-linejoin="round"/>
<rect x="224.873" y="209.173" width="53.0401" height="7.45123" rx="2" transform="rotate(180 224.873 209.173)" fill="#F5F5F5" stroke="#CCCCCC" stroke-width="1.5" stroke-linejoin="round"/>
<rect x="224.873" y="145.838" width="53.0401" height="3.72561" rx="1.86281" transform="rotate(180 224.873 145.838)" fill="#F5F5F5" stroke="#CCCCCC" stroke-width="1.5" stroke-linejoin="round"/>
<line y1="-0.75" x2="33.6826" y2="-0.75" transform="matrix(-1 0 0 1 215.194 173.78)" stroke="#CCCCCC" stroke-width="1.5"/>
<path d="M147.559 55.2388H104.252V111.123H147.559V55.2388Z" fill="#F5F5F5" stroke="#CCCCCC" stroke-width="1.5" stroke-linejoin="round"/>
<rect width="33.6826" height="46.5702" transform="matrix(-1 0 0 1 142.747 59.8955)" fill="white" stroke="#CCCCCC" stroke-width="1.5" stroke-linejoin="round"/>
<rect x="152.426" y="118.574" width="53.0401" height="7.45123" rx="2" transform="rotate(180 152.426 118.574)" fill="#F5F5F5" stroke="#CCCCCC" stroke-width="1.5" stroke-linejoin="round"/>
<rect x="152.426" y="55.2388" width="53.0401" height="3.72561" rx="1.86281" transform="rotate(180 152.426 55.2388)" fill="#F5F5F5" stroke="#CCCCCC" stroke-width="1.5" stroke-linejoin="round"/>
<line y1="-0.75" x2="33.6826" y2="-0.75" transform="matrix(-1 0 0 1 142.747 83.1812)" stroke="#CCCCCC" stroke-width="1.5"/>
<path d="M147.559 145.838H104.252V201.722H147.559V145.838Z" fill="#F5F5F5" stroke="#CCCCCC" stroke-width="1.5" stroke-linejoin="round"/>
<rect width="33.6826" height="46.5702" transform="matrix(-1 0 0 1 142.747 150.495)" fill="white" stroke="#CCCCCC" stroke-width="1.5" stroke-linejoin="round"/>
<rect x="152.426" y="209.173" width="53.0401" height="7.45123" rx="2" transform="rotate(180 152.426 209.173)" fill="#F5F5F5" stroke="#CCCCCC" stroke-width="1.5" stroke-linejoin="round"/>
<rect x="152.426" y="145.838" width="53.0401" height="3.72561" rx="1.86281" transform="rotate(180 152.426 145.838)" fill="#F5F5F5" stroke="#CCCCCC" stroke-width="1.5" stroke-linejoin="round"/>
<line y1="-0.75" x2="33.6826" y2="-0.75" transform="matrix(-1 0 0 1 142.747 173.78)" stroke="#CCCCCC" stroke-width="1.5"/>
<rect x="82.3296" y="145.837" width="57.7416" height="3.72561" rx="1.86281" transform="rotate(180 82.3296 145.837)" fill="#F5F5F5" stroke="#CCCCCC" stroke-width="1.5" stroke-linejoin="round"/>
<path d="M75.1113 55.2388H31.8051V111.123H75.1113V55.2388Z" fill="#F5F5F5" stroke="#CCCCCC" stroke-width="1.5" stroke-linejoin="round"/>
<rect width="33.6826" height="46.5702" transform="matrix(-1 0 0 1 70.2998 59.8955)" fill="white" stroke="#CCCCCC" stroke-width="1.5" stroke-linejoin="round"/>
<rect x="79.9785" y="118.574" width="53.0401" height="7.45123" rx="2" transform="rotate(180 79.9785 118.574)" fill="#F5F5F5" stroke="#CCCCCC" stroke-width="1.5" stroke-linejoin="round"/>
<rect x="79.9785" y="55.2388" width="53.0401" height="3.72561" rx="1.86281" transform="rotate(180 79.9785 55.2388)" fill="#F5F5F5" stroke="#CCCCCC" stroke-width="1.5" stroke-linejoin="round"/>
<line y1="-0.75" x2="33.6826" y2="-0.75" transform="matrix(-1 0 0 1 70.2998 83.1812)" stroke="#CCCCCC" stroke-width="1.5"/>
<path d="M176.052 200.218L232.136 210.501C235.847 211.181 238.325 214.861 237.671 218.72L228.512 272.733C227.857 276.592 224.319 279.168 220.608 278.488L164.523 268.205C160.812 267.524 158.334 263.844 158.989 259.986L168.148 205.973C168.802 202.114 172.341 199.537 176.052 200.218Z" fill="#DFD1C4"/>
<path d="M176.052 200.218L232.136 210.501C235.847 211.181 238.325 214.861 237.671 218.72L228.512 272.733C227.857 276.592 224.319 279.168 220.608 278.488L164.523 268.205C160.812 267.524 158.334 263.844 158.989 259.986L168.148 205.973C168.802 202.114 172.341 199.537 176.052 200.218Z" stroke="#28293C" stroke-width="2" stroke-linecap="round" stroke-linejoin="round"/>
<path d="M191.599 142.808L236.408 151.024C240.119 151.704 242.597 155.384 241.943 159.243L234.465 203.339C233.811 207.198 230.272 209.774 226.561 209.094L181.752 200.878C178.041 200.198 175.564 196.518 176.218 192.659L183.695 148.563C184.35 144.704 187.888 142.128 191.599 142.808Z" fill="#ECE4DD"/>
<path d="M191.599 142.808L236.408 151.024C240.119 151.704 242.597 155.384 241.943 159.243L234.465 203.339C233.811 207.198 230.272 209.774 226.561 209.094L181.752 200.878C178.041 200.198 175.564 196.518 176.218 192.659L183.695 148.563C184.35 144.704 187.888 142.128 191.599 142.808Z" stroke="#28293C" stroke-width="2" stroke-linecap="round" stroke-linejoin="round"/>
<path d="M205.294 176.935L208.863 174.935C209.153 174.771 209.516 174.838 209.737 175.095L212.432 178.243C212.697 178.549 212.667 179.019 212.373 179.294C212.236 179.418 212.066 179.48 211.899 179.48C211.703 179.48 211.507 179.396 211.366 179.232L209.652 177.232L208.671 183.019C208.611 183.378 208.309 183.635 207.968 183.635C207.925 183.635 207.887 183.635 207.844 183.622C207.456 183.551 207.196 183.165 207.264 182.761L208.245 176.975L205.976 178.247C205.626 178.443 205.196 178.305 205.008 177.946C204.821 177.587 204.953 177.134 205.298 176.939L205.294 176.935Z" fill="#28293C"/>
<path d="M212.735 187.865C213.076 187.865 213.379 187.612 213.438 187.249C213.507 186.845 213.246 186.46 212.858 186.389L202.219 184.438C201.831 184.367 201.46 184.637 201.392 185.041C201.323 185.444 201.584 185.83 201.972 185.901L212.611 187.852C212.654 187.861 212.696 187.865 212.735 187.865Z" fill="#28293C"/>
<path d="M194.369 237.803L197.938 235.803C198.228 235.639 198.59 235.705 198.812 235.962L201.507 239.111C201.771 239.417 201.742 239.887 201.447 240.162C201.311 240.286 201.14 240.348 200.974 240.348C200.778 240.348 200.582 240.264 200.441 240.1L198.727 238.1L197.746 243.886C197.686 244.245 197.383 244.503 197.042 244.503C197 244.503 196.961 244.503 196.919 244.489C196.531 244.418 196.27 244.033 196.339 243.629L197.319 237.843L195.051 239.115C194.701 239.31 194.27 239.173 194.083 238.814C193.895 238.454 194.027 238.002 194.373 237.807L194.369 237.803Z" fill="#28293C"/>
<path d="M201.806 248.733C202.147 248.733 202.449 248.48 202.509 248.117C202.577 247.713 202.317 247.327 201.929 247.256L191.29 245.305C190.902 245.234 190.531 245.505 190.463 245.908C190.394 246.312 190.654 246.698 191.042 246.769L201.682 248.72C201.725 248.728 201.767 248.733 201.806 248.733Z" fill="#28293C"/>
<path d="M156.194 276.442L238.482 291.531C240.998 291.992 243.395 290.245 243.838 287.633L263.838 169.671C264.648 164.896 268.294 161.237 272.912 160.563L291.044 157.921C293.573 157.553 295.334 155.123 294.98 152.493C294.626 149.864 292.294 148.028 289.761 148.401L271.629 151.043C263.028 152.298 256.239 159.114 254.729 168.004L235.532 281.231L157.798 266.979C155.282 266.518 152.885 268.265 152.442 270.877C151.998 273.493 153.678 275.985 156.19 276.446L156.194 276.442Z" fill="#FF827A" stroke="#28293C" stroke-width="2" stroke-linecap="round" stroke-linejoin="round"/>
<path d="M273.254 162.129L294.537 158.555C297.897 157.992 300.183 154.702 299.637 151.203C299.096 147.709 295.932 145.332 292.567 145.896L271.288 149.47L273.254 162.125V162.129Z" fill="#FFD5D3" stroke="#28293C" stroke-width="2" stroke-linecap="round" stroke-linejoin="round"/>
<path d="M233.726 312.742C219.942 309.554 211.253 295.35 214.319 281.017C217.385 266.683 231.045 257.648 244.829 260.836C258.614 264.024 267.303 278.228 264.237 292.562C261.171 306.895 247.511 315.93 233.726 312.742Z" fill="#28293C" stroke="#28293C" stroke-width="2" stroke-linecap="round" stroke-linejoin="round"/>
<path d="M241.075 276.229C246.687 277.258 250.435 282.823 249.446 288.658C248.457 294.493 243.105 298.391 237.493 297.362C231.881 296.334 228.133 290.769 229.122 284.933C230.112 279.098 235.463 275.2 241.075 276.229Z" fill="white" stroke="#28293C" stroke-width="2" stroke-linecap="round" stroke-linejoin="round"/>
<path d="M198.633 205.18L209.554 207.18L206.961 222.465L206.914 222.456C206.914 222.456 206.944 222.465 206.961 222.469L205.089 223.83C204.94 223.937 204.735 223.901 204.633 223.746L203.324 221.8C203.324 221.8 203.353 221.8 203.37 221.804L203.281 221.786C203.281 221.786 203.311 221.795 203.328 221.8L201.456 223.161C201.307 223.267 201.102 223.232 201 223.077L199.69 221.13C199.69 221.13 199.72 221.13 199.737 221.134L199.648 221.117C199.648 221.117 199.678 221.126 199.695 221.13L197.823 222.491C197.673 222.598 197.469 222.562 197.366 222.407L196.057 220.46C196.057 220.46 196.087 220.46 196.104 220.465L196.057 220.456L198.65 205.171L198.633 205.18Z" fill="white"/>
<path d="M209.285 146.92L220.206 148.92L217.613 164.204L217.566 164.196C217.566 164.196 217.596 164.204 217.613 164.209L215.741 165.57C215.592 165.677 215.387 165.641 215.285 165.486L213.976 163.539C213.976 163.539 214.006 163.539 214.023 163.544L213.933 163.526C213.933 163.526 213.963 163.535 213.98 163.539L212.108 164.901C211.959 165.007 211.754 164.972 211.652 164.816L210.343 162.87C210.343 162.87 210.373 162.87 210.39 162.874L210.3 162.856C210.3 162.856 210.33 162.865 210.347 162.87L208.475 164.231C208.326 164.337 208.121 164.302 208.019 164.147L206.71 162.2C206.71 162.2 206.739 162.2 206.756 162.205L206.71 162.196L209.302 146.911L209.285 146.92Z" fill="white"/>
</svg>
