<svg width="376" height="311" viewBox="0 0 376 311" fill="none" xmlns="http://www.w3.org/2000/svg">
<mask id="mask0_788_32628" style="mask-type:alpha" maskUnits="userSpaceOnUse" x="0" y="0" width="376" height="311">
<path d="M375.62 20.4932C375.62 9.44748 366.666 0.493164 355.62 0.493164H20.6201C9.57443 0.493164 0.620117 9.44747 0.620117 20.4932V310.327H375.62V20.4932Z" fill="#D9D9D9"/>
</mask>
<g mask="url(#mask0_788_32628)">
<path d="M80.6037 130.438H518.529C525.744 130.438 531.593 136.288 531.593 143.503C531.593 150.718 525.744 156.568 518.529 156.568H80.6037C73.3883 156.568 67.5391 150.718 67.5391 143.503C67.5391 136.288 73.3883 130.438 80.6037 130.438Z" fill="#F5F5F5" stroke="#CCCCCC" stroke-width="2" stroke-linecap="round" stroke-linejoin="round"/>
<path d="M80.6037 156.567H518.529C525.744 156.567 531.593 162.417 531.593 169.632V211.195C531.593 218.41 525.744 224.259 518.529 224.259H80.6037C73.3883 224.259 67.5391 218.41 67.5391 211.195V169.632C67.5391 162.417 73.3883 156.567 80.6037 156.567Z" fill="#F5F5F5" stroke="#CCCCCC" stroke-width="2" stroke-linecap="round" stroke-linejoin="round"/>
<path d="M381.296 19.7295H499.614C506.829 19.7295 512.678 25.5787 512.678 32.7941V107.754C512.678 114.97 506.829 120.819 499.614 120.819H381.296C374.081 120.819 368.232 114.97 368.232 107.754V32.7941C368.232 25.5787 374.081 19.7295 381.296 19.7295Z" fill="#F5F5F5" stroke="#CCCCCC" stroke-width="2" stroke-linecap="round" stroke-linejoin="round"/>
<path d="M236.849 19.7295H355.167C362.382 19.7295 368.231 25.5787 368.231 32.7941V107.754C368.231 114.97 362.382 120.819 355.167 120.819H236.849C229.634 120.819 223.785 114.97 223.785 107.754V32.7941C223.785 25.5787 229.634 19.7295 236.849 19.7295Z" fill="#F5F5F5" stroke="#CCCCCC" stroke-width="2" stroke-linecap="round" stroke-linejoin="round"/>
<path d="M92.3939 19.7295H210.711C217.927 19.7295 223.776 25.5787 223.776 32.7941V107.754C223.776 114.97 217.927 120.819 210.711 120.819H92.3939C85.1785 120.819 79.3293 114.97 79.3293 107.754V32.7941C79.3293 25.5787 85.1785 19.7295 92.3939 19.7295Z" fill="#F5F5F5" stroke="#CCCCCC" stroke-width="2" stroke-linecap="round" stroke-linejoin="round"/>
<path d="M79.3295 224.259H88.9575V248.504H79.3295V224.259Z" fill="#F5F5F5" stroke="#CCCCCC" stroke-width="2" stroke-linecap="round" stroke-linejoin="round"/>
<path d="M322.443 74.761C319.966 74.761 317.956 72.7511 317.956 70.2746C317.956 67.798 319.966 65.7881 322.443 65.7881C324.919 65.7881 326.929 67.798 326.929 70.2746C326.929 72.7511 324.928 74.761 322.443 74.761Z" fill="#F5F5F5" stroke="#CCCCCC" stroke-width="2" stroke-linecap="round" stroke-linejoin="round"/>
<path d="M269.565 74.761C267.089 74.761 265.079 72.7511 265.079 70.2746C265.079 67.798 267.089 65.7881 269.565 65.7881C272.042 65.7881 274.052 67.798 274.052 70.2746C274.052 72.7511 272.051 74.761 269.565 74.761Z" fill="#F5F5F5" stroke="#CCCCCC" stroke-width="2" stroke-linecap="round" stroke-linejoin="round"/>
<path d="M177.996 74.761C175.519 74.761 173.509 72.7511 173.509 70.2746C173.509 67.798 175.519 65.7881 177.996 65.7881C180.472 65.7881 182.482 67.798 182.482 70.2746C182.482 72.7511 180.481 74.761 177.996 74.761Z" fill="#F5F5F5" stroke="#CCCCCC" stroke-width="2" stroke-linecap="round" stroke-linejoin="round"/>
<path d="M125.119 74.761C122.642 74.761 120.632 72.7511 120.632 70.2746C120.632 67.798 122.642 65.7881 125.119 65.7881C127.595 65.7881 129.605 67.798 129.605 70.2746C129.605 72.7511 127.604 74.761 125.119 74.761Z" fill="#F5F5F5" stroke="#CCCCCC" stroke-width="2" stroke-linecap="round" stroke-linejoin="round"/>
</g>
<path d="M107.399 172.849C107.399 164.419 111.049 147.249 116.399 147.249C121.749 147.249 124.619 160.319 124.619 168.749" fill="#DFD2C6"/>
<path d="M107.399 172.849C107.399 164.419 111.049 147.249 116.399 147.249C121.749 147.249 124.619 160.319 124.619 168.749" stroke="#28293C" stroke-width="2" stroke-linecap="round" stroke-linejoin="round"/>
<path d="M132.159 172.849C132.159 164.419 135.819 147.249 141.159 147.249C146.499 147.249 148.439 165.049 148.439 173.479" fill="#DFD2C6"/>
<path d="M132.159 172.849C132.159 164.419 135.819 147.249 141.159 147.249C146.499 147.249 148.439 165.049 148.439 173.479" stroke="#28293C" stroke-width="2" stroke-linecap="round" stroke-linejoin="round"/>
<path d="M128.099 208.099C140.999 208.099 151.469 197.629 151.469 184.709C151.469 171.789 141.009 161.319 128.099 161.319C115.189 161.319 104.729 171.789 104.729 184.709C104.729 197.629 115.189 208.099 128.099 208.099Z" fill="#F2EDE8" stroke="#28293C" stroke-width="2" stroke-linecap="round" stroke-linejoin="round"/>
<path d="M67.539 260.359C53.399 254.499 27.369 230.689 57.299 187.169C57.299 187.169 72.409 163.269 46.569 157.899" stroke="#28293C" stroke-width="2" stroke-linecap="round" stroke-linejoin="round"/>
<path d="M180.054 272.509H36.4987C31.9535 272.509 28.2764 276.347 28.2764 281.09V293.936C28.2764 298.67 31.9617 302.509 36.4987 302.509H180.054C184.599 302.509 188.276 298.67 188.276 293.936V281.09C188.276 276.356 184.591 272.509 180.054 272.509Z" fill="#A4EDCA" stroke="#28293C" stroke-width="2" stroke-linecap="round" stroke-linejoin="round"/>
<path d="M123.929 175.819V184.319" stroke="#28293C" stroke-width="2" stroke-linecap="round" stroke-linejoin="round"/>
<path d="M135.719 175.819V184.319" stroke="#28293C" stroke-width="2" stroke-linecap="round" stroke-linejoin="round"/>
<path d="M77.1792 269.169V259.319C77.1792 245.859 82.5192 232.959 92.0292 223.449C101.539 213.939 114.419 208.589 127.859 208.589V269.169" fill="#F2EDE8"/>
<path d="M77.1792 269.169V259.319C77.1792 245.859 82.5192 232.959 92.0292 223.449C101.539 213.939 114.419 208.589 127.859 208.589V269.169" stroke="#28293C" stroke-width="2" stroke-linecap="round" stroke-linejoin="round"/>
<path d="M98.5889 218.749L107.089 235.349" stroke="#28293C" stroke-width="2" stroke-linecap="round" stroke-linejoin="round"/>
<path d="M89.2192 227.819L97.7192 244.419" stroke="#28293C" stroke-width="2" stroke-linecap="round" stroke-linejoin="round"/>
<path d="M81.4092 241.439L89.9092 258.039" stroke="#28293C" stroke-width="2" stroke-linecap="round" stroke-linejoin="round"/>
<path d="M128.889 194.029H132.529V197.659" stroke="#28293C" stroke-width="2" stroke-linecap="round" stroke-linejoin="round"/>
</svg>
