<svg width="95" height="21" viewBox="0 0 95 21" fill="none" xmlns="http://www.w3.org/2000/svg">
<path d="M1.87305 16.2857C2.54109 17.2395 3.32048 18.0249 4.26687 18.6982L7.55142 12.9756L1.87305 16.2857Z" fill="#6DC72B"/>
<path d="M4.26687 2.42969C3.32048 3.04683 2.54109 3.88838 1.87305 4.78604L7.55142 8.09616L4.26687 2.42969Z" fill="#6DC72B"/>
<path d="M14.1215 1.53145C13.1194 1.02652 12.006 0.745996 10.8369 0.633789V7.19792L14.1215 1.53145Z" fill="#6DC72B"/>
<path d="M5.82617 19.5962C6.88391 20.1011 7.94164 20.3816 9.11072 20.4938V13.9297L5.82617 19.5962Z" fill="#6DC72B"/>
<path d="M18.0739 4.78453C17.4058 3.83077 16.6265 3.04531 15.6801 2.37207L12.3955 8.09465L18.0739 4.78453Z" fill="#6DC72B"/>
<path d="M15.6801 18.6982C16.6265 18.0249 17.4058 17.2395 18.0739 16.2857L12.3955 12.9756L15.6801 18.6982Z" fill="#6DC72B"/>
<path d="M19.7996 9.66656C19.6882 8.54449 19.4099 7.42242 18.9088 6.35645L13.2305 9.66656H19.7996Z" fill="#008036"/>
<path d="M0.0917969 11.4609C0.203138 12.583 0.481489 13.7051 0.982522 14.7711L6.66089 11.4609H0.0917969Z" fill="#008036"/>
<path d="M0.982522 6.35645C0.481489 7.42242 0.203137 8.48839 0.0917969 9.66656H6.60522L0.982522 6.35645Z" fill="#008036"/>
<path d="M13.2852 11.4609L18.9635 14.7711C19.4646 13.7612 19.7429 12.6391 19.8543 11.4609H13.2852Z" fill="#008036"/>
<path d="M9.05506 0.633789C7.94165 0.745996 6.82824 1.02652 5.77051 1.53145L9.05506 7.25403V0.633789Z" fill="#008036"/>
<path d="M10.8369 20.4952C11.9503 20.383 13.0637 20.1025 14.1215 19.5976L10.8369 13.875V20.4952" fill="#008036"/>
<path d="M31.1569 8.32056C30.9899 7.4229 30.1548 6.80576 29.2085 6.86186C26.9816 6.86186 26.5363 8.9377 26.5363 10.5647C26.5363 12.4722 27.093 14.2114 29.0971 14.2114C30.0435 14.3237 30.8786 13.7065 31.1012 12.7527H32.4373C32.326 14.2675 30.7672 15.2774 28.9858 15.2774C26.3136 15.2774 25.2559 13.0894 25.2559 10.5086C25.2559 8.26446 26.2579 5.62758 29.2641 5.73979C30.9899 5.79589 32.326 6.63745 32.4373 8.26446L31.1569 8.32056Z" fill="#28293C"/>
<path d="M34.6622 12.1922C34.5509 13.3143 35.0519 14.4363 36.221 14.4363C36.9447 14.5486 37.6128 14.0436 37.7241 13.3143C37.7241 13.2582 37.7241 13.2021 37.7241 13.146H39.0602C38.8932 14.6047 37.7798 15.334 36.2767 15.334C34.2726 15.334 33.4375 13.8753 33.4375 12.0239C33.4375 10.1725 34.3839 8.60156 36.388 8.60156C38.2808 8.65767 39.1715 9.83584 39.1715 11.5751V12.1922H34.6622ZM37.8355 11.3506C37.8355 10.2847 37.3901 9.44312 36.221 9.44312C35.2746 9.49922 34.6066 10.2847 34.6066 11.1823C34.6066 11.2384 34.6066 11.2384 34.6066 11.2945L37.8355 11.3506Z" fill="#28293C"/>
<path d="M41.5109 9.72364C41.9006 9.05039 42.68 8.60156 43.4593 8.60156C43.9047 8.60156 45.8532 8.71377 45.8532 10.7335V15.1096H44.6284V11.1262C44.6284 10.0603 44.183 9.49922 43.181 9.49922C42.7356 9.49922 42.3459 9.66753 42.0119 9.94805C41.8449 10.1164 41.5109 10.3969 41.5109 11.6312V15.1096H40.3418V8.76987H41.5109V9.72364Z" fill="#28293C"/>
<path d="M47.7462 8.76851V7.42202L48.9153 7.0293V8.76851H50.3627V9.66617H48.9153V13.7617C48.9153 14.2106 49.2493 14.435 49.6947 14.435C49.9174 14.435 50.14 14.435 50.3071 14.3789V15.2765C50.0287 15.2765 49.7504 15.3326 49.472 15.3326C49.1936 15.3326 48.9153 15.3326 48.6926 15.2765C48.4143 15.2204 48.1359 15.1082 47.9689 14.8838C47.7462 14.6033 47.6906 14.5472 47.6906 13.7056V9.66617H46.6328V8.76851H47.7462Z" fill="#28293C"/>
<path d="M55.6509 8.76997H56.8199V15.1097H55.6509V14.1559C55.2055 14.8853 54.3704 15.3341 53.4797 15.278C52.3106 15.278 51.4199 14.3803 51.4199 13.2022C51.4199 13.1461 51.4199 13.0339 51.4199 12.9777V8.71387H52.589V12.4728C52.589 13.5949 52.8674 14.3803 53.9808 14.3803C54.5931 14.3803 55.1498 14.0437 55.3725 13.4827C55.5395 12.9777 55.5952 12.4728 55.5952 11.9679L55.6509 8.76997Z" fill="#28293C"/>
<path d="M59.6027 15.1073H58.4336V8.76763H59.6027V10.0019C59.8253 9.16036 60.6047 8.59932 61.4398 8.71153C61.6068 8.71153 61.7181 8.71153 61.8295 8.71153V9.8336C61.6625 9.7775 61.4955 9.7775 61.3284 9.7775C59.8253 9.8336 59.547 10.6191 59.547 11.9655L59.6027 15.1073Z" fill="#28293C"/>
<path d="M65.4486 17.5768H64.2238L65.1702 15.1083L62.5537 8.76855H63.8898L65.8383 13.7618L67.8424 8.76855H69.1228L65.4486 17.5768Z" fill="#28293C"/>
<path d="M70.0137 15.1088V5.96387H71.9621V13.594H75.9147V15.1088H70.0137Z" fill="#28293C"/>
<path d="M77.0283 5.96387H79.0325V7.59087H77.0283V5.96387ZM77.084 8.76905H78.9768V15.1088H77.084V8.76905Z" fill="#28293C"/>
<path d="M82.6506 9.49649C83.096 8.87934 83.8197 8.54272 84.599 8.59883C85.2114 8.59883 86.4362 9.04766 86.6588 10.0014C86.7145 10.338 86.7702 10.6747 86.7702 11.0113V15.163H84.8774V11.3479C84.8774 10.6747 84.6547 9.88921 83.764 9.88921C83.1516 9.88921 82.6506 10.3941 82.6506 11.3479V15.163H80.8135V8.76714H82.7063L82.6506 9.49649Z" fill="#28293C"/>
<path d="M90.5559 11.3498L92.4487 8.71295H94.5085L92.3373 11.462L94.6755 15.1088H92.4487L90.5559 11.6303V11.6864V15.1088H88.6631V5.96387H90.5559V11.3498Z" fill="#28293C"/>
</svg>
