<svg width="376" height="306" viewBox="0 0 376 306" fill="none" xmlns="http://www.w3.org/2000/svg">
<mask id="mask0_788_33114" style="mask-type:alpha" maskUnits="userSpaceOnUse" x="0" y="0" width="376" height="306">
<path d="M375.789 20.3113C375.789 9.2656 366.835 0.311279 355.789 0.311279H20.7889C9.74319 0.311279 0.788879 9.26558 0.788879 20.3113V305.31H375.789V20.3113Z" fill="#D9D9D9"/>
</mask>
<g mask="url(#mask0_788_33114)">
<path d="M-120.297 125.42H317.628C324.844 125.42 330.693 131.269 330.693 138.485C330.693 145.7 324.844 151.549 317.628 151.549H-120.297C-127.512 151.549 -133.361 145.7 -133.361 138.485C-133.361 131.269 -127.512 125.42 -120.297 125.42Z" fill="#F5F5F5" stroke="#CCCCCC" stroke-width="2" stroke-linecap="round" stroke-linejoin="round"/>
<path d="M-120.297 151.549H317.628C324.844 151.549 330.693 157.398 330.693 164.614V206.176C330.693 213.392 324.844 219.241 317.628 219.241H-120.297C-127.512 219.241 -133.361 213.392 -133.361 206.176V164.614C-133.361 157.398 -127.512 151.549 -120.297 151.549Z" fill="#F5F5F5" stroke="#CCCCCC" stroke-width="2" stroke-linecap="round" stroke-linejoin="round"/>
<path d="M180.396 14.7114H298.713C305.929 14.7114 311.778 20.5607 311.778 27.776V102.736C311.778 109.951 305.929 115.801 298.713 115.801H180.396C173.181 115.801 167.331 109.951 167.331 102.736V27.776C167.331 20.5607 173.181 14.7114 180.396 14.7114Z" fill="#F5F5F5" stroke="#CCCCCC" stroke-width="2" stroke-linecap="round" stroke-linejoin="round"/>
<path d="M35.9494 14.7114H154.267C161.482 14.7114 167.331 20.5607 167.331 27.776V102.736C167.331 109.951 161.482 115.801 154.267 115.801H35.9494C28.734 115.801 22.8848 109.951 22.8848 102.736V27.776C22.8848 20.5607 28.734 14.7114 35.9494 14.7114Z" fill="#F5F5F5" stroke="#CCCCCC" stroke-width="2" stroke-linecap="round" stroke-linejoin="round"/>
<path d="M-108.506 14.7114H9.81124C17.0266 14.7114 22.8759 20.5607 22.8759 27.776V102.736C22.8759 109.951 17.0266 115.801 9.81124 115.801H-108.506C-115.722 115.801 -121.571 109.951 -121.571 102.736V27.776C-121.571 20.5607 -115.722 14.7114 -108.506 14.7114Z" fill="#F5F5F5" stroke="#CCCCCC" stroke-width="2" stroke-linecap="round" stroke-linejoin="round"/>
<path d="M302.15 219.241H311.778V243.486H302.15V219.241Z" fill="#F5F5F5" stroke="#CCCCCC" stroke-width="2" stroke-linecap="round" stroke-linejoin="round"/>
<path d="M265.989 69.7427C263.512 69.7427 261.502 67.7328 261.502 65.2563C261.502 62.7797 263.512 60.7698 265.989 60.7698C268.465 60.7698 270.475 62.7797 270.475 65.2563C270.475 67.7328 268.474 69.7427 265.989 69.7427Z" fill="#F5F5F5" stroke="#CCCCCC" stroke-width="2" stroke-linecap="round" stroke-linejoin="round"/>
<path d="M213.12 69.743C210.644 69.743 208.634 67.733 208.634 65.2565C208.634 62.78 210.644 60.77 213.12 60.77C215.597 60.77 217.607 62.78 217.607 65.2565C217.607 67.733 215.606 69.743 213.12 69.743Z" fill="#F5F5F5" stroke="#CCCCCC" stroke-width="2" stroke-linecap="round" stroke-linejoin="round"/>
<path d="M121.542 69.7427C119.066 69.7427 117.056 67.7328 117.056 65.2563C117.056 62.7797 119.066 60.7698 121.542 60.7698C124.019 60.7698 126.029 62.7797 126.029 65.2563C126.029 67.7328 124.028 69.7427 121.542 69.7427Z" fill="#F5F5F5" stroke="#CCCCCC" stroke-width="2" stroke-linecap="round" stroke-linejoin="round"/>
<path d="M68.6647 69.743C66.1882 69.743 64.1782 67.733 64.1782 65.2565C64.1782 62.78 66.1882 60.77 68.6647 60.77C71.1412 60.77 73.1512 62.78 73.1512 65.2565C73.1512 67.733 71.1502 69.743 68.6647 69.743Z" fill="#F5F5F5" stroke="#CCCCCC" stroke-width="2" stroke-linecap="round" stroke-linejoin="round"/>
</g>
<path d="M146.194 179.539C146.194 179.539 140.618 167.78 151.651 148.678" stroke="#28293C" stroke-width="2" stroke-linecap="round" stroke-linejoin="round"/>
<path d="M142.614 179.749C142.614 179.749 139.571 168.52 125.057 167.361" stroke="#28293C" stroke-width="2" stroke-linecap="round" stroke-linejoin="round"/>
<path d="M163.195 163.069C157.868 162.159 152.816 165.778 151.907 171.105L136.843 262.057C135.933 267.384 139.558 272.442 144.898 273.352L190.888 281.008C196.215 281.918 201.28 278.299 202.176 272.972L217.253 182.026C218.15 176.7 214.524 171.641 209.198 170.732L163.201 163.076L163.195 163.069Z" fill="#FF827A" stroke="#28293C" stroke-width="2" stroke-linecap="round" stroke-linejoin="round"/>
<path d="M184.861 190.042L190.377 179.113C191.267 177.392 193.021 176.483 194.899 176.745L243.487 183.622C245.372 183.877 246.733 185.252 247.112 187.077L249.461 198.535" fill="white"/>
<path d="M184.861 190.042L190.377 179.113C191.267 177.392 193.021 176.483 194.899 176.745L243.487 183.622C245.372 183.877 246.733 185.252 247.112 187.077L249.461 198.535" stroke="#28293C" stroke-width="2" stroke-linecap="round" stroke-linejoin="round"/>
<path d="M184.848 190.042L192.399 203.712L237.702 209.582L249.461 198.425L184.854 190.042H184.848Z" fill="white" stroke="#28293C" stroke-width="2" stroke-linecap="round" stroke-linejoin="round"/>
<path d="M197.02 181.757L241.02 188.052C243.415 188.354 245.038 190.585 244.737 192.987L243.507 201.736C243.206 204.131 240.961 205.74 238.566 205.446L194.566 199.151C192.171 198.85 190.561 196.618 190.855 194.217L192.086 185.468C192.491 183.079 194.631 181.358 197.02 181.757Z" fill="#B1D0FC"/>
<path d="M195.94 192.515L239.011 198.627C241.609 199.046 243.422 201.402 243.101 204.013L241.936 211.924C241.518 214.522 239.162 216.335 236.551 216.021L193.479 209.909C190.882 209.49 189.062 207.128 189.376 204.523L190.541 196.612C190.855 194.007 193.329 192.201 195.94 192.522V192.515Z" fill="#62A0F8"/>
<path d="M187.544 228.487C183.376 227.937 180.411 224.122 180.955 219.954L184.848 190.042L192.4 203.712L237.702 209.582L249.462 198.425L245.568 228.336C245.018 232.505 241.203 235.463 237.022 234.913L187.544 228.493V228.487Z" fill="#B1D0FC" stroke="#28293C" stroke-width="2" stroke-linecap="round" stroke-linejoin="round"/>
<path d="M176.047 223.939L143.877 232.858C142.196 233.277 140.416 232.439 139.787 230.758L127.59 199.059C126.857 197.168 127.904 195.068 129.9 194.544L168.377 183.943C170.373 183.42 172.376 184.676 172.69 186.672L178.566 220.052C178.789 221.734 177.728 223.409 176.047 223.939Z" fill="#CFDEFA" stroke="#28293C" stroke-width="2" stroke-linecap="round" stroke-linejoin="round"/>
<path d="M173.004 186.044L126.641 198.85C125.266 199.269 123.689 198.536 122.956 197.169L120.018 191.606C118.958 189.611 119.914 187.196 121.805 186.672L170.576 173.133C172.473 172.61 174.469 174.076 174.679 176.281L175.202 182.478C175.412 184.16 174.469 185.625 172.997 186.044H173.004Z" fill="#96C0FA" stroke="#28293C" stroke-width="2" stroke-linecap="round" stroke-linejoin="round"/>
<path d="M263.923 212.919L264.028 278.312C264.028 285.87 257.838 292.06 250.26 292.06L120.647 292.165C113.082 292.165 106.878 285.975 106.878 278.416L106.774 213.024L263.93 212.919H263.923Z" fill="#DFD1C4" stroke="#28293C" stroke-width="2" stroke-linecap="round" stroke-linejoin="round"/>
<path d="M98.666 217.219L78.5896 239.893" stroke="#28293C" stroke-width="2" stroke-linecap="round" stroke-linejoin="round"/>
<path d="M295.988 244.408L274.44 216.276" stroke="#28293C" stroke-width="2" stroke-linecap="round" stroke-linejoin="round"/>
<path d="M163.862 151.666L163.853 151.687L163.846 151.709C163.017 154.109 161.098 156.146 158.433 157.017H158.422L158.272 157.066C154.941 158.15 151.411 157.167 149.03 154.836C149.553 151.599 151.781 148.71 155.112 147.635L155.122 147.631L155.132 147.628C157.846 146.689 160.686 147.241 162.877 148.672L162.887 148.679L162.898 148.686C163.857 149.277 164.309 150.544 163.862 151.666Z" fill="#C8F4DF" stroke="black" stroke-width="2"/>
<path d="M124.817 165.731L124.822 165.731C128.37 165.821 131.377 167.905 132.795 170.809C131.282 173.8 128.193 175.783 124.667 175.694C121.735 175.599 119.078 174.083 117.466 171.812C116.978 171.113 116.985 170.032 117.536 169.339L117.546 169.326L117.556 169.312C119.169 167.139 121.821 165.638 124.817 165.731Z" fill="#C8F4DF" stroke="black" stroke-width="2"/>
<path d="M130.141 159.156L130.392 159.398C132.905 161.966 133.885 165.492 133.334 168.849C133.095 169.931 132.327 170.669 131.354 170.895C127.889 171.661 124.133 170.7 121.445 168.108L121.444 168.106C118.745 165.515 117.69 161.971 118.26 158.512C118.501 157.335 119.357 156.498 120.431 156.268C123.784 155.594 127.445 156.556 130.141 159.156Z" fill="#76E4AF" stroke="black" stroke-width="2"/>
<path d="M151.916 145.862L151.917 145.862C152.364 149.385 150.648 152.635 147.954 154.301C144.847 153.256 142.483 150.516 142.029 146.97C141.653 143.952 142.776 141.228 144.855 139.336C145.563 138.701 146.566 138.616 147.382 139.05C149.841 140.476 151.539 142.932 151.916 145.862Z" fill="#C8F4DF" stroke="black" stroke-width="2"/>
<path d="M158.337 138.442C159.523 138.527 160.427 139.215 160.812 140.296C161.958 143.551 161.484 147.294 159.277 150.272C156.931 153.28 153.468 154.896 150.04 154.709C148.955 154.629 148.144 154.033 147.764 153.043C146.511 149.693 146.982 145.951 149.212 142.864C151.419 139.895 154.88 138.353 158.337 138.442Z" fill="#76E4AF" stroke="black" stroke-width="2"/>
<path d="M176.341 290.974H193.355V268.07H193.283C193.283 268.07 193.329 268.07 193.355 268.07L190.875 265.59C190.679 265.394 190.358 265.394 190.162 265.59L187.682 268.07C187.682 268.07 187.727 268.07 187.754 268.07H187.61C187.61 268.07 187.655 268.07 187.682 268.07L185.201 265.59C185.005 265.394 184.685 265.394 184.488 265.59L182.008 268.07C182.008 268.07 182.054 268.07 182.08 268.07H181.936C181.936 268.07 181.982 268.07 182.008 268.07L179.528 265.59C179.332 265.394 179.011 265.394 178.815 265.59L176.335 268.07C176.335 268.07 176.38 268.07 176.407 268.07H176.335V290.974H176.341Z" fill="white"/>
</svg>
