<svg width="51" height="16" viewBox="0 0 51 16" fill="none" xmlns="http://www.w3.org/2000/svg">
<g clip-path="url(#clip0_427_30924)">
<path d="M42.5946 7.70745L46.7162 3.04656C47.3069 2.37885 47.2437 1.35846 46.5762 0.768265C45.9087 0.177707 44.888 0.240515 44.2976 0.908155L40.4401 5.27084L36.5828 0.908155C35.9921 0.240427 34.9722 0.177667 34.3041 0.768265C33.6366 1.35882 33.5736 2.37884 34.1642 3.04656L38.2853 7.70745L34.1637 12.3683C33.573 13.036 33.6362 14.0564 34.3037 14.6466C34.9712 15.2372 35.9918 15.1744 36.5823 14.5067L40.4396 10.1441L44.2971 14.5067C44.8878 15.1745 45.9077 15.2372 46.5758 14.6466C47.2433 14.0561 47.3062 13.0361 46.7157 12.3683L42.5946 7.70745Z" fill="#00D258"/>
<path d="M23.448 15.3531C19.2331 15.3531 15.8037 11.9242 15.8037 7.70878C15.8037 3.49337 19.2331 0.0644531 23.448 0.0644531C27.6628 0.0644531 31.0924 3.49337 31.0924 7.70878C31.0924 11.9242 27.663 15.3531 23.448 15.3531ZM23.448 3.29308C21.0132 3.29308 19.0323 5.27397 19.0323 7.70878C19.0323 10.1434 21.0132 12.1245 23.448 12.1245C25.8827 12.1245 27.8637 10.1436 27.8637 7.70878C27.8637 5.27397 25.8828 3.29308 23.448 3.29308V3.29308Z" fill="url(#paint0_linear_427_30924)"/>
<path d="M8.59061 15.3531C4.3752 15.3531 0.946289 11.9236 0.946289 7.70878C0.946289 3.494 4.3752 0.0644531 8.59061 0.0644531C9.96014 0.0644531 11.3044 0.431513 12.4781 1.12554C13.2455 1.57945 13.4994 2.56944 13.0458 3.33681C12.5922 4.10424 11.6019 4.35821 10.8345 3.90427C10.1584 3.50442 9.38229 3.2929 8.59092 3.2929C6.15611 3.2929 4.17522 5.2738 4.17522 7.7086C4.17522 10.1434 6.15611 12.1243 8.59092 12.1243C9.38237 12.1243 10.1585 11.9128 10.8345 11.5129C11.6019 11.059 12.5919 11.313 13.0458 12.0804C13.4994 12.8478 13.246 13.8377 12.4781 14.2916C11.3043 14.9856 9.95998 15.3528 8.59061 15.3528V15.3531Z" fill="#00AAF4"/>
<path d="M49.6259 12.2822C49.8475 12.2822 50.0639 12.3394 50.2751 12.4537C50.4863 12.5669 50.6507 12.7296 50.7686 12.942C50.8864 13.1531 50.9453 13.3736 50.9453 13.6034C50.9453 13.8309 50.887 14.0497 50.7703 14.2597C50.6548 14.4697 50.4921 14.633 50.2821 14.7497C50.0733 14.8651 49.8545 14.9229 49.6259 14.9229C49.3972 14.9229 49.1779 14.8651 48.9679 14.7497C48.7591 14.633 48.5963 14.4697 48.4797 14.2597C48.363 14.0497 48.3047 13.8309 48.3047 13.6034C48.3047 13.3736 48.3636 13.1531 48.4814 12.942C48.6004 12.7296 48.7655 12.5669 48.9767 12.4537C49.1878 12.3394 49.4042 12.2822 49.6259 12.2822H49.6259ZM49.6259 12.501C49.4404 12.501 49.2595 12.5488 49.0834 12.6445C48.9084 12.739 48.7713 12.8749 48.6721 13.0522C48.573 13.2284 48.5234 13.4121 48.5234 13.6034C48.5234 13.7936 48.5718 13.9762 48.6686 14.1512C48.7666 14.325 48.9031 14.4609 49.0781 14.5589C49.2531 14.6557 49.4357 14.7041 49.6259 14.7041C49.816 14.7041 49.9986 14.6557 50.1736 14.5589C50.3486 14.4609 50.4845 14.325 50.5813 14.1512C50.6782 13.9762 50.7266 13.7936 50.7266 13.6034C50.7266 13.4121 50.677 13.2284 50.5778 13.0522C50.4798 12.8749 50.3428 12.739 50.1666 12.6445C49.9904 12.5488 49.8102 12.501 49.6259 12.501H49.6259ZM49.0998 14.3332V12.9122H49.5881C49.7549 12.9122 49.8384 12.9256 49.9131 12.9525C49.9877 12.9781 50.0233 13.0236 50.0676 13.089C50.112 13.1543 50.1341 13.2237 50.1341 13.2972C50.1341 13.4707 50.1029 13.6113 49.8758 13.728L50.2933 14.3332H50.0133C49.8543 14.0987 49.6237 13.7708 49.6237 13.7708H49.3291V14.3332L49.0998 14.3332ZM49.3291 13.5748H49.6073C49.7403 13.5748 49.8316 13.5315 49.8658 13.4796C49.8995 13.4283 49.9151 13.3732 49.9148 13.3164C49.9146 13.2773 49.9031 13.2371 49.8798 13.2044C49.8565 13.1706 49.8238 13.1455 49.7818 13.1292C49.741 13.1129 49.7018 13.1047 49.5898 13.1047H49.3291L49.3291 13.5748Z" fill="#00D258"/>
</g>
<defs>
<linearGradient id="paint0_linear_427_30924" x1="18.0451" y1="2.3042" x2="28.8504" y2="13.1091" gradientUnits="userSpaceOnUse">
<stop offset="0.12" stop-color="#00AAF4"/>
<stop offset="0.88" stop-color="#00D258"/>
</linearGradient>
<clipPath id="clip0_427_30924">
<rect width="50" height="15.2886" fill="white" transform="translate(0.947266 0.0634766)"/>
</clipPath>
</defs>
</svg>
