<svg width="301" height="406" viewBox="0 0 301 406" fill="none" xmlns="http://www.w3.org/2000/svg">
<rect width="231.201" height="321.01" transform="matrix(-1 0 0 1 243.985 21.1714)" fill="#F5F5F5" stroke="#CCCCCC" stroke-width="1.5"/>
<path d="M220.22 52.4243H176.914V108.309H220.22V52.4243Z" fill="#F5F5F5" stroke="#CCCCCC" stroke-width="1.5" stroke-linejoin="round"/>
<rect width="33.6826" height="46.5702" transform="matrix(-1 0 0 1 215.408 57.0811)" fill="white" stroke="#CCCCCC" stroke-width="1.5" stroke-linejoin="round"/>
<rect x="225.087" y="115.76" width="53.0401" height="7.45123" rx="2" transform="rotate(180 225.087 115.76)" fill="#F5F5F5" stroke="#CCCCCC" stroke-width="1.5" stroke-linejoin="round"/>
<rect x="225.087" y="52.4243" width="53.0401" height="3.72561" rx="1.86281" transform="rotate(180 225.087 52.4243)" fill="#F5F5F5" stroke="#CCCCCC" stroke-width="1.5" stroke-linejoin="round"/>
<line y1="-0.75" x2="33.6826" y2="-0.75" transform="matrix(-1 0 0 1 215.408 80.3657)" stroke="#CCCCCC" stroke-width="1.5"/>
<path d="M147.772 52.4243H104.466V108.309H147.772V52.4243Z" fill="#F5F5F5" stroke="#CCCCCC" stroke-width="1.5" stroke-linejoin="round"/>
<rect width="33.6826" height="46.5702" transform="matrix(-1 0 0 1 142.961 57.0811)" fill="white" stroke="#CCCCCC" stroke-width="1.5" stroke-linejoin="round"/>
<rect x="152.64" y="115.76" width="53.0401" height="7.45123" rx="2" transform="rotate(180 152.64 115.76)" fill="#F5F5F5" stroke="#CCCCCC" stroke-width="1.5" stroke-linejoin="round"/>
<rect x="152.64" y="52.4243" width="53.0401" height="3.72561" rx="1.86281" transform="rotate(180 152.64 52.4243)" fill="#F5F5F5" stroke="#CCCCCC" stroke-width="1.5" stroke-linejoin="round"/>
<line y1="-0.75" x2="33.6826" y2="-0.75" transform="matrix(-1 0 0 1 142.961 80.3657)" stroke="#CCCCCC" stroke-width="1.5"/>
<path d="M75.3257 52.4243H32.0195V108.309H75.3257V52.4243Z" fill="#F5F5F5" stroke="#CCCCCC" stroke-width="1.5" stroke-linejoin="round"/>
<rect width="33.6826" height="46.5702" transform="matrix(-1 0 0 1 70.5142 57.0811)" fill="white" stroke="#CCCCCC" stroke-width="1.5" stroke-linejoin="round"/>
<rect x="80.1929" y="115.76" width="53.0401" height="7.45123" rx="2" transform="rotate(180 80.1929 115.76)" fill="#F5F5F5" stroke="#CCCCCC" stroke-width="1.5" stroke-linejoin="round"/>
<rect x="80.1929" y="52.4243" width="53.0401" height="3.72561" rx="1.86281" transform="rotate(180 80.1929 52.4243)" fill="#F5F5F5" stroke="#CCCCCC" stroke-width="1.5" stroke-linejoin="round"/>
<line y1="-0.75" x2="33.6826" y2="-0.75" transform="matrix(-1 0 0 1 70.5142 80.3657)" stroke="#CCCCCC" stroke-width="1.5"/>
<rect width="67.3652" height="11.1768" rx="2" transform="matrix(-1 0 0 1 87.3555 331.004)" fill="#F5F5F5" stroke="#CCCCCC" stroke-width="1.5" stroke-linejoin="round"/>
<rect width="57.7416" height="11.1768" rx="2" transform="matrix(-1 0 0 1 82.5435 319.828)" fill="#F5F5F5" stroke="#CCCCCC" stroke-width="1.5" stroke-linejoin="round"/>
<rect width="48.118" height="86.5426" transform="matrix(-1 0 0 1 77.7314 233.285)" fill="#F5F5F5" stroke="#CCCCCC" stroke-width="1.5" stroke-linejoin="round"/>
<rect width="33.6826" height="64.7569" rx="2" transform="matrix(-1 0 0 1 70.5137 242.56)" fill="white" stroke="#CCCCCC" stroke-width="1.5" stroke-linejoin="round"/>
<path d="M48.8549 253.885L41.4932 259.532" stroke="#CCCCCC" stroke-width="1.5" stroke-linecap="round" stroke-linejoin="round"/>
<path d="M62.1365 249.185L40.2852 265.52" stroke="#CCCCCC" stroke-width="1.5" stroke-linecap="round" stroke-linejoin="round" stroke-dasharray="2 3 10 3 2 10"/>
<path d="M251.227 6.08105C251.227 3.31963 248.988 1.08105 246.227 1.08105H6.01294C3.25153 1.08105 1.01294 3.31963 1.01294 6.08106V21.1717H251.227V6.08105Z" fill="#F5F5F5" stroke="#CCCCCC" stroke-width="1.5" stroke-linejoin="round"/>
<path d="M251.227 21.1719H246.415V25.8289H246.57C249.142 25.8289 251.227 23.7439 251.227 21.1719Z" fill="#F5F5F5" stroke="#CCCCCC" stroke-width="1.5"/>
<rect width="4.8118" height="4.65702" transform="matrix(-1 0 0 1 193.485 21.1719)" fill="#F5F5F5" stroke="#CCCCCC" stroke-width="1.5"/>
<rect width="4.8118" height="4.65702" transform="matrix(-1 0 0 1 231.979 21.1719)" fill="#F5F5F5" stroke="#CCCCCC" stroke-width="1.5"/>
<rect width="4.8118" height="4.65702" transform="matrix(-1 0 0 1 174.238 21.1719)" fill="#F5F5F5" stroke="#CCCCCC" stroke-width="1.5"/>
<rect width="4.8118" height="4.65702" transform="matrix(-1 0 0 1 212.732 21.1719)" fill="#F5F5F5" stroke="#CCCCCC" stroke-width="1.5"/>
<rect width="4.8118" height="4.65702" transform="matrix(-1 0 0 1 154.991 21.1719)" fill="#F5F5F5" stroke="#CCCCCC" stroke-width="1.5"/>
<rect width="4.8118" height="4.65702" transform="matrix(-1 0 0 1 241.603 21.1719)" fill="#F5F5F5" stroke="#CCCCCC" stroke-width="1.5"/>
<rect width="4.8118" height="4.65702" transform="matrix(-1 0 0 1 183.861 21.1719)" fill="#F5F5F5" stroke="#CCCCCC" stroke-width="1.5"/>
<rect width="4.8118" height="4.65702" transform="matrix(-1 0 0 1 222.356 21.1719)" fill="#F5F5F5" stroke="#CCCCCC" stroke-width="1.5"/>
<rect width="4.8118" height="4.65702" transform="matrix(-1 0 0 1 164.614 21.1719)" fill="#F5F5F5" stroke="#CCCCCC" stroke-width="1.5"/>
<rect width="4.8118" height="4.65702" transform="matrix(-1 0 0 1 203.108 21.1719)" fill="#F5F5F5" stroke="#CCCCCC" stroke-width="1.5"/>
<rect width="4.8118" height="4.65702" transform="matrix(-1 0 0 1 145.367 21.1719)" fill="#F5F5F5" stroke="#CCCCCC" stroke-width="1.5"/>
<rect width="4.8118" height="4.65702" transform="matrix(-1 0 0 1 130.932 21.1719)" fill="#F5F5F5" stroke="#CCCCCC" stroke-width="1.5"/>
<rect width="4.8118" height="4.65702" transform="matrix(-1 0 0 1 246.415 21.1719)" fill="#F5F5F5" stroke="#CCCCCC" stroke-width="1.5"/>
<rect width="4.8118" height="4.65702" transform="matrix(-1 0 0 1 188.673 21.1719)" fill="#F5F5F5" stroke="#CCCCCC" stroke-width="1.5"/>
<rect width="4.8118" height="4.65702" transform="matrix(-1 0 0 1 227.167 21.1719)" fill="#F5F5F5" stroke="#CCCCCC" stroke-width="1.5"/>
<rect width="4.8118" height="4.65702" transform="matrix(-1 0 0 1 169.426 21.1719)" fill="#F5F5F5" stroke="#CCCCCC" stroke-width="1.5"/>
<rect width="4.8118" height="4.65702" transform="matrix(-1 0 0 1 207.92 21.1719)" fill="#F5F5F5" stroke="#CCCCCC" stroke-width="1.5"/>
<rect width="4.8118" height="4.65702" transform="matrix(-1 0 0 1 150.179 21.1719)" fill="#F5F5F5" stroke="#CCCCCC" stroke-width="1.5"/>
<rect width="4.8118" height="4.65702" transform="matrix(-1 0 0 1 135.743 21.1719)" fill="#F5F5F5" stroke="#CCCCCC" stroke-width="1.5"/>
<rect width="4.8118" height="4.65702" transform="matrix(-1 0 0 1 236.791 21.1719)" fill="#F5F5F5" stroke="#CCCCCC" stroke-width="1.5"/>
<rect width="4.8118" height="4.65702" transform="matrix(-1 0 0 1 179.05 21.1719)" fill="#F5F5F5" stroke="#CCCCCC" stroke-width="1.5"/>
<rect width="4.8118" height="4.65702" transform="matrix(-1 0 0 1 217.544 21.1719)" fill="#F5F5F5" stroke="#CCCCCC" stroke-width="1.5"/>
<rect width="4.8118" height="4.65702" transform="matrix(-1 0 0 1 159.802 21.1719)" fill="#F5F5F5" stroke="#CCCCCC" stroke-width="1.5"/>
<rect width="4.8118" height="4.65702" transform="matrix(-1 0 0 1 198.297 21.1719)" fill="#F5F5F5" stroke="#CCCCCC" stroke-width="1.5"/>
<rect width="4.8118" height="4.65702" transform="matrix(-1 0 0 1 140.555 21.1719)" fill="#F5F5F5" stroke="#CCCCCC" stroke-width="1.5"/>
<rect width="4.8118" height="4.65702" transform="matrix(-1 0 0 1 126.12 21.1719)" fill="#F5F5F5" stroke="#CCCCCC" stroke-width="1.5" stroke-linejoin="round"/>
<rect width="4.8118" height="4.65702" transform="matrix(-1 0 0 1 68.3779 21.1719)" fill="#F5F5F5" stroke="#CCCCCC" stroke-width="1.5" stroke-linejoin="round"/>
<rect width="4.8118" height="4.65702" transform="matrix(-1 0 0 1 106.873 21.1719)" fill="#F5F5F5" stroke="#CCCCCC" stroke-width="1.5" stroke-linejoin="round"/>
<rect width="4.8118" height="4.65702" transform="matrix(-1 0 0 1 49.1309 21.1719)" fill="#F5F5F5" stroke="#CCCCCC" stroke-width="1.5" stroke-linejoin="round"/>
<rect width="4.8118" height="4.65702" transform="matrix(-1 0 0 1 87.625 21.1719)" fill="#F5F5F5" stroke="#CCCCCC" stroke-width="1.5" stroke-linejoin="round"/>
<rect width="4.8118" height="4.65702" transform="matrix(-1 0 0 1 29.8838 21.1719)" fill="#F5F5F5" stroke="#CCCCCC" stroke-width="1.5" stroke-linejoin="round"/>
<rect width="4.8118" height="4.65702" transform="matrix(-1 0 0 1 116.496 21.1719)" fill="#F5F5F5" stroke="#CCCCCC" stroke-width="1.5" stroke-linejoin="round"/>
<rect width="4.8118" height="4.65702" transform="matrix(-1 0 0 1 58.7544 21.1719)" fill="#F5F5F5" stroke="#CCCCCC" stroke-width="1.5" stroke-linejoin="round"/>
<rect width="4.8118" height="4.65702" transform="matrix(-1 0 0 1 97.249 21.1719)" fill="#F5F5F5" stroke="#CCCCCC" stroke-width="1.5" stroke-linejoin="round"/>
<rect width="4.8118" height="4.65702" transform="matrix(-1 0 0 1 39.5073 21.1719)" fill="#F5F5F5" stroke="#CCCCCC" stroke-width="1.5" stroke-linejoin="round"/>
<rect width="4.8118" height="4.65702" transform="matrix(-1 0 0 1 78.0015 21.1719)" fill="#F5F5F5" stroke="#CCCCCC" stroke-width="1.5" stroke-linejoin="round"/>
<rect width="4.8118" height="4.65702" transform="matrix(-1 0 0 1 20.2598 21.1719)" fill="#F5F5F5" stroke="#CCCCCC" stroke-width="1.5" stroke-linejoin="round"/>
<path d="M5.82471 21.1719H1.01291C1.01291 23.7439 3.09792 25.8289 5.66992 25.8289H5.82471V21.1719Z" fill="#F5F5F5" stroke="#CCCCCC" stroke-width="1.5" stroke-linejoin="round"/>
<rect width="4.8118" height="4.65702" transform="matrix(-1 0 0 1 121.308 21.1719)" fill="#F5F5F5" stroke="#CCCCCC" stroke-width="1.5" stroke-linejoin="round"/>
<rect width="4.8118" height="4.65702" transform="matrix(-1 0 0 1 63.5664 21.1719)" fill="#F5F5F5" stroke="#CCCCCC" stroke-width="1.5" stroke-linejoin="round"/>
<rect width="4.8118" height="4.65702" transform="matrix(-1 0 0 1 102.061 21.1719)" fill="#F5F5F5" stroke="#CCCCCC" stroke-width="1.5" stroke-linejoin="round"/>
<rect width="4.8118" height="4.65702" transform="matrix(-1 0 0 1 44.3188 21.1719)" fill="#F5F5F5" stroke="#CCCCCC" stroke-width="1.5" stroke-linejoin="round"/>
<rect width="4.8118" height="4.65702" transform="matrix(-1 0 0 1 82.8135 21.1719)" fill="#F5F5F5" stroke="#CCCCCC" stroke-width="1.5" stroke-linejoin="round"/>
<rect width="4.8118" height="4.65702" transform="matrix(-1 0 0 1 25.0718 21.1719)" fill="#F5F5F5" stroke="#CCCCCC" stroke-width="1.5" stroke-linejoin="round"/>
<rect width="4.8118" height="4.65702" transform="matrix(-1 0 0 1 10.6362 21.1719)" fill="#F5F5F5" stroke="#CCCCCC" stroke-width="1.5" stroke-linejoin="round"/>
<rect width="4.8118" height="4.65702" transform="matrix(-1 0 0 1 111.684 21.1719)" fill="#F5F5F5" stroke="#CCCCCC" stroke-width="1.5" stroke-linejoin="round"/>
<rect width="4.8118" height="4.65702" transform="matrix(-1 0 0 1 53.9424 21.1719)" fill="#F5F5F5" stroke="#CCCCCC" stroke-width="1.5" stroke-linejoin="round"/>
<rect width="4.8118" height="4.65702" transform="matrix(-1 0 0 1 92.437 21.1719)" fill="#F5F5F5" stroke="#CCCCCC" stroke-width="1.5" stroke-linejoin="round"/>
<rect width="4.8118" height="4.65702" transform="matrix(-1 0 0 1 34.6953 21.1719)" fill="#F5F5F5" stroke="#CCCCCC" stroke-width="1.5" stroke-linejoin="round"/>
<rect width="4.8118" height="4.65702" transform="matrix(-1 0 0 1 73.1899 21.1719)" fill="#F5F5F5" stroke="#CCCCCC" stroke-width="1.5" stroke-linejoin="round"/>
<rect width="4.8118" height="4.65702" transform="matrix(-1 0 0 1 15.4482 21.1719)" fill="#F5F5F5" stroke="#CCCCCC" stroke-width="1.5" stroke-linejoin="round"/>
<path d="M72.9795 276.556C72.9795 277.159 73.4913 277.689 74.1748 277.689C74.8583 277.689 75.3701 277.159 75.3701 276.556C75.3701 275.953 74.8583 275.423 74.1748 275.423C73.4913 275.423 72.9795 275.953 72.9795 276.556Z" fill="#F5F5F5" stroke="#CCCCCC" stroke-width="1.5"/>
<path d="M220.22 142.354H176.914V198.239H220.22V142.354Z" fill="#F5F5F5" stroke="#CCCCCC" stroke-width="1.5" stroke-linejoin="round"/>
<rect width="33.6826" height="46.5702" transform="matrix(-1 0 0 1 215.408 147.011)" fill="white" stroke="#CCCCCC" stroke-width="1.5" stroke-linejoin="round"/>
<rect x="225.087" y="205.69" width="53.0401" height="7.45123" rx="2" transform="rotate(180 225.087 205.69)" fill="#F5F5F5" stroke="#CCCCCC" stroke-width="1.5" stroke-linejoin="round"/>
<rect x="225.087" y="142.354" width="53.0401" height="3.72561" rx="1.86281" transform="rotate(180 225.087 142.354)" fill="#F5F5F5" stroke="#CCCCCC" stroke-width="1.5" stroke-linejoin="round"/>
<line y1="-0.75" x2="33.6826" y2="-0.75" transform="matrix(-1 0 0 1 215.408 170.297)" stroke="#CCCCCC" stroke-width="1.5"/>
<path d="M220.22 232.954H176.914V288.838H220.22V232.954Z" fill="#F5F5F5" stroke="#CCCCCC" stroke-width="1.5" stroke-linejoin="round"/>
<rect width="33.6826" height="46.5702" transform="matrix(-1 0 0 1 215.408 237.61)" fill="white" stroke="#CCCCCC" stroke-width="1.5" stroke-linejoin="round"/>
<rect x="225.087" y="296.289" width="53.0401" height="7.45123" rx="2" transform="rotate(180 225.087 296.289)" fill="#F5F5F5" stroke="#CCCCCC" stroke-width="1.5" stroke-linejoin="round"/>
<rect x="225.087" y="232.954" width="53.0401" height="3.72561" rx="1.86281" transform="rotate(180 225.087 232.954)" fill="#F5F5F5" stroke="#CCCCCC" stroke-width="1.5" stroke-linejoin="round"/>
<line y1="-0.75" x2="33.6826" y2="-0.75" transform="matrix(-1 0 0 1 215.408 260.896)" stroke="#CCCCCC" stroke-width="1.5"/>
<path d="M147.772 142.354H104.466V198.239H147.772V142.354Z" fill="#F5F5F5" stroke="#CCCCCC" stroke-width="1.5" stroke-linejoin="round"/>
<rect width="33.6826" height="46.5702" transform="matrix(-1 0 0 1 142.961 147.011)" fill="white" stroke="#CCCCCC" stroke-width="1.5" stroke-linejoin="round"/>
<rect x="152.64" y="205.69" width="53.0401" height="7.45123" rx="2" transform="rotate(180 152.64 205.69)" fill="#F5F5F5" stroke="#CCCCCC" stroke-width="1.5" stroke-linejoin="round"/>
<rect x="152.64" y="142.354" width="53.0401" height="3.72561" rx="1.86281" transform="rotate(180 152.64 142.354)" fill="#F5F5F5" stroke="#CCCCCC" stroke-width="1.5" stroke-linejoin="round"/>
<line y1="-0.75" x2="33.6826" y2="-0.75" transform="matrix(-1 0 0 1 142.961 170.297)" stroke="#CCCCCC" stroke-width="1.5"/>
<path d="M147.772 232.954H104.466V288.838H147.772V232.954Z" fill="#F5F5F5" stroke="#CCCCCC" stroke-width="1.5" stroke-linejoin="round"/>
<rect width="33.6826" height="46.5702" transform="matrix(-1 0 0 1 142.961 237.61)" fill="white" stroke="#CCCCCC" stroke-width="1.5" stroke-linejoin="round"/>
<rect x="152.64" y="296.289" width="53.0401" height="7.45123" rx="2" transform="rotate(180 152.64 296.289)" fill="#F5F5F5" stroke="#CCCCCC" stroke-width="1.5" stroke-linejoin="round"/>
<rect x="152.64" y="232.954" width="53.0401" height="3.72561" rx="1.86281" transform="rotate(180 152.64 232.954)" fill="#F5F5F5" stroke="#CCCCCC" stroke-width="1.5" stroke-linejoin="round"/>
<line y1="-0.75" x2="33.6826" y2="-0.75" transform="matrix(-1 0 0 1 142.961 260.896)" stroke="#CCCCCC" stroke-width="1.5"/>
<rect x="82.5435" y="232.954" width="57.7416" height="3.72561" rx="1.86281" transform="rotate(180 82.5435 232.954)" fill="#F5F5F5" stroke="#CCCCCC" stroke-width="1.5" stroke-linejoin="round"/>
<path d="M75.3252 142.354H32.019V198.239H75.3252V142.354Z" fill="#F5F5F5" stroke="#CCCCCC" stroke-width="1.5" stroke-linejoin="round"/>
<rect width="33.6826" height="46.5702" transform="matrix(-1 0 0 1 70.5137 147.011)" fill="white" stroke="#CCCCCC" stroke-width="1.5" stroke-linejoin="round"/>
<rect x="80.1924" y="205.69" width="53.0401" height="7.45123" rx="2" transform="rotate(180 80.1924 205.69)" fill="#F5F5F5" stroke="#CCCCCC" stroke-width="1.5" stroke-linejoin="round"/>
<rect x="80.1924" y="142.354" width="53.0401" height="3.72561" rx="1.86281" transform="rotate(180 80.1924 142.354)" fill="#F5F5F5" stroke="#CCCCCC" stroke-width="1.5" stroke-linejoin="round"/>
<line y1="-0.75" x2="33.6826" y2="-0.75" transform="matrix(-1 0 0 1 70.5137 170.297)" stroke="#CCCCCC" stroke-width="1.5"/>
<path d="M176.266 287.334L232.35 297.617C236.061 298.298 238.539 301.977 237.885 305.836L228.725 359.849C228.071 363.708 224.532 366.284 220.821 365.604L164.737 355.321C161.026 354.64 158.548 350.961 159.202 347.102L168.362 293.089C169.016 289.23 172.555 286.654 176.266 287.334Z" fill="#DFD1C4"/>
<path d="M176.266 287.334L232.35 297.617C236.061 298.298 238.539 301.977 237.885 305.836L228.725 359.849C228.071 363.708 224.532 366.284 220.821 365.604L164.737 355.321C161.026 354.64 158.548 350.961 159.202 347.102L168.362 293.089C169.016 289.23 172.555 286.654 176.266 287.334Z" stroke="#28293C" stroke-width="2" stroke-linecap="round" stroke-linejoin="round"/>
<path d="M191.813 229.924L236.622 238.14C240.333 238.82 242.811 242.5 242.157 246.359L234.679 290.455C234.025 294.314 230.486 296.89 226.775 296.21L181.966 287.994C178.255 287.314 175.777 283.634 176.432 279.775L183.909 235.679C184.564 231.821 188.102 229.244 191.813 229.924Z" fill="#ECE4DD"/>
<path d="M191.813 229.924L236.622 238.14C240.333 238.82 242.811 242.5 242.157 246.359L234.679 290.455C234.025 294.314 230.486 296.89 226.775 296.21L181.966 287.994C178.255 287.314 175.777 283.634 176.432 279.775L183.909 235.679C184.564 231.821 188.102 229.244 191.813 229.924Z" stroke="#28293C" stroke-width="2" stroke-linecap="round" stroke-linejoin="round"/>
<path d="M205.508 264.051L209.077 262.051C209.367 261.887 209.729 261.954 209.951 262.211L212.646 265.359C212.911 265.665 212.881 266.135 212.586 266.41C212.45 266.534 212.279 266.596 212.113 266.596C211.917 266.596 211.721 266.512 211.58 266.348L209.866 264.348L208.885 270.135C208.825 270.494 208.523 270.751 208.181 270.751C208.139 270.751 208.1 270.751 208.058 270.738C207.67 270.667 207.41 270.281 207.478 269.878L208.459 264.091L206.19 265.364C205.84 265.559 205.41 265.421 205.222 265.062C205.034 264.703 205.167 264.251 205.512 264.056L205.508 264.051Z" fill="#28293C"/>
<path d="M212.949 274.981C213.29 274.981 213.593 274.729 213.652 274.365C213.72 273.962 213.46 273.576 213.072 273.505L202.433 271.554C202.045 271.483 201.674 271.753 201.606 272.157C201.537 272.56 201.797 272.946 202.186 273.017L212.825 274.968C212.868 274.977 212.91 274.981 212.949 274.981Z" fill="#28293C"/>
<path d="M194.582 324.919L198.152 322.919C198.442 322.755 198.804 322.821 199.026 323.079L201.721 326.227C201.985 326.533 201.955 327.003 201.661 327.278C201.525 327.402 201.354 327.464 201.188 327.464C200.992 327.464 200.796 327.38 200.655 327.216L198.941 325.216L197.96 331.003C197.9 331.362 197.597 331.619 197.256 331.619C197.214 331.619 197.175 331.619 197.132 331.606C196.744 331.535 196.484 331.149 196.553 330.745L197.533 324.959L195.265 326.231C194.915 326.426 194.484 326.289 194.297 325.93C194.109 325.571 194.241 325.118 194.587 324.923L194.582 324.919Z" fill="#28293C"/>
<path d="M202.019 335.849C202.361 335.849 202.663 335.596 202.723 335.233C202.791 334.829 202.531 334.443 202.143 334.372L191.504 332.421C191.116 332.351 190.745 332.621 190.676 333.025C190.608 333.428 190.868 333.814 191.256 333.885L201.896 335.836C201.938 335.845 201.981 335.849 202.019 335.849Z" fill="#28293C"/>
<path d="M156.408 363.558L238.696 378.647C241.212 379.109 243.609 377.361 244.052 374.75L264.052 256.787C264.862 252.012 268.508 248.354 273.126 247.68L291.258 245.037C293.787 244.669 295.548 242.239 295.194 239.609C294.84 236.98 292.508 235.144 289.975 235.517L271.843 238.16C263.242 239.414 256.453 246.23 254.943 255.12L235.745 368.347L158.011 354.095C155.495 353.634 153.099 355.381 152.655 357.993C152.212 360.609 153.892 363.101 156.404 363.562L156.408 363.558Z" fill="#FF827A" stroke="#28293C" stroke-width="2" stroke-linecap="round" stroke-linejoin="round"/>
<path d="M273.468 249.245L294.751 245.671C298.111 245.108 300.397 241.818 299.851 238.319C299.31 234.825 296.145 232.449 292.781 233.012L271.502 236.586L273.468 249.241V249.245Z" fill="#FFD5D3" stroke="#28293C" stroke-width="2" stroke-linecap="round" stroke-linejoin="round"/>
<path d="M233.94 399.859C220.156 396.67 211.467 382.466 214.533 368.133C217.599 353.799 231.259 344.764 245.043 347.952C258.828 351.141 267.516 365.345 264.45 379.678C261.384 394.012 247.724 403.047 233.94 399.859Z" fill="#28293C" stroke="#28293C" stroke-width="2" stroke-linecap="round" stroke-linejoin="round"/>
<path d="M241.289 363.345C246.901 364.374 250.649 369.939 249.66 375.774C248.671 381.61 243.319 385.507 237.707 384.479C232.095 383.45 228.347 377.885 229.336 372.05C230.326 366.214 235.677 362.317 241.289 363.345Z" fill="white" stroke="#28293C" stroke-width="2" stroke-linecap="round" stroke-linejoin="round"/>
<path d="M198.847 292.296L209.768 294.296L207.175 309.581L207.128 309.572C207.128 309.572 207.158 309.581 207.175 309.585L205.303 310.947C205.154 311.053 204.949 311.018 204.847 310.862L203.537 308.916C203.537 308.916 203.567 308.916 203.584 308.92L203.495 308.902C203.495 308.902 203.525 308.911 203.542 308.916L201.67 310.277C201.52 310.383 201.316 310.348 201.213 310.193L199.904 308.246C199.904 308.246 199.934 308.246 199.951 308.251L199.862 308.233C199.862 308.233 199.891 308.242 199.909 308.246L198.036 309.607C197.887 309.714 197.683 309.678 197.58 309.523L196.271 307.577C196.271 307.577 196.301 307.577 196.318 307.581L196.271 307.572L198.864 292.288L198.847 292.296Z" fill="white"/>
<path d="M209.499 234.036L220.42 236.036L217.827 251.321L217.78 251.312C217.78 251.312 217.81 251.321 217.827 251.325L215.955 252.686C215.806 252.793 215.601 252.757 215.499 252.602L214.19 250.655C214.19 250.655 214.22 250.655 214.237 250.66L214.147 250.642C214.147 250.642 214.177 250.651 214.194 250.655L212.322 252.017C212.173 252.123 211.968 252.088 211.866 251.933L210.557 249.986C210.557 249.986 210.586 249.986 210.604 249.99L210.514 249.973C210.514 249.973 210.544 249.981 210.561 249.986L208.689 251.347C208.54 251.454 208.335 251.418 208.233 251.263L206.923 249.316C206.923 249.316 206.953 249.316 206.97 249.321L206.923 249.312L209.516 234.027L209.499 234.036Z" fill="white"/>
</svg>
