<svg width="26" height="26" viewBox="0 0 26 26" fill="none" xmlns="http://www.w3.org/2000/svg">
<path d="M23.5343 24.9387H1.71612C1.4268 24.9387 1.14932 24.8238 0.944734 24.6192C0.740149 24.4146 0.625214 24.1371 0.625214 23.8478V5.30236L2.80703 0.938721H22.4434L24.6252 5.30236V23.8478C24.6252 24.1371 24.5103 24.4146 24.3057 24.6192C24.1011 24.8238 23.8236 24.9387 23.5343 24.9387Z" fill="#DFD2C6" stroke="#28293C" stroke-linecap="round" stroke-linejoin="round"/>
<path d="M0.625214 5.30237H24.6252" stroke="#28293C" stroke-linecap="round" stroke-linejoin="round"/>
<line x1="12.5446" y1="0.938721" x2="12.5446" y2="5.30229" stroke="#28293C"/>
<path d="M10.697 24.5407H13.908V21.389H13.8944C13.8944 21.389 13.903 21.389 13.908 21.389L13.4399 20.921C13.4029 20.8839 13.3423 20.8839 13.3053 20.921L12.8372 21.389C12.8372 21.389 12.8459 21.389 12.8508 21.389H12.8237C12.8237 21.389 12.8323 21.389 12.8372 21.389L12.3692 20.921C12.3321 20.8839 12.2716 20.8839 12.2346 20.921L11.7665 21.389C11.7665 21.389 11.7752 21.389 11.7801 21.389H11.7529C11.7529 21.389 11.7616 21.389 11.7665 21.389L11.2985 20.921C11.2614 20.8839 11.2009 20.8839 11.1639 20.921L10.6958 21.389C10.6958 21.389 10.7044 21.389 10.7094 21.389H10.6958V25.7114L10.697 24.5407Z" fill="#FDF9F5"/>
<path d="M16.8236 11.0515L11.2257 16.6494L8.42676 13.8506" stroke="#28293C" stroke-width="2" stroke-linecap="round" stroke-linejoin="round"/>
</svg>
