<svg width="61" height="25" viewBox="0 0 61 25" fill="none" xmlns="http://www.w3.org/2000/svg">
<g clip-path="url(#clip0_427_30980)">
<path d="M9.0063 6.66406V8.71332H3.03885V11.8048H8.6829V13.7821H3.03885V18.9408H0.702148V6.66406H9.0063V6.66406Z" fill="#DB202C"/>
<path d="M15.2966 12.6145C14.9912 12.5066 14.7393 12.4346 14.4159 12.4346C13.1034 12.4346 12.0432 13.7467 12.0432 15.6344V18.9418H9.81445V10.5832H12.0252V11.9497H12.0612C12.5645 10.961 13.2833 10.3857 14.3619 10.3857C14.7573 10.3857 15.0271 10.4757 15.2966 10.5832V12.6145V12.6145Z" fill="#DB202C"/>
<path d="M58.738 12.6145C58.4326 12.5066 58.1807 12.4346 57.8573 12.4346C56.5448 12.4346 55.4846 13.7467 55.4846 15.6344V18.9418H53.2559V10.5832H55.4666V11.9497H55.5026C56.0059 10.961 56.7247 10.3857 57.8033 10.3857C58.1987 10.3857 58.4686 10.4757 58.738 10.5832V12.6145V12.6145Z" fill="#DB202C"/>
<path d="M17.8311 14.7531C17.8311 16.2451 18.9457 17.1618 20.0778 17.1618C21.3719 17.1618 22.2351 15.9393 22.2351 14.7891C22.2351 13.567 21.3364 12.3625 20.0958 12.3625C18.8018 12.3625 17.8311 13.3871 17.8311 14.7531ZM24.6253 14.7713C24.6253 16.9641 22.8819 19.1393 20.0059 19.1393C17.2018 19.1393 15.4404 17.09 15.4404 14.7893C15.4404 12.1652 17.6332 10.3857 19.9159 10.3857C23.0078 10.3857 24.6253 12.6325 24.6253 14.7713Z" fill="#DB202C"/>
<path d="M33.1626 18.9408H30.9338V14.0875C30.9338 13.2248 30.682 12.5415 29.7113 12.5415C28.3632 12.5415 27.5725 13.944 27.5725 15.5435V18.9408H25.3438V10.5826H27.5708L27.5725 11.8947C27.9319 11.3554 28.5971 10.3848 30.2146 10.3848C32.2279 10.3848 33.1626 11.7688 33.1626 13.4942V18.9408V18.9408Z" fill="#DB202C"/>
<path d="M42.8674 18.9411H40.6387V10.583H42.8674V18.9411Z" fill="#DB202C"/>
<path d="M49.7516 13.5312C49.6077 12.5785 48.7809 12.0572 48.0622 12.0572C47.8822 12.0572 46.6421 12.1116 46.1748 13.5312H49.7516ZM52.1603 15.0591H45.9769C46.1029 15.4725 46.2108 15.7779 46.4982 16.1377C47.0375 16.7845 47.8283 17.0899 48.5295 17.0899C49.7516 17.0899 50.8662 16.4611 51.8364 15.7063V17.9886C51.0997 18.3845 49.7156 19.1392 48.1697 19.1392C45.5096 19.1392 43.6582 17.1084 43.6582 14.7893C43.6582 12.4525 45.5276 10.3857 48.0082 10.3857C50.5244 10.3857 52.1603 12.1831 52.1603 14.7177V15.0591V15.0591Z" fill="#DB202C"/>
<path d="M37.1082 8.08461V10.6013H39.4449V12.2727H37.1802V15.9215C37.1802 16.8562 37.6835 17.0896 38.2588 17.0896C38.7081 17.0896 39.1035 16.9461 39.4449 16.8022V18.7795C38.7796 18.9594 38.0968 19.0673 37.4136 19.0673C35.9041 19.0673 34.9514 18.2941 34.9514 16.6762V12.2727H33.5674V10.6013H34.9523V8.0752H37.1082" fill="#DB202C"/>
<path d="M39.1489 5.52758C39.1489 6.11443 38.6735 6.59078 38.0862 6.59078C37.4989 6.59078 37.0234 6.11443 37.0234 5.52758C37.0234 4.94073 37.4989 4.46484 38.0862 4.46484C38.6735 4.46484 39.1489 4.94073 39.1489 5.52758Z" fill="#DB202C"/>
<path d="M35.2609 3.48662C35.2609 3.98054 34.8604 4.38145 34.3657 4.38145C33.8718 4.38145 33.4717 3.98054 33.4717 3.48662C33.4717 2.99271 33.8718 2.5918 34.3657 2.5918C34.8604 2.5918 35.2609 2.99271 35.2609 3.48662Z" fill="#DB202C"/>
<path d="M31.5407 2.20006C31.5407 2.66354 31.1655 3.03925 30.702 3.03925C30.2381 3.03925 29.8633 2.66354 29.8633 2.20006C29.8633 1.73657 30.2381 1.36133 30.702 1.36133C31.1655 1.36133 31.5407 1.73657 31.5407 2.20006Z" fill="#DB202C"/>
<path d="M27.5691 1.55601C27.5691 1.9574 27.2444 2.28293 26.8422 2.28293C26.4408 2.28293 26.1152 1.9574 26.1152 1.55601C26.1152 1.15463 26.4408 0.829102 26.8422 0.829102C27.2444 0.829102 27.5691 1.15463 27.5691 1.55601Z" fill="#DB202C"/>
<path d="M23.5413 1.5565C23.5413 1.89621 23.2659 2.17164 22.9258 2.17164C22.5861 2.17164 22.3115 1.89621 22.3115 1.5565C22.3115 1.21683 22.5861 0.941406 22.9258 0.941406C23.2659 0.941406 23.5413 1.21683 23.5413 1.5565Z" fill="#DB202C"/>
<path d="M19.6381 2.05951C19.6381 2.36022 19.3944 2.60437 19.0937 2.60437C18.7926 2.60437 18.5488 2.36022 18.5488 2.05951C18.5488 1.75839 18.7926 1.51465 19.0937 1.51465C19.3944 1.51465 19.6381 1.75839 19.6381 2.05951Z" fill="#DB202C"/>
<path d="M15.8066 3.458C15.8066 3.66618 15.6379 3.83453 15.4297 3.83453C15.2215 3.83453 15.0527 3.66618 15.0527 3.458C15.0527 3.24982 15.2215 3.08105 15.4297 3.08105C15.6379 3.08105 15.8066 3.24982 15.8066 3.458Z" fill="#DB202C"/>
<path d="M12.6446 5.57251C12.6446 5.70273 12.5396 5.80811 12.4094 5.80811C12.2792 5.80811 12.1738 5.70273 12.1738 5.57251C12.1738 5.44229 12.2792 5.33691 12.4094 5.33691C12.5396 5.33691 12.6446 5.44229 12.6446 5.57251Z" fill="#DB202C"/>
<path d="M10.7499 7.92202C10.7499 8.01928 10.6711 8.09851 10.573 8.09851C10.4757 8.09851 10.3965 8.01928 10.3965 7.92202C10.3965 7.82436 10.4757 7.74512 10.573 7.74512C10.6711 7.74512 10.7499 7.82436 10.7499 7.92202Z" fill="#DB202C"/>
<path d="M42.9095 8.37415C42.9095 9.02484 42.3728 9.54528 41.7226 9.54528C41.0393 9.54528 40.5352 8.99229 40.5352 8.35788C40.5352 7.6588 41.1207 7.1709 41.6737 7.1709C42.0802 7.1709 42.9095 7.51229 42.9095 8.37415Z" fill="#DB202C"/>
<path d="M4.02444 23.9849C3.64834 24.361 3.16773 24.528 2.65027 24.528C1.32836 24.528 0.722656 23.6139 0.722656 22.6527C0.722656 21.691 1.33906 20.7354 2.65027 20.7354C3.14674 20.7354 3.61151 20.9127 3.98803 21.2892L3.59608 21.6653C3.32964 21.4092 2.98996 21.2892 2.65027 21.2892C1.71516 21.2892 1.30222 21.9733 1.30222 22.6475C1.30222 23.3162 1.71002 23.9797 2.65027 23.9797C2.98996 23.9797 3.36605 23.8384 3.62221 23.5826L4.02444 23.9849Z" fill="#4F4C4D"/>
<path d="M6.53079 23.9958C7.43977 23.9958 7.82144 23.3477 7.82144 22.6529C7.82144 21.9791 7.43977 21.2788 6.54108 21.2633C5.6895 21.2633 5.24016 21.8536 5.24016 22.6529C5.25602 23.301 5.62182 23.9958 6.53079 23.9958V23.9958ZM8.40102 22.6427C8.40102 23.63 7.80045 24.5339 6.53079 24.5339C5.26114 24.5339 4.66016 23.609 4.66016 22.6478C4.66016 21.5349 5.43891 20.7305 6.54108 20.7305C7.78974 20.7305 8.40102 21.6553 8.40102 22.6427Z" fill="#4F4C4D"/>
<path d="M12.676 21.6553L11.4325 23.3846H11.3074L10.0793 21.6553V24.461H9.49414V20.8037H10.1735L11.3802 22.5176L12.5822 20.8037H13.2611V24.461H12.676V21.6553Z" fill="#4F4C4D"/>
<path d="M17.7404 21.6553L16.4969 23.3846H16.3714L15.1437 21.6553V24.461H14.5586V20.8037H15.238L16.4447 22.5176L17.6462 20.8037H18.3256V24.461H17.7404V21.6553V21.6553Z" fill="#4F4C4D"/>
<path d="M22.6913 20.8037V22.946C22.6913 24.0224 21.9807 24.5549 21.0979 24.5292C20.2827 24.5134 19.5879 23.9804 19.5879 22.946V20.8037H20.1679V22.946C20.1679 23.6043 20.5543 23.9753 21.0979 23.9907C21.683 24.0168 22.1113 23.6459 22.1113 22.946V20.8037H22.6913Z" fill="#4F4C4D"/>
<path d="M26.4746 23.3997V20.7979H27.0598V24.4552H26.6156L24.5415 21.8744V24.4552H23.9512V20.7979H24.4005L26.4746 23.3997V23.3997Z" fill="#4F4C4D"/>
<path d="M28.3545 20.7988H28.9345V24.4561H28.3545V20.7988Z" fill="#4F4C4D"/>
<path d="M33.3155 23.9849C32.9394 24.361 32.4587 24.528 31.9413 24.528C30.6198 24.528 30.0137 23.6139 30.0137 22.6527C30.0137 21.691 30.6301 20.7354 31.9413 20.7354C32.4378 20.7354 32.9025 20.9127 33.279 21.2892L32.8871 21.6653C32.6207 21.4092 32.281 21.2892 31.9413 21.2892C31.0062 21.2892 30.5937 21.9733 30.5937 22.6475C30.5937 23.3162 31.001 23.9797 31.9413 23.9797C32.281 23.9797 32.6571 23.8384 32.9132 23.5826L33.3155 23.9849Z" fill="#4F4C4D"/>
<path d="M35.9222 21.4152L35.149 23.1552H36.6954L35.9222 21.4152V21.4152ZM36.9096 23.6881H34.9297L34.5849 24.4561H33.9629L35.6035 20.7988H36.2409L37.8815 24.4561H37.2595L36.9096 23.6881V23.6881Z" fill="#4F4C4D"/>
<path d="M39.1508 21.3265H37.9492V20.7988H40.9379V21.3265H39.741V24.4561H39.1508V21.3265V21.3265Z" fill="#4F4C4D"/>
<path d="M41.8408 20.7988H42.4208V24.4561H41.8408V20.7988Z" fill="#4F4C4D"/>
<path d="M45.3702 23.9958C46.2792 23.9958 46.6609 23.3477 46.6609 22.6529C46.6609 21.9791 46.2792 21.2788 45.3809 21.2633C44.5294 21.2633 44.08 21.8536 44.08 22.6529C44.0954 23.301 44.4612 23.9958 45.3702 23.9958ZM47.2409 22.6427C47.2409 23.63 46.6399 24.5339 45.3702 24.5339C44.1006 24.5339 43.5 23.609 43.5 22.6478C43.5 21.5349 44.2783 20.7305 45.3809 20.7305C46.6292 20.7305 47.2409 21.6553 47.2409 22.6427Z" fill="#4F4C4D"/>
<path d="M50.8575 23.3997V20.7979H51.4426V24.4552H50.9984L48.9243 21.8744V24.4552H48.334V20.7979H48.7833L50.8575 23.3997V23.3997Z" fill="#4F4C4D"/>
<path d="M54.919 21.6397C54.7468 21.3892 54.3964 21.2375 54.0151 21.2324C53.5242 21.2324 53.1687 21.4358 53.1687 21.755C53.1687 22.1101 53.5761 22.2095 54.0571 22.2771C54.8093 22.3868 55.5251 22.5907 55.5251 23.4007C55.5251 24.2206 54.7725 24.529 54.01 24.529C53.3045 24.529 52.7716 24.3148 52.4375 23.6984L52.8761 23.4059C53.1426 23.8497 53.5919 24.0064 54.0151 24.0064C54.4542 24.0064 54.94 23.8655 54.94 23.4007C54.94 23.0242 54.5219 22.8781 54.0049 22.81C53.2784 22.7111 52.5887 22.5281 52.5887 21.7442C52.6046 21.0392 53.3306 20.7256 53.9997 20.7256C54.527 20.7256 55.0548 20.8511 55.3632 21.342L54.919 21.6397V21.6397Z" fill="#4F4C4D"/>
<path d="M59.6773 10.5742L59.8559 10.8227L60.0362 10.5742H60.157V11.1469H60.0324L60.038 10.7704L59.8666 11.0107H59.8396L59.6721 10.7644L59.6773 11.1469H59.5509V10.5742H59.6773V10.5742ZM58.9688 10.6924V10.5764H59.4716V10.6924H59.2823V11.1469H59.1581V10.6924H58.9688V10.6924Z" fill="#DB202C"/>
</g>
<defs>
<clipPath id="clip0_427_30980">
<rect width="60" height="24.5455" fill="white" transform="translate(0.429688 0.40918)"/>
</clipPath>
</defs>
</svg>
