<svg width="301" height="319" viewBox="0 0 301 319" fill="none" xmlns="http://www.w3.org/2000/svg">
<path d="M17.7168 54.0801C17.7168 52.9755 18.6122 52.0801 19.7168 52.0801H50.71C51.8145 52.0801 52.71 52.9755 52.71 54.0801V84.628C52.71 85.1488 52.5067 85.6492 52.1435 86.0225L21.1504 117.882C19.8986 119.169 17.7168 118.283 17.7168 116.488V54.0801Z" fill="#F5F5F5" stroke="#CCCCCC" stroke-width="1.5"/>
<path fill-rule="evenodd" clip-rule="evenodd" d="M12.1758 128.592L130.983 6.29346L249.791 128.592H244.079V292.817H17.7167V128.592H12.1758Z" fill="#F5F5F5"/>
<path d="M130.983 6.29346L131.521 5.77086L130.983 5.2171L130.445 5.77086L130.983 6.29346ZM12.1758 128.592L11.6378 128.07L10.4016 129.342H12.1758V128.592ZM249.791 128.592V129.342H251.565L250.329 128.07L249.791 128.592ZM244.079 128.592V127.842H243.329V128.592H244.079ZM244.079 292.817V293.567H244.829V292.817H244.079ZM17.7167 292.817H16.9667V293.567H17.7167V292.817ZM17.7167 128.592H18.4667V127.842H17.7167V128.592ZM130.445 5.77086L11.6378 128.07L12.7137 129.115L131.521 6.81605L130.445 5.77086ZM250.329 128.07L131.521 5.77086L130.445 6.81605L249.253 129.115L250.329 128.07ZM244.079 129.342H249.791V127.842H244.079V129.342ZM243.329 128.592V292.817H244.829V128.592H243.329ZM244.079 292.067H17.7167V293.567H244.079V292.067ZM18.4667 292.817V128.592H16.9667V292.817H18.4667ZM12.1758 129.342H17.7167V127.842H12.1758V129.342Z" fill="#CCCCCC"/>
<path fill-rule="evenodd" clip-rule="evenodd" d="M1 129.041L130.119 1L130.51 1.39474L130.902 1L260 129.021L252.508 136.575L130.51 15.596L8.49181 136.596L1 129.041Z" fill="#F5F5F5"/>
<path d="M130.119 1L130.652 0.471897C130.36 0.177779 129.885 0.175789 129.591 0.467452L130.119 1ZM1 129.041L0.471897 128.509C0.177779 128.8 0.175789 129.275 0.467452 129.569L1 129.041ZM130.51 1.39474L129.978 1.92285C130.119 2.06486 130.31 2.14474 130.51 2.14474C130.71 2.14474 130.902 2.06486 131.043 1.92285L130.51 1.39474ZM130.902 1L131.43 0.467452C131.136 0.175789 130.661 0.177779 130.369 0.471897L130.902 1ZM260 129.021L260.533 129.549C260.673 129.407 260.751 129.216 260.75 129.017C260.749 128.819 260.669 128.628 260.528 128.488L260 129.021ZM252.508 136.575L251.98 137.108C252.274 137.4 252.749 137.398 253.041 137.104L252.508 136.575ZM130.51 15.596L131.039 15.0634C130.746 14.7735 130.275 14.7735 129.982 15.0634L130.51 15.596ZM8.49181 136.596L7.95927 137.124C8.09933 137.266 8.28976 137.345 8.48867 137.346C8.68758 137.347 8.87868 137.269 9.01992 137.129L8.49181 136.596ZM129.591 0.467452L0.471897 128.509L1.5281 129.574L130.647 1.53255L129.591 0.467452ZM131.043 0.86664L130.652 0.471897L129.586 1.5281L129.978 1.92285L131.043 0.86664ZM131.043 1.92285L131.434 1.5281L130.369 0.471897L129.978 0.86664L131.043 1.92285ZM130.374 1.53255L259.472 129.553L260.528 128.488L131.43 0.467452L130.374 1.53255ZM259.467 128.492L251.976 136.047L253.041 137.104L260.533 129.549L259.467 128.492ZM253.036 136.043L131.039 15.0634L129.982 16.1285L251.98 137.108L253.036 136.043ZM9.01992 137.129L131.039 16.1285L129.982 15.0634L7.96371 136.064L9.01992 137.129ZM0.467452 129.569L7.95927 137.124L9.02436 136.068L1.53255 128.513L0.467452 129.569Z" fill="#CCCCCC"/>
<path d="M220.678 160.307H197.604V215.344H220.678V160.307Z" fill="#F5F5F5" stroke="#CCCCCC" stroke-width="1.5" stroke-linejoin="round"/>
<path d="M157.276 160.307H134.202V215.344H157.276V160.307Z" fill="#F5F5F5" stroke="#CCCCCC" stroke-width="1.5" stroke-linejoin="round"/>
<rect width="31.3667" height="45.8641" transform="matrix(-1 0 0 1 193.124 164.893)" fill="white" stroke="#CCCCCC" stroke-width="1.5" stroke-linejoin="round"/>
<rect width="15.0699" height="45.8641" transform="matrix(-1 0 0 1 216.676 164.893)" fill="white" stroke="#CCCCCC" stroke-width="1.5" stroke-linejoin="round"/>
<rect width="15.0699" height="45.8641" transform="matrix(-1 0 0 1 153.274 164.893)" fill="white" stroke="#CCCCCC" stroke-width="1.5" stroke-linejoin="round"/>
<rect x="224.842" y="160.414" width="94.8043" height="3.66913" rx="1.83456" transform="rotate(-180 224.842 160.414)" fill="#F5F5F5" stroke="#CCCCCC" stroke-width="1.5" stroke-linejoin="round"/>
<rect x="224.842" y="219.012" width="94.8043" height="3.66913" rx="1.83456" transform="rotate(-180 224.842 219.012)" fill="#F5F5F5" stroke="#CCCCCC" stroke-width="1.5" stroke-linejoin="round"/>
<line y1="-0.75" x2="31.3667" y2="-0.75" transform="matrix(-1 0 0 1 193.124 187.822)" stroke="#CCCCCC" stroke-width="1.5"/>
<line y1="-0.75" x2="15.0621" y2="-0.75" transform="matrix(-1 0 0 1 153.267 187.822)" stroke="#CCCCCC" stroke-width="1.5"/>
<line y1="-0.75" x2="15.0621" y2="-0.75" transform="matrix(-1 0 0 1 216.676 187.822)" stroke="#CCCCCC" stroke-width="1.5"/>
<path d="M175.353 172.452L168.83 177.744" stroke="#CCCCCC" stroke-width="1.5" stroke-linecap="round" stroke-linejoin="round"/>
<path d="M184.641 169.641L167.76 183.353" stroke="#CCCCCC" stroke-width="1.5" stroke-linecap="round" stroke-linejoin="round" stroke-dasharray="2 3 10 3 2 10"/>
<rect x="42.0928" y="160.236" width="56.5276" height="111.668" fill="#F5F5F5" stroke="#CCCCCC" stroke-width="1.5" stroke-linejoin="round"/>
<circle cx="93.0373" cy="212.603" r="2.66326" fill="#F5F5F5" stroke="#CCCCCC" stroke-width="1.5"/>
<rect x="52.9634" y="172.014" width="34.7868" height="87.7134" rx="1" fill="white" stroke="#CCCCCC" stroke-width="1.5"/>
<line x1="87.75" y1="216.621" x2="53.3411" y2="216.621" stroke="#CCCCCC" stroke-width="1.5"/>
<line x1="87.75" y1="194.692" x2="53.3411" y2="194.692" stroke="#CCCCCC" stroke-width="1.5"/>
<line x1="69.7954" y1="259.729" x2="69.7954" y2="172.45" stroke="#CCCCCC" stroke-width="1.5"/>
<line x1="87.75" y1="238.55" x2="53.3411" y2="238.55" stroke="#CCCCCC" stroke-width="1.5"/>
<rect x="103.513" y="160.236" width="66.3124" height="3.4909" rx="1.74545" transform="rotate(-180 103.513 160.236)" fill="#F5F5F5" stroke="#CCCCCC" stroke-width="1.5" stroke-linejoin="round"/>
<rect x="12.9258" y="46.3965" width="44.5753" height="7.93376" rx="1.25" fill="#F5F5F5" stroke="#CCCCCC" stroke-width="1.5" stroke-linejoin="round"/>
<path d="M21.2871 65.9868H47.4793" stroke="#CCCCCC" stroke-width="1.5" stroke-linecap="round" stroke-linejoin="round"/>
<path d="M28.0752 74.0571L47.4795 74.0571" stroke="#CCCCCC" stroke-width="1.5" stroke-linecap="round" stroke-linejoin="round"/>
<path d="M21.2871 82.1284H40.4438" stroke="#CCCCCC" stroke-width="1.5" stroke-linecap="round" stroke-linejoin="round"/>
<path d="M21.2871 90.1992H34.8628" stroke="#CCCCCC" stroke-width="1.5" stroke-linecap="round" stroke-linejoin="round"/>
<path d="M21.2871 98.271H30.272" stroke="#CCCCCC" stroke-width="1.5" stroke-linecap="round" stroke-linejoin="round"/>
<line x1="39.0464" y1="66.7368" x2="39.0464" y2="73.3078" stroke="#CCCCCC" stroke-width="1.5" stroke-linecap="round"/>
<line x1="32.2935" y1="58.2437" x2="32.2935" y2="65.5518" stroke="#CCCCCC" stroke-width="1.5" stroke-linecap="round"/>
<line x1="45.2627" y1="58.2437" x2="45.2627" y2="65.2369" stroke="#CCCCCC" stroke-width="1.5" stroke-linecap="round"/>
<line x1="25.4258" y1="82.7568" x2="25.4258" y2="89.75" stroke="#CCCCCC" stroke-width="1.5" stroke-linecap="round"/>
<line x1="32.2935" y1="74.8071" x2="32.2935" y2="81.3781" stroke="#CCCCCC" stroke-width="1.5" stroke-linecap="round"/>
<circle cx="130.508" cy="88.0818" r="29.8382" fill="#F5F5F5" stroke="#CCCCCC" stroke-width="1.5"/>
<circle cx="130.508" cy="88.0838" r="24.8426" fill="white" stroke="#CCCCCC" stroke-width="1.5"/>
<line x1="131.258" y1="63.2183" x2="131.258" y2="112.942" stroke="#CCCCCC" stroke-width="1.5"/>
<line x1="155.16" y1="87.7866" x2="104.915" y2="87.7866" stroke="#CCCCCC" stroke-width="1.5"/>
<rect width="80.1692" height="10.4727" rx="2" transform="matrix(-1 0 0 1 110.441 282.377)" fill="#F5F5F5" stroke="#CCCCCC" stroke-width="1.5" stroke-linejoin="round"/>
<rect width="66.3123" height="10.4727" rx="2" transform="matrix(-1 0 0 1 103.513 271.905)" fill="#F5F5F5" stroke="#CCCCCC" stroke-width="1.5" stroke-linejoin="round"/>
<line x1="244.079" y1="249.42" x2="98.6207" y2="249.42" stroke="#CCCCCC" stroke-width="1.5"/>
<line x1="42.0928" y1="249.42" x2="17.7168" y2="249.42" stroke="#CCCCCC" stroke-width="1.5"/>
<path d="M176.052 200.218L232.136 210.501C235.847 211.181 238.325 214.861 237.671 218.72L228.512 272.733C227.857 276.592 224.319 279.168 220.608 278.488L164.523 268.205C160.812 267.524 158.334 263.844 158.989 259.986L168.148 205.973C168.802 202.114 172.341 199.537 176.052 200.218Z" fill="#DFD1C4"/>
<path d="M176.052 200.218L232.136 210.501C235.847 211.181 238.325 214.861 237.671 218.72L228.512 272.733C227.857 276.592 224.319 279.168 220.608 278.488L164.523 268.205C160.812 267.524 158.334 263.844 158.989 259.986L168.148 205.973C168.802 202.114 172.341 199.537 176.052 200.218Z" stroke="#28293C" stroke-width="2" stroke-linecap="round" stroke-linejoin="round"/>
<path d="M191.599 142.808L236.408 151.024C240.119 151.704 242.597 155.384 241.943 159.243L234.465 203.339C233.811 207.198 230.272 209.774 226.561 209.094L181.752 200.878C178.041 200.198 175.564 196.518 176.218 192.659L183.695 148.563C184.35 144.704 187.888 142.128 191.599 142.808Z" fill="#ECE4DD"/>
<path d="M191.599 142.808L236.408 151.024C240.119 151.704 242.597 155.384 241.943 159.243L234.465 203.339C233.811 207.198 230.272 209.774 226.561 209.094L181.752 200.878C178.041 200.198 175.564 196.518 176.218 192.659L183.695 148.563C184.35 144.704 187.888 142.128 191.599 142.808Z" stroke="#28293C" stroke-width="2" stroke-linecap="round" stroke-linejoin="round"/>
<path d="M205.294 176.935L208.863 174.935C209.153 174.771 209.516 174.838 209.737 175.095L212.432 178.243C212.697 178.549 212.667 179.019 212.373 179.294C212.236 179.418 212.066 179.48 211.899 179.48C211.703 179.48 211.507 179.396 211.366 179.232L209.652 177.232L208.671 183.019C208.611 183.378 208.309 183.635 207.968 183.635C207.925 183.635 207.887 183.635 207.844 183.622C207.456 183.551 207.196 183.165 207.264 182.761L208.245 176.975L205.976 178.247C205.626 178.443 205.196 178.305 205.008 177.946C204.821 177.587 204.953 177.134 205.298 176.939L205.294 176.935Z" fill="#28293C"/>
<path d="M212.735 187.865C213.076 187.865 213.379 187.612 213.438 187.249C213.507 186.845 213.246 186.46 212.858 186.389L202.219 184.438C201.831 184.367 201.46 184.637 201.392 185.041C201.323 185.444 201.584 185.83 201.972 185.901L212.611 187.852C212.654 187.861 212.696 187.865 212.735 187.865Z" fill="#28293C"/>
<path d="M194.369 237.803L197.938 235.803C198.228 235.639 198.59 235.705 198.812 235.962L201.507 239.111C201.771 239.417 201.742 239.887 201.447 240.162C201.311 240.286 201.14 240.348 200.974 240.348C200.778 240.348 200.582 240.264 200.441 240.1L198.727 238.1L197.746 243.886C197.686 244.245 197.383 244.503 197.042 244.503C197 244.503 196.961 244.503 196.919 244.489C196.531 244.418 196.27 244.033 196.339 243.629L197.319 237.843L195.051 239.115C194.701 239.31 194.27 239.173 194.083 238.814C193.895 238.454 194.027 238.002 194.373 237.807L194.369 237.803Z" fill="#28293C"/>
<path d="M201.806 248.733C202.147 248.733 202.449 248.48 202.509 248.117C202.577 247.713 202.317 247.327 201.929 247.256L191.29 245.305C190.902 245.234 190.531 245.505 190.463 245.908C190.394 246.312 190.654 246.698 191.042 246.769L201.682 248.72C201.725 248.728 201.767 248.733 201.806 248.733Z" fill="#28293C"/>
<path d="M156.194 276.442L238.482 291.531C240.998 291.992 243.395 290.245 243.838 287.633L263.838 169.671C264.648 164.896 268.294 161.237 272.912 160.563L291.044 157.921C293.573 157.553 295.334 155.123 294.98 152.493C294.626 149.864 292.294 148.028 289.761 148.401L271.629 151.043C263.028 152.298 256.239 159.114 254.729 168.004L235.532 281.231L157.798 266.979C155.282 266.518 152.885 268.265 152.442 270.877C151.998 273.493 153.678 275.985 156.19 276.446L156.194 276.442Z" fill="#FF827A" stroke="#28293C" stroke-width="2" stroke-linecap="round" stroke-linejoin="round"/>
<path d="M273.254 162.129L294.537 158.555C297.897 157.992 300.183 154.702 299.637 151.203C299.096 147.709 295.932 145.332 292.567 145.896L271.288 149.47L273.254 162.125V162.129Z" fill="#FFD5D3" stroke="#28293C" stroke-width="2" stroke-linecap="round" stroke-linejoin="round"/>
<path d="M233.726 312.742C219.942 309.554 211.253 295.35 214.319 281.017C217.385 266.683 231.045 257.648 244.829 260.836C258.614 264.024 267.303 278.228 264.237 292.562C261.171 306.895 247.511 315.93 233.726 312.742Z" fill="#28293C" stroke="#28293C" stroke-width="2" stroke-linecap="round" stroke-linejoin="round"/>
<path d="M241.075 276.229C246.687 277.258 250.435 282.823 249.446 288.658C248.457 294.493 243.105 298.391 237.493 297.362C231.881 296.334 228.133 290.769 229.122 284.933C230.112 279.098 235.463 275.2 241.075 276.229Z" fill="white" stroke="#28293C" stroke-width="2" stroke-linecap="round" stroke-linejoin="round"/>
<path d="M198.633 205.18L209.554 207.18L206.961 222.465L206.914 222.456C206.914 222.456 206.944 222.465 206.961 222.469L205.089 223.83C204.94 223.937 204.735 223.901 204.633 223.746L203.324 221.8C203.324 221.8 203.353 221.8 203.37 221.804L203.281 221.786C203.281 221.786 203.311 221.795 203.328 221.8L201.456 223.161C201.307 223.267 201.102 223.232 201 223.077L199.69 221.13C199.69 221.13 199.72 221.13 199.737 221.134L199.648 221.117C199.648 221.117 199.678 221.126 199.695 221.13L197.823 222.491C197.673 222.598 197.469 222.562 197.366 222.407L196.057 220.46C196.057 220.46 196.087 220.46 196.104 220.465L196.057 220.456L198.65 205.171L198.633 205.18Z" fill="white"/>
<path d="M209.285 146.92L220.206 148.92L217.613 164.204L217.566 164.196C217.566 164.196 217.596 164.204 217.613 164.209L215.741 165.57C215.592 165.677 215.387 165.641 215.285 165.486L213.976 163.539C213.976 163.539 214.006 163.539 214.023 163.544L213.933 163.526C213.933 163.526 213.963 163.535 213.98 163.539L212.108 164.901C211.959 165.007 211.754 164.972 211.652 164.816L210.343 162.87C210.343 162.87 210.373 162.87 210.39 162.874L210.3 162.856C210.3 162.856 210.33 162.865 210.347 162.87L208.475 164.231C208.326 164.337 208.121 164.302 208.019 164.147L206.71 162.2C206.71 162.2 206.739 162.2 206.756 162.205L206.71 162.196L209.302 146.911L209.285 146.92Z" fill="white"/>
</svg>
