<svg width="296" height="291" viewBox="0 0 296 291" fill="none" xmlns="http://www.w3.org/2000/svg">
<path d="M294.544 207.135L294.454 152.961C294.454 146.698 289.315 141.57 283.046 141.57L175.672 141.66C169.391 141.66 164.264 146.787 164.264 153.05L164.347 205.503H164.264L164.353 259.677C164.353 265.94 169.493 271.068 175.762 271.068L283.135 270.978C289.416 270.978 294.544 265.85 294.544 259.587L294.46 207.135H294.544Z" fill="#F5F5F5" stroke="#CCCCCC" stroke-width="1.75082" stroke-linecap="round" stroke-linejoin="round"/>
<path d="M281.549 87.8315L281.474 42.296C281.474 37.0316 277.154 32.7217 271.885 32.7217L181.632 32.797C176.353 32.797 172.043 37.107 172.043 42.3713L172.113 86.4602H172.043L172.118 131.996C172.118 137.26 176.438 141.57 181.708 141.57L271.96 141.495C277.239 141.495 281.549 137.185 281.549 131.92L281.479 87.8315H281.549Z" fill="#F5F5F5" stroke="#CCCCCC" stroke-width="1.5" stroke-linecap="round" stroke-linejoin="round"/>
<path d="M237.169 141.7H221.631V162.617H221.697C221.697 162.617 221.655 162.617 221.631 162.617L223.896 164.882C224.075 165.061 224.368 165.061 224.547 164.882L226.812 162.617C226.812 162.617 226.77 162.617 226.746 162.617H226.878C226.878 162.617 226.836 162.617 226.812 162.617L229.077 164.882C229.256 165.061 229.549 165.061 229.729 164.882L231.994 162.617C231.994 162.617 231.952 162.617 231.928 162.617H232.059C232.059 162.617 232.017 162.617 231.994 162.617L234.258 164.882C234.438 165.061 234.731 165.061 234.91 164.882L237.175 162.617C237.175 162.617 237.133 162.617 237.109 162.617H237.175V141.7H237.169Z" fill="white" stroke="#CCCCCC" stroke-width="1.75082" stroke-linejoin="round"/>
<path d="M234.561 32.7217H219.023V53.6382H219.089C219.089 53.6382 219.047 53.6382 219.023 53.6382L221.288 55.9032C221.468 56.0825 221.761 56.0825 221.94 55.9032L224.205 53.6382C224.205 53.6382 224.163 53.6382 224.139 53.6382H224.27C224.27 53.6382 224.229 53.6382 224.205 53.6382L226.47 55.9032C226.649 56.0825 226.942 56.0825 227.121 55.9032L229.386 53.6382C229.386 53.6382 229.344 53.6382 229.32 53.6382H229.452C229.452 53.6382 229.41 53.6382 229.386 53.6382L231.651 55.9032C231.83 56.0825 232.123 56.0825 232.302 55.9032L234.567 53.6382C234.567 53.6382 234.526 53.6382 234.502 53.6382H234.567V32.7217H234.561Z" fill="white" stroke="#CCCCCC" stroke-width="1.5" stroke-linejoin="round"/>
<path d="M77.1927 30.2803L45.1191 55.6366" stroke="#28293C" stroke-width="1.5" stroke-linecap="round" stroke-linejoin="round"/>
<path d="M70.1033 52.002L45.6426 71.3339" stroke="#28293C" stroke-width="1.5" stroke-linecap="round" stroke-linejoin="round"/>
<path d="M200.07 199.181L199.943 122.588C199.943 113.733 192.677 106.483 183.813 106.483L32.0047 106.61C23.1245 106.61 15.875 113.86 15.875 122.714L15.9933 196.874H15.875L16.0017 273.467C16.0017 282.322 23.2681 289.571 32.1314 289.571L183.94 289.444C192.82 289.444 200.07 282.195 200.07 273.34L199.951 199.181H200.07Z" fill="#DFD1C4" stroke="#28293C" stroke-width="1.5" stroke-linecap="round" stroke-linejoin="round"/>
<path d="M118.966 108.122H96.998V137.695H97.091C97.091 137.695 97.0318 137.695 96.998 137.695L100.2 140.897C100.454 141.15 100.868 141.15 101.121 140.897L104.324 137.695C104.324 137.695 104.264 137.695 104.231 137.695H104.417C104.417 137.695 104.357 137.695 104.324 137.695L107.526 140.897C107.779 141.15 108.193 141.15 108.447 140.897L111.649 137.695C111.649 137.695 111.59 137.695 111.556 137.695H111.742C111.742 137.695 111.683 137.695 111.649 137.695L114.851 140.897C115.105 141.15 115.519 141.15 115.772 140.897L118.975 137.695C118.975 137.695 118.916 137.695 118.882 137.695H118.975V108.122H118.966Z" fill="white"/>
<path d="M96.9967 287.932H118.965V258.359H118.872C118.872 258.359 118.931 258.359 118.965 258.359L115.763 255.157C115.509 254.903 115.095 254.903 114.842 255.157L111.639 258.359C111.639 258.359 111.699 258.359 111.732 258.359H111.546C111.546 258.359 111.606 258.359 111.639 258.359L108.437 255.157C108.184 254.903 107.77 254.903 107.516 255.157L104.314 258.359C104.314 258.359 104.373 258.359 104.407 258.359H104.221C104.221 258.359 104.28 258.359 104.314 258.359L101.112 255.157C100.858 254.903 100.444 254.903 100.191 255.157L96.9883 258.359C96.9883 258.359 97.0474 258.359 97.0812 258.359H96.9883V287.932H96.9967Z" fill="white"/>
<path d="M188.191 97.5527H27.756C26.1088 97.5527 24.7734 98.8881 24.7734 100.535V103.501C24.7734 105.148 26.1088 106.484 27.756 106.484H188.191C189.839 106.484 191.174 105.148 191.174 103.501V100.535C191.174 98.8881 189.839 97.5527 188.191 97.5527Z" fill="#7CB0F9" stroke="#28293C" stroke-width="1.5" stroke-linecap="round" stroke-linejoin="round"/>
<path d="M42.8454 11.9277H172.306C176.04 11.9277 179.065 14.9526 179.065 18.6872V97.5529H36.0859V18.6872C36.0859 14.9526 39.1108 11.9277 42.8454 11.9277Z" fill="#B1D0FC" stroke="#28293C" stroke-width="1.5" stroke-linecap="round" stroke-linejoin="round"/>
<path d="M170.025 19.8271H45.1191V89.6521H170.025V19.8271Z" fill="white" stroke="#28293C" stroke-width="1.5" stroke-linecap="round" stroke-linejoin="round"/>
<path d="M107.172 77.3596C119.664 77.3596 129.79 67.2328 129.79 54.7408C129.79 42.2488 119.664 32.1221 107.172 32.1221C94.6795 32.1221 84.5527 42.2488 84.5527 54.7408C84.5527 67.2328 94.6795 77.3596 107.172 77.3596Z" fill="#A4EDCA"/>
<path d="M124.509 47.3211C128.97 47.3211 132.587 43.7046 132.587 39.2435C132.587 34.7824 128.97 31.166 124.509 31.166C120.048 31.166 116.432 34.7824 116.432 39.2435C116.432 43.7046 120.048 47.3211 124.509 47.3211Z" fill="white" stroke="#28293C" stroke-width="1.5" stroke-linecap="round" stroke-linejoin="round"/>
<path d="M122.396 37.7831L124.399 39.7856L125.43 40.8164L126.461 39.7856L134.124 32.1221" stroke="#28293C" stroke-width="1.5" stroke-linecap="round" stroke-linejoin="round"/>
<path d="M103.471 59.0247C104.468 58.0699 105.794 57.5376 107.171 57.5376C108.549 57.5376 109.875 58.0699 110.872 59.0247" stroke="#28293C" stroke-width="1.5" stroke-linecap="round" stroke-linejoin="round"/>
<path d="M99.8799 55.4335C101.832 53.5324 104.443 52.4678 107.172 52.4678C109.901 52.4678 112.512 53.5324 114.463 55.4335" stroke="#28293C" stroke-width="1.5" stroke-linecap="round" stroke-linejoin="round"/>
<path d="M96.2969 51.8512C99.195 48.9954 103.099 47.3984 107.171 47.3984C111.244 47.3984 115.147 48.9954 118.045 51.8512" stroke="#28293C" stroke-width="1.5" stroke-linecap="round" stroke-linejoin="round"/>
<path d="M107.171 65.4383C108.211 65.4383 109.055 64.5934 109.055 63.5541C109.055 62.5149 108.211 61.6699 107.171 61.6699C106.132 61.6699 105.287 62.5149 105.287 63.5541C105.287 64.5934 106.132 65.4383 107.171 65.4383Z" fill="#28293C"/>
<path d="M60.5254 50.0947H66.7567V96.7256H27.5V85.8208L29.2653 76.37L33.9388 66.4L40.5853 59.5456L46.9205 54.6644L53.6712 51.4449L60.5254 50.0947Z" fill="#F2EDE8"/>
<path d="M50.832 21.0903C50.832 14.528 53.6734 1.16211 57.838 1.16211C62.0027 1.16211 64.2369 11.3364 64.2369 17.8987" fill="#F2EDE8"/>
<path d="M50.832 21.0903C50.832 14.528 53.6734 1.16211 57.838 1.16211C62.0027 1.16211 64.2369 11.3364 64.2369 17.8987" stroke="#28293C" stroke-width="1.5" stroke-linecap="round" stroke-linejoin="round"/>
<path d="M70.1045 21.0903C70.1045 14.528 72.9536 1.16211 77.1105 1.16211C81.2674 1.16211 82.7776 15.0184 82.7776 21.5807" fill="#F2EDE8"/>
<path d="M70.1045 21.0903C70.1045 14.528 72.9536 1.16211 77.1105 1.16211C81.2674 1.16211 82.7776 15.0184 82.7776 21.5807" stroke="#28293C" stroke-width="1.5" stroke-linecap="round" stroke-linejoin="round"/>
<path d="M66.9452 48.5309C76.9871 48.5309 85.1375 40.3806 85.1375 30.3231C85.1375 20.2656 76.9949 12.1152 66.9452 12.1152C56.8955 12.1152 48.7529 20.2656 48.7529 30.3231C48.7529 40.3806 56.8955 48.5309 66.9452 48.5309Z" fill="#F2EDE8" stroke="#28293C" stroke-width="1.5" stroke-linecap="round" stroke-linejoin="round"/>
<path d="M19.8019 89.2126C8.7947 84.6509 -11.4682 66.1162 11.8306 32.2382C11.8306 32.2382 23.5929 13.6334 3.47792 9.45312" stroke="#28293C" stroke-width="1.5" stroke-linecap="round" stroke-linejoin="round"/>
<path d="M63.6992 23.4023V30.0191" stroke="#28293C" stroke-width="1.5" stroke-linecap="round" stroke-linejoin="round"/>
<path d="M72.876 23.4023V30.0191" stroke="#28293C" stroke-width="1.5" stroke-linecap="round" stroke-linejoin="round"/>
<path d="M27.3057 96.0698V88.4022C27.3057 77.9243 31.4626 67.8823 38.8656 60.4793C46.2686 53.0763 56.295 48.9116 66.7573 48.9116V96.0698" stroke="#28293C" stroke-width="1.5" stroke-linecap="round" stroke-linejoin="round"/>
<path d="M43.9717 56.8213L50.5885 69.7435" stroke="#28293C" stroke-width="1.5" stroke-linecap="round" stroke-linejoin="round"/>
<path d="M36.6787 63.8809L43.2955 76.8031" stroke="#28293C" stroke-width="1.5" stroke-linecap="round" stroke-linejoin="round"/>
<path d="M30.5996 74.4829L37.2164 87.4051" stroke="#28293C" stroke-width="1.5" stroke-linecap="round" stroke-linejoin="round"/>
<path d="M67.5596 37.5771H70.3931V40.4029" stroke="#28293C" stroke-width="1.5" stroke-linecap="round" stroke-linejoin="round"/>
</svg>
