<svg width="486" height="291" viewBox="0 0 486 291" fill="none" xmlns="http://www.w3.org/2000/svg">
<g clip-path="url(#clip0_54_3527)">
<rect x="49.4742" y="158.281" width="71.2959" height="82.309" rx="7.14106" transform="rotate(39.2151 49.4742 158.281)" fill="#F5F5F5"/>
<rect x="90.5187" y="107.982" width="71.2959" height="53.2274" rx="7.14106" transform="rotate(39.2151 90.5187 107.982)" fill="#F5F5F5"/>
<rect x="105.066" y="36.062" width="139.693" height="53.2274" rx="7.14106" transform="rotate(39.2151 105.066 36.062)" fill="#F5F5F5"/>
<rect x="91.3534" y="-24.604" width="39.1259" height="91.5604" rx="7.14106" transform="rotate(39.2151 91.3534 -24.604)" fill="#F5F5F5"/>
<rect x="25.5803" y="-23.2422" width="39.1259" height="91.5604" rx="7.14106" transform="rotate(39.2151 25.5803 -23.2422)" fill="#F5F5F5"/>
<rect x="349.865" y="264.35" width="39.1259" height="91.5604" rx="7.14106" transform="rotate(39.2151 349.865 264.35)" fill="#F5F5F5"/>
<rect x="377.172" y="232.592" width="39.1259" height="30.7664" rx="7.14106" transform="rotate(39.2151 377.172 232.592)" fill="#F5F5F5"/>
<rect x="414.899" y="263.592" width="39.1259" height="71.5242" rx="7.14106" transform="rotate(39.2151 414.899 263.592)" fill="#F5F5F5"/>
<rect x="324.33" y="188.204" width="60.3009" height="133.384" rx="7.14106" transform="rotate(39.2151 324.33 188.204)" fill="#F5F5F5"/>
<rect x="246.291" y="101.828" width="39.1259" height="91.5604" rx="7.14106" transform="rotate(39.2151 246.291 101.828)" fill="#F5F5F5"/>
<rect x="326.156" y="4.4458" width="39.1259" height="117.777" rx="7.14106" transform="rotate(39.2151 326.156 4.4458)" fill="#F5F5F5"/>
<rect x="496.254" y="231.306" width="50.4288" height="73.7412" rx="7.14106" transform="rotate(-140.785 496.254 231.306)" fill="#F5F5F5"/>
<rect x="-29.4923" y="215.169" width="50.4288" height="41.6345" rx="7.14106" transform="rotate(39.2151 -29.4923 215.169)" fill="#F5F5F5"/>
<rect x="450.222" y="193.743" width="50.4288" height="41.6345" rx="7.14106" transform="rotate(-140.785 450.222 193.743)" fill="#F5F5F5"/>
<rect x="483.682" y="152.738" width="50.4288" height="41.6345" rx="7.14106" transform="rotate(-140.785 483.682 152.738)" fill="#F5F5F5"/>
<rect x="19.9081" y="255.481" width="32.7499" height="73.7412" rx="7.14106" transform="rotate(39.2151 19.9081 255.481)" fill="#F5F5F5"/>
<rect x="400.821" y="153.431" width="32.7499" height="166.144" rx="7.14106" transform="rotate(-140.785 400.821 153.431)" fill="#F5F5F5"/>
<rect x="55.6112" y="284.616" width="71.2959" height="73.7412" rx="7.14106" transform="rotate(39.2151 55.6112 284.616)" fill="#F5F5F5"/>
<rect x="156.086" y="161.487" width="71.2959" height="147.229" rx="7.14106" transform="rotate(39.2151 156.086 161.487)" fill="#F5F5F5"/>
<rect x="271.323" y="148.623" width="54.6757" height="230.052" rx="7.14106" transform="rotate(39.2151 271.323 148.623)" fill="#F5F5F5"/>
<rect x="364.447" y="34.5024" width="54.6757" height="130.313" rx="7.14106" transform="rotate(39.2151 364.447 34.5024)" fill="#F5F5F5"/>
<rect x="228.78" y="-115.236" width="54.6757" height="183.746" rx="7.14106" transform="rotate(39.2151 228.78 -115.236)" fill="#F5F5F5"/>
<rect x="278.928" y="-74.3149" width="54.6757" height="183.746" rx="7.14106" transform="rotate(39.2151 278.928 -74.3149)" fill="#F5F5F5"/>
<rect x="257.291" y="53.0503" width="12.4623" height="71.3868" rx="6.23115" transform="rotate(39.2151 257.291 53.0503)" fill="#F5F5F5"/>
<rect x="305.826" y="-8.24219" width="12.4623" height="71.3868" rx="6.23115" transform="rotate(39.2151 305.826 -8.24219)" fill="#F5F5F5"/>
<rect x="24.9509" y="54.478" width="71.2959" height="147.229" rx="7.14106" transform="rotate(39.2151 24.9509 54.478)" fill="#F5F5F5"/>
<rect x="365.232" y="138.592" width="197.534" height="52.113" rx="7.14106" transform="rotate(39.2151 365.232 138.592)" fill="#F5F5F5"/>
<rect x="387.915" y="-103.302" width="125.622" height="110.584" rx="7.14106" transform="rotate(39.2151 387.915 -103.302)" fill="#F5F5F5"/>
<path d="M74.5 65L68.281 72.0671C65.6667 75.0379 66.0329 79.5835 69.0891 82.0975L213.148 200.598C216.113 203.036 220.488 202.633 222.956 199.693L269.06 144.788C271.522 141.856 275.883 141.446 278.848 143.867L472.5 302" stroke="#3957E1" stroke-width="4" stroke-linecap="round"/>
<path d="M79.9993 30.9995C77.0829 31.003 74.2871 32.163 72.2249 34.2252C70.1628 36.2873 69.0027 39.0832 68.9993 41.9995C68.9993 51.4116 78.9993 58.521 79.425 58.8188C79.5934 58.9364 79.7939 58.9995 79.9993 58.9995C80.2047 58.9995 80.4051 58.9364 80.5735 58.8188C80.9993 58.521 90.9993 51.4116 90.9993 41.9995C90.9958 39.0832 89.8358 36.2873 87.7736 34.2252C85.7115 32.163 82.9156 31.003 79.9993 30.9995ZM80 37.9999C80.7911 37.9999 81.5645 38.2345 82.2223 38.674C82.8801 39.1135 83.3928 39.7382 83.6955 40.4691C83.9983 41.2 84.0775 42.0043 83.9231 42.7802C83.7688 43.5562 83.3878 44.2689 82.8284 44.8283C82.269 45.3877 81.5563 45.7687 80.7804 45.923C80.0044 46.0774 79.2002 45.9981 78.4693 45.6954C77.7384 45.3926 77.1136 44.88 76.6741 44.2222C76.2346 43.5644 76 42.791 76 41.9999C76 41.4746 76.1034 40.9544 76.3045 40.4691C76.5055 39.9838 76.8001 39.5429 77.1715 39.1714C77.543 38.8 77.9839 38.5053 78.4692 38.3043C78.9546 38.1033 79.4747 37.9999 80 37.9999Z" fill="#3957E1"/>
</g>
<defs>
<clipPath id="clip0_54_3527">
<rect width="486" height="291" fill="white"/>
</clipPath>
</defs>
</svg>
