<svg width="486" height="291" viewBox="0 0 486 291" fill="none" xmlns="http://www.w3.org/2000/svg">
  <g clip-path="url(#clip0_60_6085)">
    <g clip-path="url(#clip1_60_6085)">
      <rect x="49.4741" y="158.281" width="71.2959" height="82.309" rx="7.14106" transform="rotate(39.2151 49.4741 158.281)" fill="#F5F5F5"/>
      <rect x="90.5186" y="107.982" width="71.2959" height="53.2274" rx="7.14106" transform="rotate(39.2151 90.5186 107.982)" fill="#F5F5F5"/>
      <rect x="105.066" y="36.062" width="139.693" height="53.2274" rx="7.14106" transform="rotate(39.2151 105.066 36.062)" fill="#F5F5F5"/>
      <rect x="91.3535" y="-24.604" width="39.1259" height="91.5604" rx="7.14106" transform="rotate(39.2151 91.3535 -24.604)" fill="#F5F5F5"/>
      <rect x="25.5803" y="-23.2422" width="39.1259" height="91.5604" rx="7.14106" transform="rotate(39.2151 25.5803 -23.2422)" fill="#F5F5F5"/>
      <rect x="349.865" y="264.35" width="39.1259" height="91.5604" rx="7.14106" transform="rotate(39.2151 349.865 264.35)" fill="#F5F5F5"/>
      <rect x="377.172" y="232.592" width="39.1259" height="30.7664" rx="7.14106" transform="rotate(39.2151 377.172 232.592)" fill="#F5F5F5"/>
      <rect x="414.899" y="263.592" width="39.1259" height="71.5242" rx="7.14106" transform="rotate(39.2151 414.899 263.592)" fill="#F5F5F5"/>
      <rect x="324.33" y="188.204" width="60.3009" height="133.384" rx="7.14106" transform="rotate(39.2151 324.33 188.204)" fill="#F5F5F5"/>
      <rect x="246.291" y="101.828" width="39.1259" height="91.5604" rx="7.14106" transform="rotate(39.2151 246.291 101.828)" fill="#F5F5F5"/>
      <rect x="326.156" y="4.4458" width="39.1259" height="117.777" rx="7.14106" transform="rotate(39.2151 326.156 4.4458)" fill="#F5F5F5"/>
      <rect x="496.254" y="231.306" width="50.4288" height="73.7412" rx="7.14106" transform="rotate(-140.785 496.254 231.306)" fill="#F5F5F5"/>
      <rect x="-29.4922" y="215.169" width="50.4288" height="41.6345" rx="7.14106" transform="rotate(39.2151 -29.4922 215.169)" fill="#F5F5F5"/>
      <rect x="450.222" y="193.743" width="50.4288" height="41.6345" rx="7.14106" transform="rotate(-140.785 450.222 193.743)" fill="#F5F5F5"/>
      <rect x="483.682" y="152.738" width="50.4288" height="41.6345" rx="7.14106" transform="rotate(-140.785 483.682 152.738)" fill="#F5F5F5"/>
      <rect x="19.9082" y="255.481" width="32.7499" height="73.7412" rx="7.14106" transform="rotate(39.2151 19.9082 255.481)" fill="#F5F5F5"/>
      <rect x="400.821" y="153.431" width="32.7499" height="166.144" rx="7.14106" transform="rotate(-140.785 400.821 153.431)" fill="#F5F5F5"/>
      <rect x="55.6113" y="284.616" width="71.2959" height="73.7412" rx="7.14106" transform="rotate(39.2151 55.6113 284.616)" fill="#F5F5F5"/>
      <rect x="156.086" y="161.487" width="71.2959" height="147.229" rx="7.14106" transform="rotate(39.2151 156.086 161.487)" fill="#F5F5F5"/>
      <rect x="271.323" y="148.623" width="54.6757" height="230.052" rx="7.14106" transform="rotate(39.2151 271.323 148.623)" fill="#F5F5F5"/>
      <rect x="364.447" y="34.5024" width="54.6757" height="130.313" rx="7.14106" transform="rotate(39.2151 364.447 34.5024)" fill="#F5F5F5"/>
      <rect x="228.78" y="-115.236" width="54.6757" height="183.746" rx="7.14106" transform="rotate(39.2151 228.78 -115.236)" fill="#F5F5F5"/>
      <rect x="278.928" y="-74.3149" width="54.6757" height="183.746" rx="7.14106" transform="rotate(39.2151 278.928 -74.3149)" fill="#F5F5F5"/>
      <rect x="257.291" y="53.0503" width="12.4623" height="71.3868" rx="6.23115" transform="rotate(39.2151 257.291 53.0503)" fill="#F5F5F5"/>
      <rect x="305.826" y="-8.24219" width="12.4623" height="71.3868" rx="6.23115" transform="rotate(39.2151 305.826 -8.24219)" fill="#F5F5F5"/>
      <rect x="24.9509" y="54.478" width="71.2959" height="147.229" rx="7.14106" transform="rotate(39.2151 24.9509 54.478)" fill="#F5F5F5"/>
      <rect x="365.232" y="138.592" width="197.534" height="52.113" rx="7.14106" transform="rotate(39.2151 365.232 138.592)" fill="#F5F5F5"/>
      <rect x="387.915" y="-103.302" width="125.622" height="110.584" rx="7.14106" transform="rotate(39.2151 387.915 -103.302)" fill="#F5F5F5"/>
    </g>
    <path d="M-6.5 214.5L81.5952 106.405C84.0307 103.416 88.4241 102.96 91.4222 105.383L211.204 202.219C214.152 204.602 218.462 204.205 220.925 201.324L268.047 146.208C270.522 143.314 274.856 142.928 277.802 145.34L465.5 299" stroke="#3957E1" stroke-linecap="round" stroke-dasharray="7 7"/>
  </g>
  <defs>
    <clipPath id="clip0_60_6085">
      <rect width="486" height="291" fill="white"/>
    </clipPath>
    <clipPath id="clip1_60_6085">
      <rect width="486" height="291" fill="white"/>
    </clipPath>
  </defs>
</svg>
