<svg width="123" height="27" viewBox="0 0 123 27" fill="none" xmlns="http://www.w3.org/2000/svg">
<path d="M114.765 7.90527V20.4041L123 14.1564L114.765 7.90527Z" fill="black"/>
<path d="M20.443 24.1415C20.443 25.1507 19.6573 26.0679 18.5159 26.0679H16.5895V11.9607C16.8138 8.20769 18.1784 5.21647 23.8794 5.01245C26.3452 5.04342 28.1344 6.02382 29.1916 7.26035C30.3247 8.73384 30.8106 10.5646 30.8106 12.8672C30.8106 15.2465 30.2438 17.173 29.11 18.6464C27.977 20.0819 26.5231 20.7993 24.7479 20.7993C22.0852 20.7993 20.7919 19.6908 20.4402 19.4827C20.4403 19.6114 20.443 24.1415 20.443 24.1415ZM26.901 13.0373C26.901 11.5646 26.6309 8.44822 23.615 8.44822C20.7511 8.44822 20.443 11.4887 20.443 13.0373C20.443 16.9583 22.6711 17.4563 23.7282 17.4563C26.4662 17.4564 26.901 14.5525 26.901 13.0373Z" fill="black"/>
<path d="M2.25417 19.143C3.53077 20.2331 5.44794 20.7769 8.00384 20.7769C10.4845 20.7769 12.4017 20.2521 13.7541 19.1993C15.1067 18.0718 15.784 16.4936 15.784 14.4646C15.784 13.5256 15.5998 12.6591 15.1637 11.8707C14.7643 11.1491 14.0861 10.4682 13.2662 10.0576C12.7458 9.79803 12.4291 9.68484 11.7891 9.48782C11.0985 9.27619 7.65909 8.33794 7.31177 8.2465C5.39595 7.77947 4.17921 7.1416 4.17073 6.00782C4.26991 3.81559 6.31293 3.64045 7.44106 3.64045C8.60434 3.64045 9.52637 3.88515 10.2023 4.37332C11.4163 5.31796 11.2812 6.51774 11.2812 6.51774H15.1065C15.0313 4.63843 14.3547 3.11504 13.0775 1.94967C11.8376 0.897492 10.0702 0.370605 7.7788 0.370605C5.33548 0.370605 3.47583 0.878442 2.19788 1.89264C0.919932 2.94555 0.281326 4.39225 0.281326 6.23359C0.286979 8.59886 1.4081 9.99357 2.42378 10.6307C3.04051 10.9999 4.44234 11.5661 6.25689 11.927L7.78089 12.2589C10.4241 12.9032 11.9412 13.7191 11.894 15.0279C11.8652 15.8164 11.5937 16.4191 10.9916 16.832C10.4415 17.2082 9.50609 17.4509 8.34281 17.4509C7.02614 17.4509 5.99375 17.1892 5.24257 16.6624C4.52801 16.2116 4.09465 15.4225 3.94557 14.2951H0C0.11258 16.4367 0.863642 18.0536 2.25417 19.143Z" fill="black"/>
<path d="M38.585 8.33771C41.008 8.30465 41.3842 10.3675 41.4595 11.3824H35.7099C35.7099 11.3824 35.6613 8.39179 38.585 8.33771ZM38.7546 17.4141C37.7777 17.3648 35.9181 17.1736 35.7478 13.9192L45.5162 13.9213C45.5177 13.8214 45.5162 12.7503 45.519 12.7488C45.4514 10.2963 44.8627 8.46909 43.7142 7.09762C42.4735 5.74445 40.7264 5.0686 38.4716 5.0686C36.3308 5.0686 34.6576 5.76424 33.4556 7.15391C32.2902 8.50646 31.707 10.3864 31.707 12.791C31.707 15.3095 32.3078 17.2444 33.5119 18.5969C34.7146 19.988 36.3871 20.683 38.5279 20.683C40.2954 20.683 41.7604 20.2518 42.925 19.3867C44.0898 18.5603 44.8845 17.3535 45.2982 15.7745L41.904 15.7752C41.4047 17.1918 40.1281 17.483 38.7546 17.4141Z" fill="black"/>
<path d="M104.176 20.4224H100.267V10.7912C100.267 9.68066 99.8107 8.18468 97.6045 8.18468C95.4398 8.18468 94.9988 9.88529 94.9988 10.7912V20.4225H91.0321V11.5846C91.0321 9.01673 91.7937 7.44763 93.0434 6.42925C94.2813 5.41997 95.8659 5.08874 97.4906 5.01279C98.3592 5.01279 99.2102 5.10779 100.04 5.29559C100.872 5.48621 101.627 5.86242 102.307 6.42937C102.874 5.93911 103.544 5.58896 104.318 5.38076C105.092 5.17391 105.893 5.01721 106.726 5.01291C111.563 4.98759 113.505 7.20231 113.666 7.91269C113.666 7.92326 113.667 20.4227 113.667 20.4227H111.428C110.862 20.4227 109.503 20.038 109.503 18.497V10.7912C109.512 9.69971 109.13 8.18468 106.839 8.18468C104.572 8.18468 104.176 9.88529 104.176 10.7912V20.4224Z" fill="black"/>
<path d="M56.2892 15.7805H59.995C59.995 15.7805 58.9892 20.6834 53.3909 20.6834C47.7938 20.6834 46.4159 16.192 46.4159 13.2401C46.4159 10.2889 46.94 5.24682 53.1734 5.0702C58.933 4.98368 59.8824 9.9738 59.8824 9.9738H55.9361C55.9361 9.9738 55.5543 8.2872 53.2051 8.34005C50.8568 8.39351 50.2426 10.5991 50.2426 12.695C50.2426 14.7916 50.7645 17.4144 53.3725 17.4144C55.8518 17.4902 56.0706 16.1491 56.2892 15.7805Z" fill="black"/>
<path d="M76.8492 5.40381H80.7949V14.9866C80.7949 14.9866 80.6529 17.5784 83.3888 17.5797C85.9686 17.5812 86.0346 15.2609 86.0368 15.0971V7.26346C86.0368 7.26346 86.1697 5.40393 87.8803 5.40393H89.9284C89.9284 5.40393 89.9262 14.2194 89.9284 14.3037C89.9001 14.789 90.4445 20.6843 83.3888 20.6604C76.3984 20.6604 76.8936 14.6963 76.8492 14.3453V5.40381Z" fill="black"/>
<path d="M64.7768 9.4139H67.0942L67.092 5.4633H64.7815V2.92583C64.7815 2.2302 64.3941 1.00928 62.9211 1.00928H60.8921V17.5838C60.8921 19.3119 61.5625 20.3458 63.014 20.3458C63.0304 20.3458 64.7162 20.3471 64.7774 20.3471L64.7768 9.4139Z" fill="black"/>
<path d="M71.2241 20.3746V12.6514C71.2241 11.5247 71.4858 10.6976 72.0134 10.1714C72.5388 9.6454 73.3462 9.38165 74.437 9.38165H75.7325V5.37967C75.7325 5.37967 73.6917 5.32903 72.2096 5.77419C71.2581 6.06043 70.4154 6.45077 69.7023 7.01342C68.9483 7.6154 68.3577 8.4144 67.9258 9.40967C67.4939 10.4056 67.2781 11.6363 67.2781 13.1021V20.3744H71.2241V20.3746Z" fill="black"/>
</svg>
