<svg width="71" height="17" viewBox="0 0 71 17" fill="none" xmlns="http://www.w3.org/2000/svg">
<g clip-path="url(#clip0_427_30935)">
<path d="M68.6072 0.917969L64.7892 9.0857L63.3535 5.99089H61.8008L64.1618 11.0532H65.4167L70.1493 0.917969H68.6072Z" fill="#D52B1E"/>
<path d="M52.2294 16.0838H55.303V10.4579C55.303 9.17102 56.0474 8.26704 57.1535 8.26704C58.217 8.26704 58.77 9.01149 58.77 10.0856V16.0838H61.8435V9.50071C61.8435 7.26734 60.5035 5.69335 58.3339 5.69335C56.9514 5.69335 55.9836 6.28892 55.2604 7.3737H55.1966V5.99114H52.2188L52.2294 16.0838ZM46.1887 5.71462C42.9769 5.71462 40.8286 8.02243 40.8286 11.0641C40.8286 14.0844 42.9769 16.4135 46.1887 16.4135C49.4005 16.4135 51.5488 14.0844 51.5488 11.0641C51.5594 8.02243 49.4005 5.71462 46.1887 5.71462ZM46.1674 14.1376C44.7104 14.1376 43.9341 12.9146 43.9341 11.0641C43.9341 9.19229 44.6998 7.99053 46.1674 7.99053C47.6244 7.99053 48.4327 9.19229 48.4327 11.0641C48.4433 12.9146 47.6351 14.1376 46.1674 14.1376ZM32.0653 16.0838H40.701V13.659H35.8089V13.5952L40.4883 8.35212V5.9805H32.0653V8.41593H36.7979V8.47974L32.0653 13.7654V16.0838ZM28.1197 16.0838H31.2145V5.99114H28.1197V16.0838ZM20.9411 16.0838H24.0252V11.4469C24.0252 9.34118 25.2908 8.4053 27.2157 8.67117H27.2796V6.01241C27.12 5.9486 26.9392 5.93796 26.6521 5.93796C25.4503 5.93796 24.6421 6.49098 23.9508 7.67148H23.887V5.99114H20.9411V16.0838ZM15.2832 14.1482C13.9219 14.1482 13.0924 13.2655 12.9329 11.9042H20.2072C20.2285 9.73468 19.6542 8.00116 18.4525 6.91639C17.6017 6.12939 16.485 5.69335 15.0599 5.69335C12.0182 5.69335 9.9125 8.00116 9.9125 11.0215C9.9125 14.0632 11.9225 16.3816 15.2619 16.3816C16.5275 16.3816 17.5272 16.0413 18.3567 15.4776C19.2394 14.8714 19.8776 13.9781 20.0477 13.0954H17.0912C16.804 13.7547 16.1872 14.1482 15.2832 14.1482ZM15.1237 7.89481C16.2085 7.89481 16.9529 8.70308 17.0805 9.88357H12.9541C13.1987 8.69244 13.8475 7.89481 15.1237 7.89481ZM3.76543 16.0838H6.99849L10.5081 5.99114H7.41326L5.44577 12.4785H5.40323L3.43574 5.99114H0.255859L3.76543 16.0838ZM28.1197 2.39648H31.2145V5.14033H28.1197V2.39648Z" fill="black"/>
</g>
<defs>
<clipPath id="clip0_427_30935">
<rect width="70" height="15.5272" fill="white" transform="translate(0.149414 0.917969)"/>
</clipPath>
</defs>
</svg>
