<?xml version="1.0" encoding="utf-8"?>
<!-- Generator: Adobe Illustrator 26.3.1, SVG Export Plug-In . SVG Version: 6.00 Build 0)  -->
<svg version="1.1" id="Layer_1" xmlns="http://www.w3.org/2000/svg" xmlns:xlink="http://www.w3.org/1999/xlink" x="0px" y="0px"
	 viewBox="0 0 294.4 405.7" style="enable-background:new 0 0 294.4 405.7;" xml:space="preserve">
<style type="text/css">
	.st0{fill:#F5F5F5;stroke:#CCCCCC;stroke-width:1.5;}
	.st1{fill:#F5F5F5;stroke:#CCCCCC;stroke-width:1.5;stroke-linejoin:round;}
	.st2{fill:#FFFFFF;stroke:#CCCCCC;stroke-width:1.5;stroke-linejoin:round;}
	.st3{fill:none;stroke:#CCCCCC;stroke-width:1.5;}
	.st4{fill:none;stroke:#CCCCCC;stroke-width:1.5;stroke-linecap:round;stroke-linejoin:round;}
	.st5{fill:none;stroke:#CCCCCC;stroke-width:1.5;stroke-linecap:round;stroke-linejoin:round;stroke-dasharray:2,3,10,3,2,10;}
	.st6{fill:#DFD1C4;}
	.st7{fill:none;stroke:#28293C;stroke-width:2;stroke-linecap:round;stroke-linejoin:round;}
	.st8{fill:#ECE4DD;}
	.st9{fill:#28293C;}
	.st10{fill:#FF827A;stroke:#28293C;stroke-width:2;stroke-linecap:round;stroke-linejoin:round;}
	.st11{fill:#FFD5D3;stroke:#28293C;stroke-width:2;stroke-linecap:round;stroke-linejoin:round;}
	.st12{fill:#28293C;stroke:#28293C;stroke-width:2;stroke-linecap:round;stroke-linejoin:round;}
	.st13{fill:#FFFFFF;stroke:#28293C;stroke-width:2;stroke-linecap:round;stroke-linejoin:round;}
	.st14{fill:#FFFFFF;}
</style>
<rect x="12.5" y="20.8" class="st0" width="231.2" height="321"/>
<path class="st1" d="M220,52.1h-43.3V108H220V52.1z"/>
<rect x="181.5" y="56.7" class="st2" width="33.7" height="46.6"/>
<path class="st1" d="M222.8,115.4h-49c-1.1,0-2-0.9-2-2V110c0-1.1,0.9-2,2-2h49c1.1,0,2,0.9,2,2v3.5
	C224.8,114.5,223.9,115.4,222.8,115.4z"/>
<path class="st1" d="M223,52.1h-49.3c-1,0-1.9-0.8-1.9-1.9l0,0c0-1,0.8-1.9,1.9-1.9H223c1,0,1.9,0.8,1.9,1.9l0,0
	C224.8,51.3,224,52.1,223,52.1z"/>
<line class="st3" x1="215.1" y1="79.3" x2="181.5" y2="79.3"/>
<path class="st1" d="M147.5,52.1h-43.3V108h43.3V52.1z"/>
<rect x="109" y="56.7" class="st2" width="33.7" height="46.6"/>
<path class="st1" d="M150.4,115.4h-49c-1.1,0-2-0.9-2-2V110c0-1.1,0.9-2,2-2h49c1.1,0,2,0.9,2,2v3.5
	C152.4,114.5,151.5,115.4,150.4,115.4z"/>
<path class="st1" d="M150.5,52.1h-49.3c-1,0-1.9-0.8-1.9-1.9l0,0c0-1,0.8-1.9,1.9-1.9h49.3c1,0,1.9,0.8,1.9,1.9l0,0
	C152.4,51.3,151.5,52.1,150.5,52.1z"/>
<line class="st3" x1="142.7" y1="79.3" x2="109" y2="79.3"/>
<path class="st1" d="M75.1,52.1H31.8V108h43.3V52.1z"/>
<rect x="36.6" y="56.7" class="st2" width="33.7" height="46.6"/>
<path class="st1" d="M77.9,115.4h-49c-1.1,0-2-0.9-2-2V110c0-1.1,0.9-2,2-2h49c1.1,0,2,0.9,2,2v3.5C79.9,114.5,79,115.4,77.9,115.4z
	"/>
<path class="st1" d="M78.1,52.1H28.8c-1,0-1.9-0.8-1.9-1.9l0,0c0-1,0.8-1.9,1.9-1.9h49.3c1,0,1.9,0.8,1.9,1.9l0,0
	C79.9,51.3,79.1,52.1,78.1,52.1z"/>
<line class="st3" x1="70.3" y1="79.3" x2="36.6" y2="79.3"/>
<path class="st1" d="M85.1,330.7H21.7c-1.1,0-2,0.9-2,2v7.2c0,1.1,0.9,2,2,2h63.4c1.1,0,2-0.9,2-2v-7.2
	C87.1,331.6,86.2,330.7,85.1,330.7z"/>
<path class="st1" d="M80.3,319.5H26.5c-1.1,0-2,0.9-2,2v7.2c0,1.1,0.9,2,2,2h53.7c1.1,0,2-0.9,2-2v-7.2
	C82.3,320.4,81.4,319.5,80.3,319.5z"/>
<rect x="29.4" y="233" class="st1" width="48.1" height="86.5"/>
<path class="st2" d="M68.3,242.2H38.6c-1.1,0-2,0.9-2,2V305c0,1.1,0.9,2,2,2h29.7c1.1,0,2-0.9,2-2v-60.8
	C70.3,243.1,69.4,242.2,68.3,242.2z"/>
<path class="st4" d="M48.6,253.6l-7.4,5.6"/>
<path class="st5" d="M61.9,248.9L40,265.2"/>
<path class="st1" d="M251,5.7c0-2.8-2.2-5-5-5H5.8c-2.8,0-5,2.2-5,5v15.1H251V5.7z"/>
<path class="st0" d="M251,20.8h-4.8v4.7h0.2C248.9,25.5,251,23.4,251,20.8L251,20.8z"/>
<rect x="188.4" y="20.8" class="st0" width="4.8" height="4.7"/>
<rect x="226.9" y="20.8" class="st0" width="4.8" height="4.7"/>
<rect x="169.2" y="20.8" class="st0" width="4.8" height="4.7"/>
<rect x="207.7" y="20.8" class="st0" width="4.8" height="4.7"/>
<rect x="149.9" y="20.8" class="st0" width="4.8" height="4.7"/>
<rect x="236.5" y="20.8" class="st0" width="4.8" height="4.7"/>
<rect x="178.8" y="20.8" class="st0" width="4.8" height="4.7"/>
<rect x="217.3" y="20.8" class="st0" width="4.8" height="4.7"/>
<rect x="159.5" y="20.8" class="st0" width="4.8" height="4.7"/>
<rect x="198" y="20.8" class="st0" width="4.8" height="4.7"/>
<rect x="140.3" y="20.8" class="st0" width="4.8" height="4.7"/>
<rect x="125.9" y="20.8" class="st0" width="4.8" height="4.7"/>
<rect x="241.3" y="20.8" class="st0" width="4.8" height="4.7"/>
<rect x="183.6" y="20.8" class="st0" width="4.8" height="4.7"/>
<rect x="222.1" y="20.8" class="st0" width="4.8" height="4.7"/>
<rect x="164.4" y="20.8" class="st0" width="4.8" height="4.7"/>
<rect x="202.8" y="20.8" class="st0" width="4.8" height="4.7"/>
<rect x="145.1" y="20.8" class="st0" width="4.8" height="4.7"/>
<rect x="130.7" y="20.8" class="st0" width="4.8" height="4.7"/>
<rect x="231.7" y="20.8" class="st0" width="4.8" height="4.7"/>
<rect x="174" y="20.8" class="st0" width="4.8" height="4.7"/>
<rect x="212.5" y="20.8" class="st0" width="4.8" height="4.7"/>
<rect x="154.7" y="20.8" class="st0" width="4.8" height="4.7"/>
<rect x="193.2" y="20.8" class="st0" width="4.8" height="4.7"/>
<rect x="135.5" y="20.8" class="st0" width="4.8" height="4.7"/>
<rect x="121" y="20.8" class="st1" width="4.8" height="4.7"/>
<rect x="63.3" y="20.8" class="st1" width="4.8" height="4.7"/>
<rect x="101.8" y="20.8" class="st1" width="4.8" height="4.7"/>
<rect x="44.1" y="20.8" class="st1" width="4.8" height="4.7"/>
<rect x="82.6" y="20.8" class="st1" width="4.8" height="4.7"/>
<rect x="24.8" y="20.8" class="st1" width="4.8" height="4.7"/>
<rect x="111.4" y="20.8" class="st1" width="4.8" height="4.7"/>
<rect x="53.7" y="20.8" class="st1" width="4.8" height="4.7"/>
<rect x="92.2" y="20.8" class="st1" width="4.8" height="4.7"/>
<rect x="34.4" y="20.8" class="st1" width="4.8" height="4.7"/>
<rect x="72.9" y="20.8" class="st1" width="4.8" height="4.7"/>
<rect x="15.2" y="20.8" class="st1" width="4.8" height="4.7"/>
<path class="st1" d="M5.6,20.8H0.8l0,0c0,2.6,2.1,4.7,4.7,4.7h0.2V20.8z"/>
<rect x="116.2" y="20.8" class="st1" width="4.8" height="4.7"/>
<rect x="58.5" y="20.8" class="st1" width="4.8" height="4.7"/>
<rect x="97" y="20.8" class="st1" width="4.8" height="4.7"/>
<rect x="39.2" y="20.8" class="st1" width="4.8" height="4.7"/>
<rect x="77.7" y="20.8" class="st1" width="4.8" height="4.7"/>
<rect x="20" y="20.8" class="st1" width="4.8" height="4.7"/>
<rect x="5.6" y="20.8" class="st1" width="4.8" height="4.7"/>
<rect x="106.6" y="20.8" class="st1" width="4.8" height="4.7"/>
<rect x="48.9" y="20.8" class="st1" width="4.8" height="4.7"/>
<rect x="87.4" y="20.8" class="st1" width="4.8" height="4.7"/>
<rect x="29.6" y="20.8" class="st1" width="4.8" height="4.7"/>
<rect x="68.1" y="20.8" class="st1" width="4.8" height="4.7"/>
<rect x="10.4" y="20.8" class="st1" width="4.8" height="4.7"/>
<path class="st0" d="M72.7,276.2c0,0.6,0.5,1.1,1.2,1.1s1.2-0.5,1.2-1.1s-0.5-1.1-1.2-1.1S72.7,275.6,72.7,276.2z"/>
<path class="st1" d="M220,142h-43.3v55.9H220V142z"/>
<rect x="181.5" y="146.7" class="st2" width="33.7" height="46.6"/>
<path class="st1" d="M222.8,205.4h-49c-1.1,0-2-0.9-2-2v-3.5c0-1.1,0.9-2,2-2h49c1.1,0,2,0.9,2,2v3.5
	C224.8,204.5,223.9,205.4,222.8,205.4z"/>
<path class="st1" d="M223,142h-49.3c-1,0-1.9-0.8-1.9-1.9l0,0c0-1,0.8-1.9,1.9-1.9H223c1,0,1.9,0.8,1.9,1.9l0,0
	C224.8,141.2,224,142,223,142z"/>
<line class="st3" x1="215.1" y1="169.2" x2="181.5" y2="169.2"/>
<path class="st1" d="M220,232.6h-43.3v55.9H220V232.6z"/>
<rect x="181.5" y="237.3" class="st2" width="33.7" height="46.6"/>
<path class="st1" d="M222.8,296h-49c-1.1,0-2-0.9-2-2v-3.5c0-1.1,0.9-2,2-2h49c1.1,0,2,0.9,2,2v3.5C224.8,295.1,223.9,296,222.8,296
	z"/>
<path class="st1" d="M223,232.6h-49.3c-1,0-1.9-0.8-1.9-1.9l0,0c0-1,0.8-1.9,1.9-1.9H223c1,0,1.9,0.8,1.9,1.9l0,0
	C224.8,231.8,224,232.6,223,232.6z"/>
<line class="st3" x1="215.1" y1="259.8" x2="181.5" y2="259.8"/>
<path class="st1" d="M147.5,142h-43.3v55.9h43.3V142z"/>
<rect x="109" y="146.7" class="st2" width="33.7" height="46.6"/>
<path class="st1" d="M150.4,205.4h-49c-1.1,0-2-0.9-2-2v-3.5c0-1.1,0.9-2,2-2h49c1.1,0,2,0.9,2,2v3.5
	C152.4,204.5,151.5,205.4,150.4,205.4z"/>
<path class="st1" d="M150.5,142h-49.3c-1,0-1.9-0.8-1.9-1.9l0,0c0-1,0.8-1.9,1.9-1.9h49.3c1,0,1.9,0.8,1.9,1.9l0,0
	C152.4,141.2,151.5,142,150.5,142z"/>
<line class="st3" x1="142.7" y1="169.2" x2="109" y2="169.2"/>
<path class="st1" d="M147.5,232.6h-43.3v55.9h43.3V232.6z"/>
<rect x="109" y="237.3" class="st2" width="33.7" height="46.6"/>
<path class="st1" d="M150.4,296h-49c-1.1,0-2-0.9-2-2v-3.5c0-1.1,0.9-2,2-2h49c1.1,0,2,0.9,2,2v3.5C152.4,295.1,151.5,296,150.4,296
	z"/>
<path class="st1" d="M150.5,232.6h-49.3c-1,0-1.9-0.8-1.9-1.9l0,0c0-1,0.8-1.9,1.9-1.9h49.3c1,0,1.9,0.8,1.9,1.9l0,0
	C152.4,231.8,151.5,232.6,150.5,232.6z"/>
<line class="st3" x1="142.7" y1="259.8" x2="109" y2="259.8"/>
<path class="st1" d="M80.4,232.6h-54c-1,0-1.9-0.8-1.9-1.9l0,0c0-1,0.8-1.9,1.9-1.9h54c1,0,1.9,0.8,1.9,1.9l0,0
	C82.3,231.8,81.4,232.6,80.4,232.6z"/>
<path class="st1" d="M75.1,142H31.8v55.9h43.3V142z"/>
<rect x="36.6" y="146.7" class="st2" width="33.7" height="46.6"/>
<path class="st1" d="M77.9,205.4h-49c-1.1,0-2-0.9-2-2v-3.5c0-1.1,0.9-2,2-2h49c1.1,0,2,0.9,2,2v3.5C79.9,204.5,79,205.4,77.9,205.4
	z"/>
<path class="st1" d="M78.1,142H28.8c-1,0-1.9-0.8-1.9-1.9l0,0c0-1,0.8-1.9,1.9-1.9h49.3c1,0,1.9,0.8,1.9,1.9l0,0
	C79.9,141.2,79.1,142,78.1,142z"/>
<line class="st3" x1="70.3" y1="169.2" x2="36.6" y2="169.2"/>
<path class="st6" d="M169.7,291.6l56.1,10.3c3.7,0.7,6.2,4.4,5.5,8.2l-9.2,54c-0.7,3.9-4.2,6.4-7.9,5.8l-56.1-10.3
	c-3.7-0.7-6.2-4.4-5.5-8.2l9.2-54C162.4,293.5,166,290.9,169.7,291.6z"/>
<path class="st7" d="M169.7,291.6l56.1,10.3c3.7,0.7,6.2,4.4,5.5,8.2l-9.2,54c-0.7,3.9-4.2,6.4-7.9,5.8l-56.1-10.3
	c-3.7-0.7-6.2-4.4-5.5-8.2l9.2-54C162.4,293.5,166,290.9,169.7,291.6z"/>
<path class="st8" d="M185.2,234.2l44.8,8.2c3.7,0.7,6.2,4.4,5.5,8.2l-7.5,44.1c-0.7,3.9-4.2,6.4-7.9,5.8l-44.8-8.2
	c-3.7-0.7-6.2-4.4-5.5-8.2l7.5-44.1C178,236.1,181.5,233.5,185.2,234.2z"/>
<path class="st7" d="M185.2,234.2l44.8,8.2c3.7,0.7,6.2,4.4,5.5,8.2l-7.5,44.1c-0.7,3.9-4.2,6.4-7.9,5.8l-44.8-8.2
	c-3.7-0.7-6.2-4.4-5.5-8.2l7.5-44.1C178,236.1,181.5,233.5,185.2,234.2z"/>
<path class="st9" d="M198.9,268.3l3.6-2c0.3-0.2,0.7-0.1,0.9,0.2l2.7,3.1c0.3,0.3,0.2,0.8-0.1,1.1c-0.1,0.1-0.3,0.2-0.5,0.2
	c-0.2,0-0.4-0.1-0.5-0.2l-1.7-2l-1,5.8c-0.1,0.4-0.4,0.6-0.7,0.6c0,0-0.1,0-0.1,0c-0.4-0.1-0.6-0.5-0.6-0.9l1-5.8l-2.3,1.3
	c-0.3,0.2-0.8,0.1-1-0.3C198.5,268.9,198.6,268.5,198.9,268.3L198.9,268.3z"/>
<path class="st9" d="M206.4,279.2c0.3,0,0.6-0.3,0.7-0.6c0.1-0.4-0.2-0.8-0.6-0.9l-10.6-2c-0.4-0.1-0.8,0.2-0.8,0.6
	c-0.1,0.4,0.2,0.8,0.6,0.9l10.6,2C206.3,279.2,206.3,279.2,206.4,279.2z"/>
<path class="st9" d="M188,329.2l3.6-2c0.3-0.2,0.7-0.1,0.9,0.2l2.7,3.1c0.3,0.3,0.2,0.8-0.1,1.1c-0.1,0.1-0.3,0.2-0.5,0.2
	c-0.2,0-0.4-0.1-0.5-0.2l-1.7-2l-1,5.8c-0.1,0.4-0.4,0.6-0.7,0.6c0,0-0.1,0-0.1,0c-0.4-0.1-0.6-0.5-0.6-0.9l1-5.8l-2.3,1.3
	c-0.3,0.2-0.8,0.1-1-0.3C187.5,329.8,187.7,329.4,188,329.2L188,329.2z"/>
<path class="st9" d="M195.4,340.1c0.3,0,0.6-0.3,0.7-0.6c0.1-0.4-0.2-0.8-0.6-0.9l-10.6-2c-0.4-0.1-0.8,0.2-0.8,0.6
	c-0.1,0.4,0.2,0.8,0.6,0.9l10.6,2C195.4,340.1,195.4,340.1,195.4,340.1L195.4,340.1z"/>
<path class="st10" d="M149.8,367.8l82.3,15.1c2.5,0.5,4.9-1.3,5.4-3.9l20-118c0.8-4.8,4.5-8.4,9.1-9.1l18.1-2.6
	c2.5-0.4,4.3-2.8,3.9-5.4c-0.4-2.6-2.7-4.5-5.2-4.1l-18.1,2.6c-8.6,1.3-15.4,8.1-16.9,17l-19.2,113.2l-77.7-14.3
	c-2.5-0.5-4.9,1.3-5.4,3.9C145.6,364.8,147.3,367.3,149.8,367.8L149.8,367.8z"/>
<path class="st11" d="M266.9,253.5l21.3-3.6c3.4-0.6,5.6-3.9,5.1-7.4c-0.5-3.5-3.7-5.9-7.1-5.3l-21.3,3.6L266.9,253.5L266.9,253.5z"
	/>
<path class="st12" d="M227.4,404.1c-13.8-3.2-22.5-17.4-19.4-31.7c3.1-14.3,16.7-23.4,30.5-20.2c13.8,3.2,22.5,17.4,19.4,31.7
	C254.8,398.2,241.2,407.3,227.4,404.1z"/>
<path class="st13" d="M234.7,367.6c5.6,1,9.4,6.6,8.4,12.4c-1,5.8-6.3,9.7-12,8.7c-5.6-1-9.4-6.6-8.4-12.4
	C223.8,370.4,229.1,366.6,234.7,367.6z"/>
<path class="st14" d="M192.3,296.5l10.9,2l-2.6,15.3l0,0c0,0,0,0,0,0l-1.9,1.4c-0.1,0.1-0.4,0.1-0.5-0.1l-1.3-1.9c0,0,0,0,0,0
	l-0.1,0c0,0,0,0,0,0l-1.9,1.4c-0.1,0.1-0.4,0.1-0.5-0.1l-1.3-1.9c0,0,0,0,0,0l-0.1,0c0,0,0,0,0,0l-1.9,1.4c-0.1,0.1-0.4,0.1-0.5-0.1
	l-1.3-1.9c0,0,0,0,0,0l0,0L192.3,296.5L192.3,296.5z"/>
<path class="st14" d="M202.9,238.3l10.9,2l-2.6,15.3l0,0c0,0,0,0,0,0l-1.9,1.4c-0.1,0.1-0.4,0.1-0.5-0.1l-1.3-1.9c0,0,0,0,0,0
	l-0.1,0c0,0,0,0,0,0l-1.9,1.4c-0.1,0.1-0.4,0.1-0.5-0.1l-1.3-1.9c0,0,0,0,0,0l-0.1,0c0,0,0,0,0,0l-1.9,1.4c-0.1,0.1-0.4,0.1-0.5-0.1
	l-1.3-1.9c0,0,0,0,0,0l0,0L202.9,238.3L202.9,238.3z"/>
</svg>
