<svg width="61" height="20" viewBox="0 0 61 20" fill="none" xmlns="http://www.w3.org/2000/svg">
<g clip-path="url(#clip0_427_31322)">
<path d="M7.31451 9.80373L11.1488 4.36105H8.33717L5.96607 7.83134L3.59695 4.36105H0.782411L4.61362 9.80373L0.513672 15.6363H3.32719L5.96601 11.7742L11.4485 19.6104H14.1475L7.31451 9.80373ZM60.4868 4.36105H57.8401L53.9062 11.5451L51.2148 4.36105H48.6722L52.4518 14.1917L49.5277 19.6103H52.1171L60.4868 4.36105ZM13.5547 4.36105H12.3973L11.0567 6.27803H13.5547V15.6362H16.0073V6.27803H18.5094V4.36105H16.0073V3.26966C16.0073 2.44491 16.3517 2.10924 17.1842 2.10924C17.6625 2.10924 18.1583 2.20333 18.5094 2.29851V0.324194C18.0069 0.143735 17.3093 0.0263672 16.5526 0.0263672C14.6744 0.0263672 13.5548 1.25552 13.5548 3.30546L13.5547 4.36105V4.36105ZM43.077 6.27809V12.5803C43.077 14.6372 44.1947 15.8557 46.0691 15.8557C46.6911 15.8557 47.3092 15.781 47.7766 15.6363L48.0726 13.6796C47.9319 13.7145 47.4188 13.8377 46.9646 13.8377C45.944 13.8377 45.524 13.4283 45.524 12.4126V6.27809H48.3433L47.6108 4.36111H45.524V0.28929L43.077 1.53403V4.36111H41.2918V6.27809H43.077ZM30.4717 4.13597C29.3181 4.13597 28.2179 4.62013 27.6474 5.37879V4.36111H25.1949V15.6363H27.6475V9.05569C27.6475 7.22789 28.4372 6.21794 29.8751 6.21794C31.436 6.21794 32.1026 7.13187 32.1026 9.26907V15.6363H34.5494V9.18379C34.5493 5.87945 33.1436 4.13597 30.4717 4.13597V4.13597ZM22.5744 15.0029V4.36105H20.1218V15.6363H22.5744V15.0029ZM39.5205 15.0029V4.36105H37.0571V15.6363H39.5204V15.0029H39.5205ZM58.4145 14.9194C58.5892 14.9194 58.6911 14.8341 58.6911 14.7011V14.6945C58.6911 14.5528 58.5892 14.476 58.4145 14.476H58.0653V14.9194H58.4145ZM57.7986 14.2345H58.4253C58.6105 14.2345 58.756 14.2907 58.8532 14.3868C58.9259 14.4567 58.9666 14.5566 58.9666 14.6789V14.6866C58.9666 14.9127 58.8337 15.0543 58.6397 15.1095L59.0181 15.6394H58.6989L58.3585 15.1552H58.0653V15.6394H57.7987L57.7986 14.2345V14.2345ZM59.5419 14.9756V14.9671C59.5419 14.3033 59.0258 13.766 58.3428 13.766C57.6568 13.766 57.1387 14.3111 57.1387 14.9756V14.9827C57.1387 15.648 57.6529 16.1845 58.335 16.1845C59.0228 16.1845 59.5419 15.6394 59.5419 14.9756ZM56.997 14.9827V14.9756C56.997 14.2462 57.5909 13.6329 58.3428 13.6329C59.0964 13.6329 59.6825 14.2385 59.6825 14.9671V14.9756C59.6825 15.7054 59.0889 16.3184 58.335 16.3184C57.583 16.3184 56.997 15.7132 56.997 14.9827" fill="#D71920"/>
</g>
<defs>
<clipPath id="clip0_427_31322">
<rect width="60" height="19.584" fill="white" transform="translate(0.5 0.0263672)"/>
</clipPath>
</defs>
</svg>
