<svg width="40" height="40" viewBox="0 0 40 40" fill="none" xmlns="http://www.w3.org/2000/svg">
<rect width="40" height="40" rx="8" fill="#F5F5F5"/>
<path d="M19.503 10.4282L11.9374 11.9375L10.428 19.5032C10.4044 19.624 10.4108 19.7487 10.4468 19.8664C10.4828 19.9842 10.5472 20.0912 10.6343 20.1782L20.4218 29.9657C20.4908 30.0362 20.5732 30.0923 20.6641 30.1306C20.7551 30.1689 20.8528 30.1886 20.9515 30.1886C21.0502 30.1886 21.1479 30.1689 21.2388 30.1306C21.3298 30.0923 21.4122 30.0362 21.4812 29.9657L29.9655 21.4813C30.0361 21.4123 30.0922 21.3299 30.1305 21.239C30.1688 21.148 30.1885 21.0503 30.1885 20.9516C30.1885 20.8529 30.1688 20.7552 30.1305 20.6642C30.0922 20.5733 30.0361 20.4909 29.9655 20.4219L20.178 10.6344C20.0911 10.5473 19.984 10.4829 19.8663 10.4469C19.7486 10.411 19.6238 10.4045 19.503 10.4282V10.4282Z" stroke="#28293C" stroke-width="1.5" stroke-linecap="round" stroke-linejoin="round"/>
<path d="M15.875 16.8125C16.3928 16.8125 16.8125 16.3928 16.8125 15.875C16.8125 15.3572 16.3928 14.9375 15.875 14.9375C15.3572 14.9375 14.9375 15.3572 14.9375 15.875C14.9375 16.3928 15.3572 16.8125 15.875 16.8125Z" fill="#28293C"/>
</svg>
