<svg width="40" height="40" viewBox="0 0 40 40" fill="none" xmlns="http://www.w3.org/2000/svg">
<rect width="40" height="40" rx="8" fill="#3957E1"/>
<path d="M17.4013 20.5154C16.8232 19.0733 16.7607 17.4758 17.2244 15.993C17.6881 14.5101 18.6496 13.2328 19.9463 12.377C21.243 11.5212 22.7955 11.1394 24.3412 11.2961C25.887 11.4528 27.3312 12.1384 28.4298 13.237C29.5284 14.3356 30.214 15.7799 30.3707 17.3256C30.5274 18.8714 30.1456 20.4238 29.2898 21.7205C28.434 23.0173 27.1567 23.9787 25.6738 24.4424C24.191 24.9062 22.5935 24.8436 21.1514 24.2655L21.1515 24.2653L19.917 25.4998H17.667V27.7498H15.417V29.9998H11.667V26.2498L17.4015 20.5153L17.4013 20.5154Z" fill="#3957E1" stroke="white" stroke-width="1.5" stroke-linecap="round" stroke-linejoin="round"/>
<path d="M25.5417 16.5C25.7489 16.5 25.9167 16.3321 25.9167 16.125C25.9167 15.9179 25.7489 15.75 25.5417 15.75C25.3346 15.75 25.1667 15.9179 25.1667 16.125C25.1667 16.3321 25.3346 16.5 25.5417 16.5Z" stroke="white" stroke-width="1.5" stroke-linecap="round" stroke-linejoin="round"/>
<path d="M25.5417 17.0625C26.0595 17.0625 26.4792 16.6428 26.4792 16.125C26.4792 15.6072 26.0595 15.1875 25.5417 15.1875C25.024 15.1875 24.6042 15.6072 24.6042 16.125C24.6042 16.6428 25.024 17.0625 25.5417 17.0625Z" fill="white"/>
</svg>
