<svg width="28" height="28" viewBox="0 0 28 28" fill="none" xmlns="http://www.w3.org/2000/svg">
<path d="M10.1903 13.4348C9.51578 11.7524 9.44286 9.88866 9.98385 8.15866C10.5248 6.42866 11.6466 4.93851 13.1594 3.94008C14.6723 2.94166 16.4835 2.4962 18.2868 2.67902C20.0902 2.86183 21.7751 3.66169 23.0569 4.9434C24.3386 6.22512 25.1384 7.91006 25.3212 9.71344C25.504 11.5168 25.0586 13.328 24.0602 14.8408C23.0617 16.3537 21.5716 17.4754 19.8416 18.0164C18.1116 18.5574 16.2478 18.4845 14.5654 17.8099L14.5655 17.8098L13.1252 19.25H10.5002V21.875H7.87524V24.5H3.50024V20.125L10.1905 13.4347L10.1903 13.4348Z" stroke="#3957E1" stroke-linecap="round" stroke-linejoin="round"/>
<path opacity="0.5" d="M19.6875 8.75C19.9291 8.75 20.125 8.55412 20.125 8.3125C20.125 8.07088 19.9291 7.875 19.6875 7.875C19.4459 7.875 19.25 8.07088 19.25 8.3125C19.25 8.55412 19.4459 8.75 19.6875 8.75Z" stroke="#3957E1" stroke-linecap="round" stroke-linejoin="round"/>
<path d="M19.6875 9.1875C20.1707 9.1875 20.5625 8.79575 20.5625 8.3125C20.5625 7.82925 20.1707 7.4375 19.6875 7.4375C19.2043 7.4375 18.8125 7.82925 18.8125 8.3125C18.8125 8.79575 19.2043 9.1875 19.6875 9.1875Z" fill="#3957E1"/>
</svg>
