<svg width="24" height="24" viewBox="0 0 24 24" fill="none" xmlns="http://www.w3.org/2000/svg">
<path d="M12.4825 18.8614L17.9988 22.3563C18.704 22.8031 19.5794 22.1386 19.3702 21.3155L17.7764 15.0459C17.7315 14.8713 17.7368 14.6875 17.7917 14.5158C17.8466 14.3441 17.9489 14.1913 18.0868 14.0751L23.0335 9.95785C23.6835 9.41686 23.348 8.33814 22.5129 8.28395L16.0528 7.86468C15.8788 7.85225 15.7119 7.79064 15.5716 7.68704C15.4312 7.58343 15.3232 7.44208 15.2601 7.27946L12.8507 1.2121C12.7852 1.03949 12.6688 0.890886 12.5168 0.786023C12.3649 0.68116 12.1846 0.625 12 0.625C11.8154 0.625 11.6351 0.68116 11.4832 0.786023C11.3312 0.890886 11.2148 1.03949 11.1493 1.2121L8.73995 7.27946C8.67683 7.44208 8.5688 7.58343 8.42845 7.68704C8.28811 7.79064 8.12122 7.85225 7.94721 7.86468L1.4871 8.28395C0.652011 8.33814 0.31653 9.41686 0.96651 9.95785L5.91325 14.0751C6.0511 14.1913 6.15336 14.3441 6.20827 14.5158C6.26317 14.6875 6.26849 14.8713 6.2236 15.0459L4.74553 20.8603C4.49444 21.848 5.54501 22.6453 6.39117 22.1092L11.5175 18.8614C11.6617 18.7696 11.8291 18.7208 12 18.7208C12.1709 18.7208 12.3383 18.7696 12.4825 18.8614V18.8614Z" fill="#B1D0FC" stroke="#3957E1" stroke-linecap="round" stroke-linejoin="round"/>
</svg>
