<svg width="40" height="40" viewBox="0 0 40 40" fill="none" xmlns="http://www.w3.org/2000/svg">
<rect width="40" height="40" rx="8" fill="#F5F5F5"/>
<path d="M20.4135 25.8812L25.1419 28.8769C25.7463 29.2598 26.4967 28.6903 26.3173 27.9848L24.9512 22.6108C24.9127 22.4611 24.9173 22.3036 24.9643 22.1564C25.0114 22.0092 25.0991 21.8783 25.2172 21.7787L29.4573 18.2496C30.0144 17.7859 29.7268 16.8613 29.0111 16.8148L23.4738 16.4554C23.3247 16.4448 23.1816 16.392 23.0613 16.3032C22.941 16.2144 22.8484 16.0932 22.7943 15.9538L20.7292 10.7532C20.673 10.6053 20.5732 10.4779 20.443 10.388C20.3127 10.2981 20.1582 10.25 20 10.25C19.8418 10.25 19.6873 10.2981 19.557 10.388C19.4268 10.4779 19.327 10.6053 19.2708 10.7532L17.2057 15.9538C17.1516 16.0932 17.059 16.2144 16.9387 16.3032C16.8184 16.392 16.6753 16.4448 16.5262 16.4554L10.9889 16.8148C10.2732 16.8613 9.9856 17.7859 10.5427 18.2496L14.7828 21.7787C14.9009 21.8783 14.9886 22.0092 15.0357 22.1564C15.0827 22.3036 15.0873 22.4611 15.0488 22.6108L13.7819 27.5945C13.5667 28.4412 14.4672 29.1246 15.1924 28.6651L19.5865 25.8812C19.71 25.8025 19.8535 25.7607 20 25.7607C20.1465 25.7607 20.29 25.8025 20.4135 25.8812V25.8812Z" stroke="#28293C" stroke-width="1.5" stroke-linecap="round" stroke-linejoin="round"/>
</svg>
