<svg width="28" height="28" viewBox="0 0 28 28" fill="none" xmlns="http://www.w3.org/2000/svg">
<path fill-rule="evenodd" clip-rule="evenodd" d="M27.3635 11.7921L25.7755 7.88601C25.6742 7.63669 25.4992 7.42297 25.2732 7.27243C25.0472 7.12189 24.7806 7.04143 24.5077 7.04143H20.1171V5.69786C20.1171 5.45051 19.9134 5.25 19.662 5.25H2.3655C2.00335 5.25 2.25608 5.39155 2 5.64352C1.74392 5.89549 1.60005 6.23723 1.60005 6.59357V19.1336C1.60005 19.4899 1.74392 19.8317 2 20.0836C2.25608 20.3356 2.00335 20.4771 2.3655 20.4771H4.21845C4.43931 21.9964 5.76723 23.1643 7.37238 23.1643C8.97752 23.1643 9.77913 21.9964 9.99999 20.4771H17.8736C18.0944 21.9964 19.4223 23.1643 21.0275 23.1643C22.6326 23.1643 23.9605 21.9964 24.1814 20.4771H26.0344C26.3965 20.4771 26.7438 20.3356 26.9999 20.0836C27.256 19.8317 27.3999 19.4899 27.3999 19.1336V11.978C27.4006 11.9467 27.398 11.915 27.3918 11.8835C27.3856 11.8517 27.3761 11.8211 27.3635 11.7921Z" fill="#B1D0FC"/>
<path d="M27.125 12.0625H19.625V7.375H24.6153C24.8026 7.375 24.9857 7.43114 25.1409 7.53619C25.296 7.64123 25.4161 7.79035 25.4857 7.96432L27.125 12.0625Z" stroke="#3957E1" stroke-linecap="round" stroke-linejoin="round"/>
<path d="M27.125 12.0625L25.4857 7.96432C25.4161 7.79035 25.296 7.64123 25.1409 7.53619C24.9857 7.43114 24.8026 7.375 24.6153 7.375H19.625V12.0625" stroke="#3957E1" stroke-linecap="round" stroke-linejoin="round"/>
<path d="M21.0312 23.3125C22.5846 23.3125 23.8438 22.0533 23.8438 20.5C23.8438 18.9467 22.5846 17.6875 21.0312 17.6875C19.4779 17.6875 18.2188 18.9467 18.2188 20.5C18.2188 22.0533 19.4779 23.3125 21.0312 23.3125Z" stroke="#3957E1" stroke-linecap="round" stroke-linejoin="round"/>
<path d="M6.96875 23.3125C8.52205 23.3125 9.78125 22.0533 9.78125 20.5C9.78125 18.9467 8.52205 17.6875 6.96875 17.6875C5.41545 17.6875 4.15625 18.9467 4.15625 20.5C4.15625 22.0533 5.41545 23.3125 6.96875 23.3125Z" stroke="#3957E1" stroke-linecap="round" stroke-linejoin="round"/>
<path d="M18.2188 20.5H9.78125" stroke="#3957E1" stroke-linecap="round" stroke-linejoin="round"/>
<path d="M4.15625 20.5H2.75C2.50136 20.5 2.2629 20.4012 2.08709 20.2254C1.91127 20.0496 1.8125 19.8111 1.8125 19.5625V6.4375C1.8125 6.18886 1.91127 5.9504 2.08709 5.77459C2.2629 5.59877 2.50136 5.5 2.75 5.5H19.625V18.0643" stroke="#3957E1" stroke-linecap="round" stroke-linejoin="round"/>
<path d="M19.625 18.0643V12.0625M27.125 12.0625V19.5625C27.125 19.8111 27.0262 20.0496 26.8504 20.2254C26.6746 20.4012 26.4361 20.5 26.1875 20.5H23.8438" stroke="#3957E1" stroke-linecap="round" stroke-linejoin="round"/>
</svg>
