<svg width="486" height="234" viewBox="0 0 486 234" fill="none" xmlns="http://www.w3.org/2000/svg">
<g clip-path="url(#clip0_1952_24159)">
<path d="M77 133V137" stroke="#28293C" stroke-width="1.5" stroke-linecap="round" stroke-linejoin="round"/>
<path d="M77 157V161" stroke="#28293C" stroke-width="1.5" stroke-linecap="round" stroke-linejoin="round"/>
<path d="M77 171C90.2548 171 101 160.255 101 147C101 133.745 90.2548 123 77 123C63.7452 123 53 133.745 53 147C53 160.255 63.7452 171 77 171Z" stroke="#28293C" stroke-width="1.5" stroke-linecap="round" stroke-linejoin="round"/>
<path d="M71 157H80C81.3261 157 82.5979 156.473 83.5355 155.536C84.4732 154.598 85 153.326 85 152C85 150.674 84.4732 149.402 83.5355 148.464C82.5979 147.527 81.3261 147 80 147H74C72.6739 147 71.4021 146.473 70.4645 145.536C69.5268 144.598 69 143.326 69 142C69 140.674 69.5268 139.402 70.4645 138.464C71.4021 137.527 72.6739 137 74 137H83" stroke="#28293C" stroke-width="1.5" stroke-linecap="round" stroke-linejoin="round"/>
<path d="M232.997 169V143.885C232.997 143.606 232.939 143.331 232.826 143.076C232.713 142.821 232.549 142.593 232.342 142.405L212.341 124.221C211.973 123.887 211.493 123.701 210.996 123.701C210.498 123.701 210.018 123.887 209.65 124.221L189.652 142.405C189.445 142.593 189.281 142.821 189.168 143.076C189.055 143.331 188.997 143.606 188.997 143.885V169" stroke="#28293C" stroke-width="1.5" stroke-linecap="round" stroke-linejoin="round"/>
<path d="M182.997 169H238.997" stroke="#28293C" stroke-width="1.5" stroke-linecap="round" stroke-linejoin="round"/>
<path d="M216.996 168.998V154.998C216.996 154.468 216.785 153.959 216.41 153.584C216.035 153.209 215.526 152.998 214.996 152.998H206.996C206.465 152.998 205.956 153.209 205.581 153.584C205.206 153.959 204.996 154.468 204.996 154.998V168.998" stroke="#28293C" stroke-width="1.5" stroke-linecap="round" stroke-linejoin="round"/>
<path d="M366.345 142.405L346.344 124.221C345.976 123.887 345.496 123.701 344.999 123.701C344.501 123.701 344.021 123.887 343.653 124.221L323.655 142.405C323.448 142.593 323.284 142.821 323.171 143.076C323.058 143.331 323 143.606 323 143.885V167C323 167.531 323.211 168.039 323.586 168.414C323.961 168.79 324.47 169 325 169H365C365.53 169 366.039 168.79 366.414 168.414C366.789 168.039 367 167.531 367 167V143.885C367 143.606 366.942 143.331 366.829 143.076C366.716 142.821 366.552 142.593 366.345 142.405Z" stroke="#28293C" stroke-width="1.5" stroke-linecap="round" stroke-linejoin="round"/>
<path d="M500.997 169V143.885C500.997 143.606 500.939 143.331 500.826 143.076C500.713 142.821 500.549 142.593 500.342 142.405L480.341 124.221C479.973 123.887 479.493 123.701 478.996 123.701C478.498 123.701 478.018 123.887 477.65 124.221L457.652 142.405C457.445 142.593 457.281 142.821 457.168 143.076C457.055 143.331 456.997 143.606 456.997 143.885V169" stroke="#28293C" stroke-width="1.5" stroke-linecap="round" stroke-linejoin="round"/>
<path d="M450.997 169H506.997" stroke="#28293C" stroke-width="1.5" stroke-linecap="round" stroke-linejoin="round"/>
<path d="M484.996 168.998V154.998C484.996 154.468 484.785 153.959 484.41 153.584C484.035 153.209 483.526 152.998 482.996 152.998H474.996C474.465 152.998 473.956 153.209 473.581 153.584C473.206 153.959 472.996 154.468 472.996 154.998V168.998" stroke="#28293C" stroke-width="1.5" stroke-linecap="round" stroke-linejoin="round"/>
<path d="M31.3454 75.4051L11.344 57.2213C10.9758 56.8866 10.4961 56.7012 9.99856 56.7012C9.50099 56.7012 9.02129 56.8867 8.65315 57.2214L-11.3455 75.4051C-11.5516 75.5926 -11.7163 75.821 -11.8291 76.0758C-11.9418 76.3307 -12 76.6062 -12 76.8849V100C-12 100.531 -11.7893 101.039 -11.4142 101.414C-11.0391 101.79 -10.5304 102 -10 102H30C30.5304 102 31.0391 101.79 31.4142 101.414C31.7893 101.039 32 100.531 32 100V76.8849C32 76.6063 31.9418 76.3307 31.829 76.0759C31.7163 75.821 31.5516 75.5925 31.3454 75.4051Z" stroke="#28293C" stroke-width="1.5" stroke-linecap="round" stroke-linejoin="round"/>
<path d="M165.997 102V76.8849C165.997 76.6063 165.939 76.3307 165.826 76.0759C165.713 75.821 165.549 75.5925 165.342 75.4051L145.341 57.2213C144.973 56.8866 144.493 56.7012 143.996 56.7012C143.498 56.7012 143.018 56.8867 142.65 57.2214L122.652 75.4051C122.445 75.5926 122.281 75.821 122.168 76.0758C122.055 76.3307 121.997 76.6062 121.997 76.8849V102" stroke="#28293C" stroke-width="1.5" stroke-linecap="round" stroke-linejoin="round"/>
<path d="M115.997 102H171.997" stroke="#28293C" stroke-width="1.5" stroke-linecap="round" stroke-linejoin="round"/>
<path d="M149.996 101.998V87.998C149.996 87.4676 149.785 86.9589 149.41 86.5838C149.035 86.2088 148.526 85.998 147.996 85.998H139.996C139.465 85.998 138.956 86.2088 138.581 86.5838C138.206 86.9589 137.996 87.4676 137.996 87.998V101.998" stroke="#28293C" stroke-width="1.5" stroke-linecap="round" stroke-linejoin="round"/>
<path d="M283.999 99.9984V87.9981C283.999 87.4677 283.788 86.959 283.413 86.5839C283.038 86.2089 282.529 85.9981 281.999 85.9981H273.999C273.468 85.9981 272.959 86.2089 272.584 86.5839C272.209 86.959 271.999 87.4677 271.999 87.9981V99.9984C271.999 100.529 271.788 101.037 271.413 101.413C271.038 101.788 270.529 101.998 269.999 101.998L258 102C257.738 102 257.477 101.948 257.235 101.848C256.992 101.747 256.772 101.6 256.586 101.414C256.4 101.229 256.253 101.008 256.152 100.765C256.052 100.523 256 100.263 256 100V76.8849C256 76.6062 256.058 76.3307 256.171 76.0758C256.284 75.821 256.448 75.5926 256.655 75.4051L276.653 57.2214C277.021 56.8867 277.501 56.7012 277.999 56.7012C278.496 56.7012 278.976 56.8866 279.344 57.2213L299.345 75.4051C299.552 75.5925 299.716 75.821 299.829 76.0759C299.942 76.3307 300 76.6063 300 76.8849V100C300 100.263 299.948 100.523 299.848 100.765C299.747 101.008 299.6 101.229 299.414 101.414C299.228 101.6 299.008 101.747 298.765 101.848C298.523 101.948 298.262 102 298 102L285.998 101.998C285.468 101.998 284.959 101.788 284.584 101.413C284.209 101.037 283.999 100.529 283.999 99.9984V99.9984Z" stroke="#28293C" stroke-width="1.5" stroke-linecap="round" stroke-linejoin="round"/>
<path d="M412 66V70" stroke="#28293C" stroke-width="1.5" stroke-linecap="round" stroke-linejoin="round"/>
<path d="M412 90V94" stroke="#28293C" stroke-width="1.5" stroke-linecap="round" stroke-linejoin="round"/>
<path d="M412 104C425.255 104 436 93.2548 436 80C436 66.7452 425.255 56 412 56C398.745 56 388 66.7452 388 80C388 93.2548 398.745 104 412 104Z" stroke="#28293C" stroke-width="1.5" stroke-linecap="round" stroke-linejoin="round"/>
<path d="M406 90H415C416.326 90 417.598 89.4732 418.536 88.5355C419.473 87.5979 420 86.3261 420 85C420 83.6739 419.473 82.4021 418.536 81.4645C417.598 80.5268 416.326 80 415 80H409C407.674 80 406.402 79.4732 405.464 78.5355C404.527 77.5979 404 76.3261 404 75C404 73.6739 404.527 72.4021 405.464 71.4645C406.402 70.5268 407.674 70 409 70H418" stroke="#28293C" stroke-width="1.5" stroke-linecap="round" stroke-linejoin="round"/>
<path d="M82.9985 32.9984V20.9981C82.9985 20.4677 82.7878 19.959 82.4128 19.5839C82.0377 19.2089 81.529 18.9981 80.9985 18.9981H72.9985C72.4681 18.9981 71.9594 19.2089 71.5843 19.5839C71.2092 19.959 70.9985 20.4677 70.9985 20.9981V32.9984C70.9985 33.5288 70.7879 34.0374 70.4128 34.4125C70.0378 34.7876 69.5292 34.9983 68.9988 34.9984L57.0002 35C56.7376 35 56.4775 34.9483 56.2348 34.8478C55.9921 34.7473 55.7716 34.6 55.5859 34.4143C55.4001 34.2285 55.2528 34.0081 55.1523 33.7654C55.0517 33.5227 55 33.2626 55 33V9.88487C55 9.60623 55.0582 9.33066 55.1709 9.07584C55.2837 8.82101 55.4484 8.59255 55.6545 8.4051L75.6532 -9.77859C76.0213 -10.1133 76.501 -10.2988 76.9986 -10.2988C77.4961 -10.2988 77.9758 -10.1134 78.344 -9.77868L98.3454 8.40509C98.5516 8.59254 98.7163 8.82102 98.829 9.07586C98.9418 9.3307 99 9.60629 99 9.88495V33C99 33.2626 98.9483 33.5227 98.8477 33.7654C98.7472 34.0081 98.5999 34.2286 98.4141 34.4143C98.2284 34.6 98.0079 34.7473 97.7652 34.8478C97.5225 34.9483 97.2624 35 96.9997 35L84.9983 34.9984C84.4679 34.9983 83.9592 34.7876 83.5842 34.4125C83.2092 34.0375 82.9985 33.5288 82.9985 32.9984V32.9984Z" stroke="#28293C" stroke-width="1.5" stroke-linecap="round" stroke-linejoin="round"/>
<path d="M211 -1V3" stroke="#28293C" stroke-width="1.5" stroke-linecap="round" stroke-linejoin="round"/>
<path d="M211 23V27" stroke="#28293C" stroke-width="1.5" stroke-linecap="round" stroke-linejoin="round"/>
<path d="M211 37C224.255 37 235 26.2548 235 13C235 -0.254834 224.255 -11 211 -11C197.745 -11 187 -0.254834 187 13C187 26.2548 197.745 37 211 37Z" stroke="#28293C" stroke-width="1.5" stroke-linecap="round" stroke-linejoin="round"/>
<path d="M205 23H214C215.326 23 216.598 22.4732 217.536 21.5355C218.473 20.5979 219 19.3261 219 18C219 16.6739 218.473 15.4021 217.536 14.4645C216.598 13.5268 215.326 13 214 13H208C206.674 13 205.402 12.4732 204.464 11.5355C203.527 10.5979 203 9.32608 203 8C203 6.67392 203.527 5.40215 204.464 4.46447C205.402 3.52678 206.674 3 208 3H217" stroke="#28293C" stroke-width="1.5" stroke-linecap="round" stroke-linejoin="round"/>
<path d="M366.345 8.40509L346.344 -9.77868C345.976 -10.1134 345.496 -10.2988 344.999 -10.2988C344.501 -10.2988 344.021 -10.1133 343.653 -9.77859L323.655 8.4051C323.448 8.59255 323.284 8.82101 323.171 9.07584C323.058 9.33066 323 9.60623 323 9.88487V33.0002C323 33.5307 323.211 34.0394 323.586 34.4144C323.961 34.7895 324.47 35.0002 325 35.0002H365C365.53 35.0002 366.039 34.7895 366.414 34.4144C366.789 34.0394 367 33.5307 367 33.0002V9.88495C367 9.60629 366.942 9.3307 366.829 9.07586C366.716 8.82102 366.552 8.59254 366.345 8.40509Z" stroke="#28293C" stroke-width="1.5" stroke-linecap="round" stroke-linejoin="round"/>
<path d="M484.999 32.9984V20.9981C484.999 20.4677 484.788 19.959 484.413 19.5839C484.038 19.2089 483.529 18.9981 482.999 18.9981H474.999C474.468 18.9981 473.959 19.2089 473.584 19.5839C473.209 19.959 472.999 20.4677 472.999 20.9981V32.9984C472.999 33.5288 472.788 34.0374 472.413 34.4125C472.038 34.7876 471.529 34.9983 470.999 34.9984L459 35C458.738 35 458.477 34.9483 458.235 34.8478C457.992 34.7473 457.772 34.6 457.586 34.4143C457.4 34.2285 457.253 34.0081 457.152 33.7654C457.052 33.5227 457 33.2626 457 33V9.88487C457 9.60623 457.058 9.33066 457.171 9.07584C457.284 8.82101 457.448 8.59255 457.655 8.4051L477.653 -9.77859C478.021 -10.1133 478.501 -10.2988 478.999 -10.2988C479.496 -10.2988 479.976 -10.1134 480.344 -9.77868L500.345 8.40509C500.552 8.59254 500.716 8.82102 500.829 9.07586C500.942 9.3307 501 9.60629 501 9.88495V33C501 33.2626 500.948 33.5227 500.848 33.7654C500.747 34.0081 500.6 34.2286 500.414 34.4143C500.228 34.6 500.008 34.7473 499.765 34.8478C499.523 34.9483 499.262 35 499 35L486.998 34.9984C486.468 34.9983 485.959 34.7876 485.584 34.4125C485.209 34.0375 484.999 33.5288 484.999 32.9984V32.9984Z" stroke="#28293C" stroke-width="1.5" stroke-linecap="round" stroke-linejoin="round"/>
<path d="M31.9971 236V210.885C31.9971 210.606 31.9388 210.331 31.8261 210.076C31.7134 209.821 31.5486 209.593 31.3424 209.405L11.3411 191.221C10.9729 190.887 10.4932 190.701 9.99563 190.701C9.49806 190.701 9.01836 190.887 8.65022 191.221L-11.3484 209.405C-11.5546 209.593 -11.7193 209.821 -11.832 210.076C-11.9447 210.331 -12.0029 210.606 -12.0029 210.885V236" stroke="#28293C" stroke-width="1.5" stroke-linecap="round" stroke-linejoin="round"/>
<path d="M15.9956 235.998V221.998C15.9956 221.468 15.7849 220.959 15.4098 220.584C15.0347 220.209 14.526 219.998 13.9956 219.998H5.99561C5.46517 219.998 4.95647 220.209 4.58139 220.584C4.20632 220.959 3.99561 221.468 3.99561 221.998V235.998" stroke="#28293C" stroke-width="1.5" stroke-linecap="round" stroke-linejoin="round"/>
<path d="M149.999 233.998V221.998C149.999 221.468 149.788 220.959 149.413 220.584C149.038 220.209 148.529 219.998 147.999 219.998H139.999C139.468 219.998 138.959 220.209 138.584 220.584C138.209 220.959 137.999 221.468 137.999 221.998V233.998C137.999 234.529 137.788 235.037 137.413 235.413C137.038 235.788 136.529 235.998 135.999 235.998L124 236C123.738 236 123.477 235.948 123.235 235.848C122.992 235.747 122.772 235.6 122.586 235.414C122.4 235.229 122.253 235.008 122.152 234.765C122.052 234.523 122 234.263 122 234V210.885C122 210.606 122.058 210.331 122.171 210.076C122.284 209.821 122.448 209.593 122.655 209.405L142.653 191.221C143.021 190.887 143.501 190.701 143.999 190.701C144.496 190.701 144.976 190.887 145.344 191.221L165.345 209.405C165.552 209.593 165.716 209.821 165.829 210.076C165.942 210.331 166 210.606 166 210.885V234C166 234.263 165.948 234.523 165.848 234.765C165.747 235.008 165.6 235.229 165.414 235.414C165.228 235.6 165.008 235.747 164.765 235.848C164.523 235.948 164.262 236 164 236L151.998 235.998C151.468 235.998 150.959 235.788 150.584 235.413C150.209 235.037 149.999 234.529 149.999 233.998V233.998Z" stroke="#28293C" stroke-width="1.5" stroke-linecap="round" stroke-linejoin="round"/>
<path d="M278 200V204" stroke="#28293C" stroke-width="1.5" stroke-linecap="round" stroke-linejoin="round"/>
<path d="M278 224V228" stroke="#28293C" stroke-width="1.5" stroke-linecap="round" stroke-linejoin="round"/>
<path d="M278 238C291.255 238 302 227.255 302 214C302 200.745 291.255 190 278 190C264.745 190 254 200.745 254 214C254 227.255 264.745 238 278 238Z" stroke="#28293C" stroke-width="1.5" stroke-linecap="round" stroke-linejoin="round"/>
<path d="M272 224H281C282.326 224 283.598 223.473 284.536 222.536C285.473 221.598 286 220.326 286 219C286 217.674 285.473 216.402 284.536 215.464C283.598 214.527 282.326 214 281 214H275C273.674 214 272.402 213.473 271.464 212.536C270.527 211.598 270 210.326 270 209C270 207.674 270.527 206.402 271.464 205.464C272.402 204.527 273.674 204 275 204H284" stroke="#28293C" stroke-width="1.5" stroke-linecap="round" stroke-linejoin="round"/>
<path d="M417.999 233.998V221.998C417.999 221.468 417.788 220.959 417.413 220.584C417.038 220.209 416.529 219.998 415.999 219.998H407.999C407.468 219.998 406.959 220.209 406.584 220.584C406.209 220.959 405.999 221.468 405.999 221.998V233.998C405.999 234.529 405.788 235.037 405.413 235.413C405.038 235.788 404.529 235.998 403.999 235.998L392 236C391.738 236 391.477 235.948 391.235 235.848C390.992 235.747 390.772 235.6 390.586 235.414C390.4 235.229 390.253 235.008 390.152 234.765C390.052 234.523 390 234.263 390 234V210.885C390 210.606 390.058 210.331 390.171 210.076C390.284 209.821 390.448 209.593 390.655 209.405L410.653 191.221C411.021 190.887 411.501 190.701 411.999 190.701C412.496 190.701 412.976 190.887 413.344 191.221L433.345 209.405C433.552 209.593 433.716 209.821 433.829 210.076C433.942 210.331 434 210.606 434 210.885V234C434 234.263 433.948 234.523 433.848 234.765C433.747 235.008 433.6 235.229 433.414 235.414C433.228 235.6 433.008 235.747 432.765 235.848C432.523 235.948 432.262 236 432 236L419.998 235.998C419.468 235.998 418.959 235.788 418.584 235.413C418.209 235.037 417.999 234.529 417.999 233.998V233.998Z" stroke="#28293C" stroke-width="1.5" stroke-linecap="round" stroke-linejoin="round"/>
</g>
<defs>
<clipPath id="clip0_1952_24159">
<rect width="486" height="234" fill="white"/>
</clipPath>
</defs>
</svg>
