<svg width="486" height="234" viewBox="0 0 486 234" fill="none" xmlns="http://www.w3.org/2000/svg">
<g clip-path="url(#clip0_1952_38368)">
<path d="M86 0.5C87.3807 0.5 88.5 -0.619288 88.5 -2C88.5 -3.38071 87.3807 -4.5 86 -4.5C84.6193 -4.5 83.5 -3.38071 83.5 -2C83.5 -0.619288 84.6193 0.5 86 0.5Z" fill="#28293C"/>
<path d="M75 15L65 27" stroke="#28293C" stroke-width="1.5" stroke-linecap="round" stroke-linejoin="round"/>
<path d="M97 5.00002V11C97 17.3652 94.4714 23.4697 89.9706 27.9706C85.4697 32.4715 79.3652 35 73 35H47L71 5.00002V2.47955e-05C71.0005 -3.16176 72.153 -6.21504 74.242 -8.58843C76.331 -10.9618 79.2132 -12.4927 82.3494 -12.8945C85.4855 -13.2964 88.6606 -12.5417 91.2805 -10.7716C93.9004 -9.0016 95.7856 -6.33756 96.5832 -3.27803L103 1.00002L97 5.00002Z" stroke="#28293C" stroke-width="1.5" stroke-linecap="round" stroke-linejoin="round"/>
<path d="M211 29V35" stroke="#28293C" stroke-width="1.5" stroke-linecap="round" stroke-linejoin="round"/>
<path d="M202 18.5C203.381 18.5 204.5 17.3807 204.5 16C204.5 14.6193 203.381 13.5 202 13.5C200.619 13.5 199.5 14.6193 199.5 16C199.5 17.3807 200.619 18.5 202 18.5Z" fill="#28293C"/>
<path d="M220 18.5C221.381 18.5 222.5 17.3807 222.5 16C222.5 14.6193 221.381 13.5 220 13.5C218.619 13.5 217.5 14.6193 217.5 16C217.5 17.3807 218.619 18.5 220 18.5Z" fill="#28293C"/>
<path d="M215 25L211 29L207 25" stroke="#28293C" stroke-width="1.5" stroke-linecap="round" stroke-linejoin="round"/>
<path d="M217 -7.0001L230.94 -10.4852C231.205 -10.5513 231.48 -10.5627 231.749 -10.5185C232.018 -10.4744 232.276 -10.3757 232.505 -10.2285C232.735 -10.0813 232.932 -9.88868 233.084 -9.66255C233.236 -9.43642 233.341 -9.18151 233.391 -8.9135L237.496 12.978C237.881 15.0342 235.25 16.2272 233.958 14.5822L217 -7.0001Z" stroke="#28293C" stroke-width="1.5" stroke-linecap="round" stroke-linejoin="round"/>
<path d="M205 -7.0001L191.06 -10.4852C190.795 -10.5513 190.52 -10.5627 190.251 -10.5185C189.982 -10.4744 189.724 -10.3757 189.495 -10.2285C189.265 -10.0813 189.068 -9.88869 188.916 -9.66255C188.764 -9.43642 188.659 -9.18151 188.609 -8.9135L184.504 12.978C184.119 15.0342 186.75 16.2272 188.042 14.5822L205 -7.0001Z" stroke="#28293C" stroke-width="1.5" stroke-linecap="round" stroke-linejoin="round"/>
<path d="M231 10.8184V27.0002C231 29.1219 230.157 31.1567 228.657 32.657C227.157 34.1573 225.122 35.0002 223 35.0002H199C196.878 35.0002 194.843 34.1573 193.343 32.657C191.843 31.1567 191 29.1219 191 27.0002V10.8184" stroke="#28293C" stroke-width="1.5" stroke-linecap="round" stroke-linejoin="round"/>
<path d="M345 29V35" stroke="#28293C" stroke-width="1.5" stroke-linecap="round" stroke-linejoin="round"/>
<path d="M336 18.5C337.381 18.5 338.5 17.3807 338.5 16C338.5 14.6193 337.381 13.5 336 13.5C334.619 13.5 333.5 14.6193 333.5 16C333.5 17.3807 334.619 18.5 336 18.5Z" fill="#28293C"/>
<path d="M354 18.5C355.381 18.5 356.5 17.3807 356.5 16C356.5 14.6193 355.381 13.5 354 13.5C352.619 13.5 351.5 14.6193 351.5 16C351.5 17.3807 352.619 18.5 354 18.5Z" fill="#28293C"/>
<path d="M349 25L345 29L341 25" stroke="#28293C" stroke-width="1.5" stroke-linecap="round" stroke-linejoin="round"/>
<path d="M351 -7.0001L364.94 -10.4852C365.205 -10.5513 365.48 -10.5627 365.749 -10.5185C366.018 -10.4744 366.276 -10.3757 366.505 -10.2285C366.735 -10.0813 366.932 -9.88868 367.084 -9.66255C367.236 -9.43642 367.341 -9.18151 367.391 -8.9135L371.496 12.978C371.881 15.0342 369.25 16.2272 367.958 14.5822L351 -7.0001Z" stroke="#28293C" stroke-width="1.5" stroke-linecap="round" stroke-linejoin="round"/>
<path d="M339 -7.0001L325.06 -10.4852C324.795 -10.5513 324.52 -10.5627 324.251 -10.5185C323.982 -10.4744 323.724 -10.3757 323.495 -10.2285C323.265 -10.0813 323.068 -9.88869 322.916 -9.66255C322.764 -9.43642 322.659 -9.18151 322.609 -8.9135L318.504 12.978C318.119 15.0342 320.75 16.2272 322.042 14.5822L339 -7.0001Z" stroke="#28293C" stroke-width="1.5" stroke-linecap="round" stroke-linejoin="round"/>
<path d="M365 10.8184V27.0002C365 29.1219 364.157 31.1567 362.657 32.657C361.157 34.1573 359.122 35.0002 357 35.0002H333C330.878 35.0002 328.843 34.1573 327.343 32.657C325.843 31.1567 325 29.1219 325 27.0002V10.8184" stroke="#28293C" stroke-width="1.5" stroke-linecap="round" stroke-linejoin="round"/>
<path d="M479 29V35" stroke="#28293C" stroke-width="1.5" stroke-linecap="round" stroke-linejoin="round"/>
<path d="M470 18.5C471.381 18.5 472.5 17.3807 472.5 16C472.5 14.6193 471.381 13.5 470 13.5C468.619 13.5 467.5 14.6193 467.5 16C467.5 17.3807 468.619 18.5 470 18.5Z" fill="#28293C"/>
<path d="M488 18.5C489.381 18.5 490.5 17.3807 490.5 16C490.5 14.6193 489.381 13.5 488 13.5C486.619 13.5 485.5 14.6193 485.5 16C485.5 17.3807 486.619 18.5 488 18.5Z" fill="#28293C"/>
<path d="M483 25L479 29L475 25" stroke="#28293C" stroke-width="1.5" stroke-linecap="round" stroke-linejoin="round"/>
<path d="M485 -7.0001L498.94 -10.4852C499.205 -10.5513 499.48 -10.5627 499.749 -10.5185C500.018 -10.4744 500.276 -10.3757 500.505 -10.2285C500.735 -10.0813 500.932 -9.88868 501.084 -9.66255C501.236 -9.43642 501.341 -9.18151 501.391 -8.9135L505.496 12.978C505.881 15.0342 503.25 16.2272 501.958 14.5822L485 -7.0001Z" stroke="#28293C" stroke-width="1.5" stroke-linecap="round" stroke-linejoin="round"/>
<path d="M473 -7.0001L459.06 -10.4852C458.795 -10.5513 458.52 -10.5627 458.251 -10.5185C457.982 -10.4744 457.724 -10.3757 457.495 -10.2285C457.265 -10.0813 457.068 -9.88869 456.916 -9.66255C456.764 -9.43642 456.659 -9.18151 456.609 -8.9135L452.504 12.978C452.119 15.0342 454.75 16.2272 456.042 14.5822L473 -7.0001Z" stroke="#28293C" stroke-width="1.5" stroke-linecap="round" stroke-linejoin="round"/>
<path d="M499 10.8184V27.0002C499 29.1219 498.157 31.1567 496.657 32.657C495.157 34.1573 493.122 35.0002 491 35.0002H467C464.878 35.0002 462.843 34.1573 461.343 32.657C459.843 31.1567 459 29.1219 459 27.0002V10.8184" stroke="#28293C" stroke-width="1.5" stroke-linecap="round" stroke-linejoin="round"/>
<path d="M10 96V104" stroke="#28293C" stroke-width="1.5" stroke-linecap="round" stroke-linejoin="round"/>
<path d="M-1 85.5C0.380712 85.5 1.5 84.3807 1.5 83C1.5 81.6193 0.380712 80.5 -1 80.5C-2.38071 80.5 -3.5 81.6193 -3.5 83C-3.5 84.3807 -2.38071 85.5 -1 85.5Z" fill="#28293C"/>
<path d="M21 85.5C22.3807 85.5 23.5 84.3807 23.5 83C23.5 81.6193 22.3807 80.5 21 80.5C19.6193 80.5 18.5 81.6193 18.5 83C18.5 84.3807 19.6193 85.5 21 85.5Z" fill="#28293C"/>
<path d="M10 60V70" stroke="#28293C" stroke-width="1.5" stroke-linecap="round" stroke-linejoin="round"/>
<path d="M14 92L10 96L6 92" stroke="#28293C" stroke-width="1.5" stroke-linecap="round" stroke-linejoin="round"/>
<path d="M2 61.252V69.9998" stroke="#28293C" stroke-width="1.5" stroke-linecap="round" stroke-linejoin="round"/>
<path d="M18 61.252V69.9998" stroke="#28293C" stroke-width="1.5" stroke-linecap="round" stroke-linejoin="round"/>
<path d="M-14 81.9997V60.8281C-14 60.4326 -13.8827 60.0459 -13.6629 59.717C-13.4432 59.3881 -13.1308 59.1317 -12.7654 58.9804C-12.3999 58.829 -11.9978 58.7894 -11.6098 58.8666C-11.2219 58.9437 -10.8655 59.1342 -10.5858 59.4139L-5.10042 64.8993L-5.10049 64.8992C-0.709559 61.7146 4.5758 59.9997 10 59.9997C15.4242 59.9997 20.7096 61.7146 25.1005 64.8992L25.1004 64.8993L30.5858 59.4139C30.8655 59.1342 31.2219 58.9437 31.6098 58.8666C31.9978 58.7894 32.3999 58.829 32.7654 58.9804C33.1308 59.1317 33.4432 59.3881 33.6629 59.717C33.8827 60.0459 34 60.4326 34 60.8281V81.9997C34 94.15 23.2548 104 10 104C-3.25484 104 -14 94.15 -14 81.9997Z" stroke="#28293C" stroke-width="1.5" stroke-linecap="round" stroke-linejoin="round"/>
<path d="M153 67.5C154.381 67.5 155.5 66.3807 155.5 65C155.5 63.6193 154.381 62.5 153 62.5C151.619 62.5 150.5 63.6193 150.5 65C150.5 66.3807 151.619 67.5 153 67.5Z" fill="#28293C"/>
<path d="M142 82L132 94" stroke="#28293C" stroke-width="1.5" stroke-linecap="round" stroke-linejoin="round"/>
<path d="M164 72V78C164 84.3652 161.471 90.4697 156.971 94.9706C152.47 99.4715 146.365 102 140 102H114L138 72V67C138 63.8382 139.153 60.785 141.242 58.4116C143.331 56.0382 146.213 54.5073 149.349 54.1055C152.486 53.7036 155.661 54.4583 158.281 56.2284C160.9 57.9984 162.786 60.6624 163.583 63.722L170 68L164 72Z" stroke="#28293C" stroke-width="1.5" stroke-linecap="round" stroke-linejoin="round"/>
<path d="M278 96V104" stroke="#28293C" stroke-width="1.5" stroke-linecap="round" stroke-linejoin="round"/>
<path d="M267 85.5C268.381 85.5 269.5 84.3807 269.5 83C269.5 81.6193 268.381 80.5 267 80.5C265.619 80.5 264.5 81.6193 264.5 83C264.5 84.3807 265.619 85.5 267 85.5Z" fill="#28293C"/>
<path d="M289 85.5C290.381 85.5 291.5 84.3807 291.5 83C291.5 81.6193 290.381 80.5 289 80.5C287.619 80.5 286.5 81.6193 286.5 83C286.5 84.3807 287.619 85.5 289 85.5Z" fill="#28293C"/>
<path d="M278 60V70" stroke="#28293C" stroke-width="1.5" stroke-linecap="round" stroke-linejoin="round"/>
<path d="M282 92L278 96L274 92" stroke="#28293C" stroke-width="1.5" stroke-linecap="round" stroke-linejoin="round"/>
<path d="M270 61.252V69.9998" stroke="#28293C" stroke-width="1.5" stroke-linecap="round" stroke-linejoin="round"/>
<path d="M286 61.252V69.9998" stroke="#28293C" stroke-width="1.5" stroke-linecap="round" stroke-linejoin="round"/>
<path d="M254 81.9997V60.8281C254 60.4326 254.117 60.0459 254.337 59.717C254.557 59.3881 254.869 59.1317 255.235 58.9804C255.6 58.829 256.002 58.7894 256.39 58.8666C256.778 58.9437 257.135 59.1342 257.414 59.4139L262.9 64.8993L262.9 64.8992C267.29 61.7146 272.576 59.9997 278 59.9997C283.424 59.9997 288.71 61.7146 293.101 64.8992L293.1 64.8993L298.586 59.4139C298.865 59.1342 299.222 58.9437 299.61 58.8666C299.998 58.7894 300.4 58.829 300.765 58.9804C301.131 59.1317 301.443 59.3881 301.663 59.717C301.883 60.0459 302 60.4326 302 60.8281V81.9997C302 94.15 291.255 104 278 104C264.745 104 254 94.15 254 81.9997Z" stroke="#28293C" stroke-width="1.5" stroke-linecap="round" stroke-linejoin="round"/>
<path d="M421 67.5C422.381 67.5 423.5 66.3807 423.5 65C423.5 63.6193 422.381 62.5 421 62.5C419.619 62.5 418.5 63.6193 418.5 65C418.5 66.3807 419.619 67.5 421 67.5Z" fill="#28293C"/>
<path d="M410 82L400 94" stroke="#28293C" stroke-width="1.5" stroke-linecap="round" stroke-linejoin="round"/>
<path d="M432 72V78C432 84.3652 429.471 90.4697 424.971 94.9706C420.47 99.4715 414.365 102 408 102H382L406 72V67C406 63.8382 407.153 60.785 409.242 58.4116C411.331 56.0382 414.213 54.5073 417.349 54.1055C420.486 53.7036 423.661 54.4583 426.281 56.2284C428.9 57.9984 430.786 60.6624 431.583 63.722L438 68L432 72Z" stroke="#28293C" stroke-width="1.5" stroke-linecap="round" stroke-linejoin="round"/>
<path d="M77 163V171" stroke="#28293C" stroke-width="1.5" stroke-linecap="round" stroke-linejoin="round"/>
<path d="M66 152.5C67.3807 152.5 68.5 151.381 68.5 150C68.5 148.619 67.3807 147.5 66 147.5C64.6193 147.5 63.5 148.619 63.5 150C63.5 151.381 64.6193 152.5 66 152.5Z" fill="#28293C"/>
<path d="M88 152.5C89.3807 152.5 90.5 151.381 90.5 150C90.5 148.619 89.3807 147.5 88 147.5C86.6193 147.5 85.5 148.619 85.5 150C85.5 151.381 86.6193 152.5 88 152.5Z" fill="#28293C"/>
<path d="M77 127V137" stroke="#28293C" stroke-width="1.5" stroke-linecap="round" stroke-linejoin="round"/>
<path d="M81 159L77 163L73 159" stroke="#28293C" stroke-width="1.5" stroke-linecap="round" stroke-linejoin="round"/>
<path d="M69 128.252V137" stroke="#28293C" stroke-width="1.5" stroke-linecap="round" stroke-linejoin="round"/>
<path d="M85 128.252V137" stroke="#28293C" stroke-width="1.5" stroke-linecap="round" stroke-linejoin="round"/>
<path d="M53 149V127.828C53 127.433 53.1173 127.046 53.3371 126.717C53.5568 126.388 53.8692 126.132 54.2346 125.98C54.6001 125.829 55.0022 125.789 55.3902 125.867C55.7781 125.944 56.1345 126.134 56.4142 126.414L61.8996 131.899L61.8995 131.899C66.2904 128.715 71.5758 127 77 127C82.4242 127 87.7096 128.715 92.1005 131.899L92.1004 131.899L97.5858 126.414C97.8655 126.134 98.2219 125.944 98.6098 125.867C98.9978 125.789 99.3999 125.829 99.7654 125.98C100.131 126.132 100.443 126.388 100.663 126.717C100.883 127.046 101 127.433 101 127.828V149C101 161.15 90.2548 171 77 171C63.7452 171 53 161.15 53 149Z" stroke="#28293C" stroke-width="1.5" stroke-linecap="round" stroke-linejoin="round"/>
<path d="M211 163V169" stroke="#28293C" stroke-width="1.5" stroke-linecap="round" stroke-linejoin="round"/>
<path d="M203.25 150C203.25 150.69 202.69 151.25 202 151.25C201.31 151.25 200.75 150.69 200.75 150C200.75 149.31 201.31 148.75 202 148.75C202.69 148.75 203.25 149.31 203.25 150Z" fill="#28293C" stroke="#28293C" stroke-width="1.5"/>
<path d="M221.25 150C221.25 150.69 220.69 151.25 220 151.25C219.31 151.25 218.75 150.69 218.75 150C218.75 149.31 219.31 148.75 220 148.75C220.69 148.75 221.25 149.31 221.25 150Z" fill="#28293C" stroke="#28293C" stroke-width="1.5"/>
<path d="M215 159L211 163L207 159" stroke="#28293C" stroke-width="1.5" stroke-linecap="round" stroke-linejoin="round"/>
<path d="M217 127L230.94 123.515C231.205 123.449 231.48 123.437 231.749 123.481C232.018 123.526 232.276 123.624 232.505 123.772C232.735 123.919 232.932 124.111 233.084 124.337C233.236 124.564 233.341 124.818 233.391 125.086L237.496 146.978C237.881 149.034 235.25 150.227 233.958 148.582L217 127Z" stroke="#28293C" stroke-width="1.5" stroke-linecap="round" stroke-linejoin="round"/>
<path d="M205 127L191.06 123.515C190.795 123.449 190.52 123.437 190.251 123.481C189.982 123.526 189.724 123.624 189.495 123.772C189.265 123.919 189.068 124.111 188.916 124.337C188.764 124.564 188.659 124.818 188.609 125.087L184.504 146.978C184.119 149.034 186.75 150.227 188.042 148.582L205 127Z" stroke="#28293C" stroke-width="1.5" stroke-linecap="round" stroke-linejoin="round"/>
<path d="M205 127H217" stroke="#28293C" stroke-width="1.5" stroke-linecap="round" stroke-linejoin="round"/>
<path d="M231 144.818V161C231 163.122 230.157 165.157 228.657 166.657C227.157 168.157 225.122 169 223 169H199C196.878 169 194.843 168.157 193.343 166.657C191.843 165.157 191 163.122 191 161V144.818" stroke="#28293C" stroke-width="1.5" stroke-linecap="round" stroke-linejoin="round"/>
<path d="M345 163V171" stroke="#28293C" stroke-width="1.5" stroke-linecap="round" stroke-linejoin="round"/>
<path d="M334 152.5C335.381 152.5 336.5 151.381 336.5 150C336.5 148.619 335.381 147.5 334 147.5C332.619 147.5 331.5 148.619 331.5 150C331.5 151.381 332.619 152.5 334 152.5Z" fill="#28293C"/>
<path d="M356 152.5C357.381 152.5 358.5 151.381 358.5 150C358.5 148.619 357.381 147.5 356 147.5C354.619 147.5 353.5 148.619 353.5 150C353.5 151.381 354.619 152.5 356 152.5Z" fill="#28293C"/>
<path d="M345 127V137" stroke="#28293C" stroke-width="1.5" stroke-linecap="round" stroke-linejoin="round"/>
<path d="M349 159L345 163L341 159" stroke="#28293C" stroke-width="1.5" stroke-linecap="round" stroke-linejoin="round"/>
<path d="M337 128.252V137" stroke="#28293C" stroke-width="1.5" stroke-linecap="round" stroke-linejoin="round"/>
<path d="M353 128.252V137" stroke="#28293C" stroke-width="1.5" stroke-linecap="round" stroke-linejoin="round"/>
<path d="M321 149V127.828C321 127.433 321.117 127.046 321.337 126.717C321.557 126.388 321.869 126.132 322.235 125.98C322.6 125.829 323.002 125.789 323.39 125.867C323.778 125.944 324.135 126.134 324.414 126.414L329.9 131.899L329.9 131.899C334.29 128.715 339.576 127 345 127C350.424 127 355.71 128.715 360.101 131.899L360.1 131.899L365.586 126.414C365.865 126.134 366.222 125.944 366.61 125.867C366.998 125.789 367.4 125.829 367.765 125.98C368.131 126.132 368.443 126.388 368.663 126.717C368.883 127.046 369 127.433 369 127.828V149C369 161.15 358.255 171 345 171C331.745 171 321 161.15 321 149Z" stroke="#28293C" stroke-width="1.5" stroke-linecap="round" stroke-linejoin="round"/>
<path d="M479 163V169" stroke="#28293C" stroke-width="1.5" stroke-linecap="round" stroke-linejoin="round"/>
<path d="M471.25 150C471.25 150.69 470.69 151.25 470 151.25C469.31 151.25 468.75 150.69 468.75 150C468.75 149.31 469.31 148.75 470 148.75C470.69 148.75 471.25 149.31 471.25 150Z" fill="#28293C" stroke="#28293C" stroke-width="1.5"/>
<path d="M483 159L479 163L475 159" stroke="#28293C" stroke-width="1.5" stroke-linecap="round" stroke-linejoin="round"/>
<path d="M485 127L498.94 123.515C499.205 123.449 499.48 123.437 499.749 123.481C500.018 123.526 500.276 123.624 500.505 123.772C500.735 123.919 500.932 124.111 501.084 124.337C501.236 124.564 501.341 124.818 501.391 125.086L505.496 146.978C505.881 149.034 503.25 150.227 501.958 148.582L485 127Z" stroke="#28293C" stroke-width="1.5" stroke-linecap="round" stroke-linejoin="round"/>
<path d="M473 127L459.06 123.515C458.795 123.449 458.52 123.437 458.251 123.481C457.982 123.526 457.724 123.624 457.495 123.772C457.265 123.919 457.068 124.111 456.916 124.337C456.764 124.564 456.659 124.818 456.609 125.087L452.504 146.978C452.119 149.034 454.75 150.227 456.042 148.582L473 127Z" stroke="#28293C" stroke-width="1.5" stroke-linecap="round" stroke-linejoin="round"/>
<path d="M473 127H485" stroke="#28293C" stroke-width="1.5" stroke-linecap="round" stroke-linejoin="round"/>
<path d="M499 144.818V161C499 163.122 498.157 165.157 496.657 166.657C495.157 168.157 493.122 169 491 169H467C464.878 169 462.843 168.157 461.343 166.657C459.843 165.157 459 163.122 459 161V144.818" stroke="#28293C" stroke-width="1.5" stroke-linecap="round" stroke-linejoin="round"/>
<path d="M10 230V238" stroke="#28293C" stroke-width="1.5" stroke-linecap="round" stroke-linejoin="round"/>
<path d="M-1 219.5C0.380712 219.5 1.5 218.381 1.5 217C1.5 215.619 0.380712 214.5 -1 214.5C-2.38071 214.5 -3.5 215.619 -3.5 217C-3.5 218.381 -2.38071 219.5 -1 219.5Z" fill="#28293C"/>
<path d="M21 219.5C22.3807 219.5 23.5 218.381 23.5 217C23.5 215.619 22.3807 214.5 21 214.5C19.6193 214.5 18.5 215.619 18.5 217C18.5 218.381 19.6193 219.5 21 219.5Z" fill="#28293C"/>
<path d="M10 194V204" stroke="#28293C" stroke-width="1.5" stroke-linecap="round" stroke-linejoin="round"/>
<path d="M14 226L10 230L6 226" stroke="#28293C" stroke-width="1.5" stroke-linecap="round" stroke-linejoin="round"/>
<path d="M2 195.252V204" stroke="#28293C" stroke-width="1.5" stroke-linecap="round" stroke-linejoin="round"/>
<path d="M18 195.252V204" stroke="#28293C" stroke-width="1.5" stroke-linecap="round" stroke-linejoin="round"/>
<path d="M-14 216V194.828C-14 194.433 -13.8827 194.046 -13.6629 193.717C-13.4432 193.388 -13.1308 193.132 -12.7654 192.98C-12.3999 192.829 -11.9978 192.789 -11.6098 192.867C-11.2219 192.944 -10.8655 193.134 -10.5858 193.414L-5.10042 198.899L-5.10049 198.899C-0.709559 195.715 4.5758 194 10 194C15.4242 194 20.7096 195.715 25.1005 198.899L25.1004 198.899L30.5858 193.414C30.8655 193.134 31.2219 192.944 31.6098 192.867C31.9978 192.789 32.3999 192.829 32.7654 192.98C33.1308 193.132 33.4432 193.388 33.6629 193.717C33.8827 194.046 34 194.433 34 194.828V216C34 228.15 23.2548 238 10 238C-3.25484 238 -14 228.15 -14 216Z" stroke="#28293C" stroke-width="1.5" stroke-linecap="round" stroke-linejoin="round"/>
<path d="M154.25 199C154.25 199.69 153.69 200.25 153 200.25C152.31 200.25 151.75 199.69 151.75 199C151.75 198.31 152.31 197.75 153 197.75C153.69 197.75 154.25 198.31 154.25 199Z" fill="#28293C" stroke="#28293C" stroke-width="1.5"/>
<path d="M142 216L132 228" stroke="#28293C" stroke-width="1.5" stroke-linecap="round" stroke-linejoin="round"/>
<path d="M164 206V212C164 218.365 161.471 224.47 156.971 228.971C152.47 233.471 146.365 236 140 236H114L138 206V201C138 197.838 139.153 194.785 141.242 192.412C143.331 190.038 146.213 188.507 149.349 188.105C152.486 187.704 155.661 188.458 158.281 190.228C160.9 191.998 162.786 194.662 163.583 197.722L170 202L164 206Z" stroke="#28293C" stroke-width="1.5" stroke-linecap="round" stroke-linejoin="round"/>
<path d="M278 230V238" stroke="#28293C" stroke-width="1.5" stroke-linecap="round" stroke-linejoin="round"/>
<path d="M267 219.5C268.381 219.5 269.5 218.381 269.5 217C269.5 215.619 268.381 214.5 267 214.5C265.619 214.5 264.5 215.619 264.5 217C264.5 218.381 265.619 219.5 267 219.5Z" fill="#28293C"/>
<path d="M289 219.5C290.381 219.5 291.5 218.381 291.5 217C291.5 215.619 290.381 214.5 289 214.5C287.619 214.5 286.5 215.619 286.5 217C286.5 218.381 287.619 219.5 289 219.5Z" fill="#28293C"/>
<path d="M278 194V204" stroke="#28293C" stroke-width="1.5" stroke-linecap="round" stroke-linejoin="round"/>
<path d="M282 226L278 230L274 226" stroke="#28293C" stroke-width="1.5" stroke-linecap="round" stroke-linejoin="round"/>
<path d="M270 195.252V204" stroke="#28293C" stroke-width="1.5" stroke-linecap="round" stroke-linejoin="round"/>
<path d="M286 195.252V204" stroke="#28293C" stroke-width="1.5" stroke-linecap="round" stroke-linejoin="round"/>
<path d="M254 216V194.828C254 194.433 254.117 194.046 254.337 193.717C254.557 193.388 254.869 193.132 255.235 192.98C255.6 192.829 256.002 192.789 256.39 192.867C256.778 192.944 257.135 193.134 257.414 193.414L262.9 198.899L262.9 198.899C267.29 195.715 272.576 194 278 194C283.424 194 288.71 195.715 293.101 198.899L293.1 198.899L298.586 193.414C298.865 193.134 299.222 192.944 299.61 192.867C299.998 192.789 300.4 192.829 300.765 192.98C301.131 193.132 301.443 193.388 301.663 193.717C301.883 194.046 302 194.433 302 194.828V216C302 228.15 291.255 238 278 238C264.745 238 254 228.15 254 216Z" stroke="#28293C" stroke-width="1.5" stroke-linecap="round" stroke-linejoin="round"/>
<path d="M422.25 199C422.25 199.69 421.69 200.25 421 200.25C420.31 200.25 419.75 199.69 419.75 199C419.75 198.31 420.31 197.75 421 197.75C421.69 197.75 422.25 198.31 422.25 199Z" fill="#28293C" stroke="#28293C" stroke-width="1.5"/>
<path d="M410 216L400 228" stroke="#28293C" stroke-width="1.5" stroke-linecap="round" stroke-linejoin="round"/>
<path d="M432 206V212C432 218.365 429.471 224.47 424.971 228.971C420.47 233.471 414.365 236 408 236H382L406 206V201C406 197.838 407.153 194.785 409.242 192.412C411.331 190.038 414.213 188.507 417.349 188.105C420.486 187.704 423.661 188.458 426.281 190.228C428.9 191.998 430.786 194.662 431.583 197.722L438 202L432 206Z" stroke="#28293C" stroke-width="1.5" stroke-linecap="round" stroke-linejoin="round"/>
</g>
<defs>
<clipPath id="clip0_1952_38368">
<rect width="486" height="234" fill="white"/>
</clipPath>
</defs>
</svg>
