<svg width="486" height="234" viewBox="0 0 486 234" fill="none" xmlns="http://www.w3.org/2000/svg">
<g clip-path="url(#clip0_1952_38237)">
<path d="M49 145H105" stroke="#28293C" stroke-width="1.5" stroke-linecap="round" stroke-linejoin="round"/>
<path d="M99 169H93C92.4696 169 91.9609 168.789 91.5858 168.414C91.2107 168.039 91 167.53 91 167V161H63V167C63 167.53 62.7893 168.039 62.4142 168.414C62.0391 168.789 61.5304 169 61 169H55C54.4696 169 53.9609 168.789 53.5858 168.414C53.2107 168.039 53 167.53 53 167V145L60.4721 128.188C60.6292 127.834 60.8855 127.534 61.2099 127.323C61.5343 127.112 61.9129 127 62.2997 127H91.7002C92.0871 127 92.4657 127.112 92.7901 127.323C93.1145 127.534 93.3708 127.834 93.5279 128.188L101 145V167C101 167.53 100.789 168.039 100.414 168.414C100.039 168.789 99.5304 169 99 169Z" stroke="#28293C" stroke-width="1.5" stroke-linecap="round" stroke-linejoin="round"/>
<path d="M91.5 155.692C92.8807 155.692 94 154.573 94 153.192C94 151.812 92.8807 150.692 91.5 150.692C90.1193 150.692 89 151.812 89 153.192C89 154.573 90.1193 155.692 91.5 155.692Z" fill="#28293C"/>
<path d="M63.5 155.692C64.8807 155.692 66 154.573 66 153.192C66 151.812 64.8807 150.692 63.5 150.692C62.1193 150.692 61 151.812 61 153.192C61 154.573 62.1193 155.692 63.5 155.692Z" fill="#28293C"/>
<path d="M234 159V167C234 167.53 233.789 168.039 233.414 168.414C233.039 168.789 232.53 169 232 169H226C225.47 169 224.961 168.789 224.586 168.414C224.211 168.039 224 167.53 224 167V159" stroke="#28293C" stroke-width="1.5" stroke-linecap="round" stroke-linejoin="round"/>
<path d="M198 159V167C198 167.53 197.789 168.039 197.414 168.414C197.039 168.789 196.53 169 196 169H190C189.47 169 188.961 168.789 188.586 168.414C188.211 168.039 188 167.53 188 167V159" stroke="#28293C" stroke-width="1.5" stroke-linecap="round" stroke-linejoin="round"/>
<path d="M183 139H239" stroke="#28293C" stroke-width="1.5" stroke-linecap="round" stroke-linejoin="round"/>
<path d="M215 147V159" stroke="#28293C" stroke-width="1.5" stroke-linecap="round" stroke-linejoin="round"/>
<path d="M207 147V159" stroke="#28293C" stroke-width="1.5" stroke-linecap="round" stroke-linejoin="round"/>
<path d="M234 159H188V139L189.755 126.717C189.823 126.241 190.06 125.805 190.424 125.489C190.788 125.174 191.253 125 191.735 125H230.265C230.747 125 231.212 125.174 231.576 125.489C231.94 125.805 232.177 126.241 232.245 126.717L234 139V159Z" stroke="#28293C" stroke-width="1.5" stroke-linecap="round" stroke-linejoin="round"/>
<path d="M225 150.5C226.381 150.5 227.5 149.381 227.5 148C227.5 146.619 226.381 145.5 225 145.5C223.619 145.5 222.5 146.619 222.5 148C222.5 149.381 223.619 150.5 225 150.5Z" fill="#28293C"/>
<path d="M197 150.5C198.381 150.5 199.5 149.381 199.5 148C199.5 146.619 198.381 145.5 197 145.5C195.619 145.5 194.5 146.619 194.5 148C194.5 149.381 195.619 150.5 197 150.5Z" fill="#28293C"/>
<path d="M317 145H373" stroke="#28293C" stroke-width="1.5" stroke-linecap="round" stroke-linejoin="round"/>
<path d="M367 169H361C360.47 169 359.961 168.789 359.586 168.414C359.211 168.039 359 167.53 359 167V161H331V167C331 167.53 330.789 168.039 330.414 168.414C330.039 168.789 329.53 169 329 169H323C322.47 169 321.961 168.789 321.586 168.414C321.211 168.039 321 167.53 321 167V145L328.472 128.188C328.629 127.834 328.886 127.534 329.21 127.323C329.534 127.112 329.913 127 330.3 127H359.7C360.087 127 360.466 127.112 360.79 127.323C361.114 127.534 361.371 127.834 361.528 128.188L369 145V167C369 167.53 368.789 168.039 368.414 168.414C368.039 168.789 367.53 169 367 169Z" stroke="#28293C" stroke-width="1.5" stroke-linecap="round" stroke-linejoin="round"/>
<path d="M466 159V167C466 167.53 465.789 168.039 465.414 168.414C465.039 168.789 464.53 169 464 169H458C457.47 169 456.961 168.789 456.586 168.414C456.211 168.039 456 167.53 456 167V159" stroke="#28293C" stroke-width="1.5" stroke-linecap="round" stroke-linejoin="round"/>
<path d="M451 139H507" stroke="#28293C" stroke-width="1.5" stroke-linecap="round" stroke-linejoin="round"/>
<path d="M483 147V159" stroke="#28293C" stroke-width="1.5" stroke-linecap="round" stroke-linejoin="round"/>
<path d="M475 147V159" stroke="#28293C" stroke-width="1.5" stroke-linecap="round" stroke-linejoin="round"/>
<path d="M502 159H456V139L457.755 126.717C457.823 126.241 458.06 125.805 458.424 125.489C458.788 125.174 459.253 125 459.735 125H498.265C498.747 125 499.212 125.174 499.576 125.489C499.94 125.805 500.177 126.241 500.245 126.717L502 139V159Z" stroke="#28293C" stroke-width="1.5" stroke-linecap="round" stroke-linejoin="round"/>
<path d="M462.484 151.129H466.484" stroke="#28293C" stroke-width="1.5" stroke-linecap="round" stroke-linejoin="round"/>
<path d="M-18 78H38" stroke="#28293C" stroke-width="1.5" stroke-linecap="round" stroke-linejoin="round"/>
<path d="M32 102H26C25.4696 102 24.9609 101.789 24.5858 101.414C24.2107 101.039 24 100.53 24 100V94H-4V100C-4 100.53 -4.21071 101.039 -4.58579 101.414C-4.96086 101.789 -5.46957 102 -6 102H-12C-12.5304 102 -13.0391 101.789 -13.4142 101.414C-13.7893 101.039 -14 100.53 -14 100V78L-6.52788 61.1877C-6.37075 60.8342 -6.11447 60.5338 -5.79008 60.323C-5.46569 60.1122 -5.08712 60 -4.70025 60H24.7002C25.0871 60 25.4657 60.1122 25.7901 60.323C26.1145 60.5338 26.3708 60.8342 26.5279 61.1877L34 78V100C34 100.53 33.7893 101.039 33.4142 101.414C33.0391 101.789 32.5304 102 32 102Z" stroke="#28293C" stroke-width="1.5" stroke-linecap="round" stroke-linejoin="round"/>
<path d="M116 78H172" stroke="#28293C" stroke-width="1.5" stroke-linecap="round" stroke-linejoin="round"/>
<path d="M168 94V100C168 100.53 167.789 101.039 167.414 101.414C167.039 101.789 166.53 102 166 102H160C159.47 102 158.961 101.789 158.586 101.414C158.211 101.039 158 100.53 158 100V94" stroke="#28293C" stroke-width="1.5" stroke-linecap="round" stroke-linejoin="round"/>
<path d="M130 94V100C130 100.53 129.789 101.039 129.414 101.414C129.039 101.789 128.53 102 128 102H122C121.47 102 120.961 101.789 120.586 101.414C120.211 101.039 120 100.53 120 100V94" stroke="#28293C" stroke-width="1.5" stroke-linecap="round" stroke-linejoin="round"/>
<path d="M128 86H132" stroke="#28293C" stroke-width="1.5" stroke-linecap="round" stroke-linejoin="round"/>
<path d="M156 86H160" stroke="#28293C" stroke-width="1.5" stroke-linecap="round" stroke-linejoin="round"/>
<path d="M168 78L160.528 61.1877C160.371 60.8342 160.114 60.5338 159.79 60.323C159.466 60.1122 159.087 60 158.7 60H129.3C128.913 60 128.534 60.1122 128.21 60.323C127.886 60.5338 127.629 60.8342 127.472 61.1877L120 78V94H168V78Z" stroke="#28293C" stroke-width="1.5" stroke-linecap="round" stroke-linejoin="round"/>
<path d="M250 78H306" stroke="#28293C" stroke-width="1.5" stroke-linecap="round" stroke-linejoin="round"/>
<path d="M300 102H294C293.47 102 292.961 101.789 292.586 101.414C292.211 101.039 292 100.53 292 100V94H264V100C264 100.53 263.789 101.039 263.414 101.414C263.039 101.789 262.53 102 262 102H256C255.47 102 254.961 101.789 254.586 101.414C254.211 101.039 254 100.53 254 100V78L261.472 61.1877C261.629 60.8342 261.886 60.5338 262.21 60.323C262.534 60.1122 262.913 60 263.3 60H292.7C293.087 60 293.466 60.1122 293.79 60.323C294.114 60.5338 294.371 60.8342 294.528 61.1877L302 78V100C302 100.53 301.789 101.039 301.414 101.414C301.039 101.789 300.53 102 300 102Z" stroke="#28293C" stroke-width="1.5" stroke-linecap="round" stroke-linejoin="round"/>
<path d="M292.5 88.6924C293.881 88.6924 295 87.5731 295 86.1924C295 84.8117 293.881 83.6924 292.5 83.6924C291.119 83.6924 290 84.8117 290 86.1924C290 87.5731 291.119 88.6924 292.5 88.6924Z" fill="#28293C"/>
<path d="M264.5 88.6924C265.881 88.6924 267 87.5731 267 86.1924C267 84.8117 265.881 83.6924 264.5 83.6924C263.119 83.6924 262 84.8117 262 86.1924C262 87.5731 263.119 88.6924 264.5 88.6924Z" fill="#28293C"/>
<path d="M435 92V100C435 100.53 434.789 101.039 434.414 101.414C434.039 101.789 433.53 102 433 102H427C426.47 102 425.961 101.789 425.586 101.414C425.211 101.039 425 100.53 425 100V92" stroke="#28293C" stroke-width="1.5" stroke-linecap="round" stroke-linejoin="round"/>
<path d="M399 92V100C399 100.53 398.789 101.039 398.414 101.414C398.039 101.789 397.53 102 397 102H391C390.47 102 389.961 101.789 389.586 101.414C389.211 101.039 389 100.53 389 100V92" stroke="#28293C" stroke-width="1.5" stroke-linecap="round" stroke-linejoin="round"/>
<path d="M384 72H440" stroke="#28293C" stroke-width="1.5" stroke-linecap="round" stroke-linejoin="round"/>
<path d="M416 80V92" stroke="#28293C" stroke-width="1.5" stroke-linecap="round" stroke-linejoin="round"/>
<path d="M408 80V92" stroke="#28293C" stroke-width="1.5" stroke-linecap="round" stroke-linejoin="round"/>
<path d="M435 92H389V72L390.755 59.7172C390.823 59.2406 391.06 58.8045 391.424 58.4891C391.788 58.1737 392.253 58 392.735 58H431.265C431.747 58 432.212 58.1737 432.576 58.4891C432.94 58.8045 433.177 59.2406 433.245 59.7172L435 72V92Z" stroke="#28293C" stroke-width="1.5" stroke-linecap="round" stroke-linejoin="round"/>
<path d="M426 83.5C427.381 83.5 428.5 82.3807 428.5 81C428.5 79.6193 427.381 78.5 426 78.5C424.619 78.5 423.5 79.6193 423.5 81C423.5 82.3807 424.619 83.5 426 83.5Z" fill="#28293C"/>
<path d="M398 83.5C399.381 83.5 400.5 82.3807 400.5 81C400.5 79.6193 399.381 78.5 398 78.5C396.619 78.5 395.5 79.6193 395.5 81C395.5 82.3807 396.619 83.5 398 83.5Z" fill="#28293C"/>
<path d="M100 25V33C100 33.5304 99.7893 34.0391 99.4142 34.4142C99.0391 34.7893 98.5304 35 98 35H92C91.4696 35 90.9609 34.7893 90.5858 34.4142C90.2107 34.0391 90 33.5304 90 33V25" stroke="#28293C" stroke-width="1.5" stroke-linecap="round" stroke-linejoin="round"/>
<path d="M64 25V33C64 33.5304 63.7893 34.0391 63.4142 34.4142C63.0391 34.7893 62.5304 35 62 35H56C55.4696 35 54.9609 34.7893 54.5858 34.4142C54.2107 34.0391 54 33.5304 54 33V25" stroke="#28293C" stroke-width="1.5" stroke-linecap="round" stroke-linejoin="round"/>
<path d="M49 5H105" stroke="#28293C" stroke-width="1.5" stroke-linecap="round" stroke-linejoin="round"/>
<path d="M81 13V25" stroke="#28293C" stroke-width="1.5" stroke-linecap="round" stroke-linejoin="round"/>
<path d="M73 13V25" stroke="#28293C" stroke-width="1.5" stroke-linecap="round" stroke-linejoin="round"/>
<path d="M100 25H54V5.00001L55.7547 -7.28284C55.8228 -7.75943 56.0605 -8.19547 56.4242 -8.51091C56.7879 -8.82634 57.2532 -9 57.7346 -9H96.2654C96.7468 -9 97.2121 -8.82634 97.5758 -8.51091C97.9395 -8.19547 98.1772 -7.75943 98.2453 -7.28284L100 5.00001V25Z" stroke="#28293C" stroke-width="1.5" stroke-linecap="round" stroke-linejoin="round"/>
<path d="M60.4839 17.1289H64.4839" stroke="#28293C" stroke-width="1.5" stroke-linecap="round" stroke-linejoin="round"/>
<path d="M91.3226 17.1289H95.3226" stroke="#28293C" stroke-width="1.5" stroke-linecap="round" stroke-linejoin="round"/>
<path d="M183 11H239" stroke="#28293C" stroke-width="1.5" stroke-linecap="round" stroke-linejoin="round"/>
<path d="M233 35H227C226.47 35 225.961 34.7893 225.586 34.4142C225.211 34.0391 225 33.5304 225 33V27H197V33C197 33.5304 196.789 34.0391 196.414 34.4142C196.039 34.7893 195.53 35 195 35H189C188.47 35 187.961 34.7893 187.586 34.4142C187.211 34.0391 187 33.5304 187 33V11L194.472 -5.81228C194.629 -6.16581 194.886 -6.46617 195.21 -6.67699C195.534 -6.8878 195.913 -7 196.3 -7H225.7C226.087 -7 226.466 -6.8878 226.79 -6.67698C227.114 -6.46617 227.371 -6.1658 227.528 -5.81228L235 11V33C235 33.5304 234.789 34.0391 234.414 34.4142C234.039 34.7893 233.53 35 233 35Z" stroke="#28293C" stroke-width="1.5" stroke-linecap="round" stroke-linejoin="round"/>
<path d="M317 11H373" stroke="#28293C" stroke-width="1.5" stroke-linecap="round" stroke-linejoin="round"/>
<path d="M369 27V33C369 33.5304 368.789 34.0391 368.414 34.4142C368.039 34.7893 367.53 35 367 35H361C360.47 35 359.961 34.7893 359.586 34.4142C359.211 34.0391 359 33.5304 359 33V27" stroke="#28293C" stroke-width="1.5" stroke-linecap="round" stroke-linejoin="round"/>
<path d="M331 27V33C331 33.5304 330.789 34.0391 330.414 34.4142C330.039 34.7893 329.53 35 329 35H323C322.47 35 321.961 34.7893 321.586 34.4142C321.211 34.0391 321 33.5304 321 33V27" stroke="#28293C" stroke-width="1.5" stroke-linecap="round" stroke-linejoin="round"/>
<path d="M329 19H333" stroke="#28293C" stroke-width="1.5" stroke-linecap="round" stroke-linejoin="round"/>
<path d="M357 19H361" stroke="#28293C" stroke-width="1.5" stroke-linecap="round" stroke-linejoin="round"/>
<path d="M369 11L361.528 -5.81228C361.371 -6.16581 361.114 -6.46617 360.79 -6.67699C360.466 -6.8878 360.087 -7 359.7 -7H330.3C329.913 -7 329.534 -6.8878 329.21 -6.67698C328.886 -6.46617 328.629 -6.1658 328.472 -5.81228L321 11V27H369V11Z" stroke="#28293C" stroke-width="1.5" stroke-linecap="round" stroke-linejoin="round"/>
<path d="M451 11H507" stroke="#28293C" stroke-width="1.5" stroke-linecap="round" stroke-linejoin="round"/>
<path d="M501 35H495C494.47 35 493.961 34.7893 493.586 34.4142C493.211 34.0391 493 33.5304 493 33V27H465V33C465 33.5304 464.789 34.0391 464.414 34.4142C464.039 34.7893 463.53 35 463 35H457C456.47 35 455.961 34.7893 455.586 34.4142C455.211 34.0391 455 33.5304 455 33V11L462.472 -5.81228C462.629 -6.16581 462.886 -6.46617 463.21 -6.67699C463.534 -6.8878 463.913 -7 464.3 -7H493.7C494.087 -7 494.466 -6.8878 494.79 -6.67698C495.114 -6.46617 495.371 -6.1658 495.528 -5.81228L503 11V33C503 33.5304 502.789 34.0391 502.414 34.4142C502.039 34.7893 501.53 35 501 35Z" stroke="#28293C" stroke-width="1.5" stroke-linecap="round" stroke-linejoin="round"/>
<path d="M33 226V234C33 234.53 32.7893 235.039 32.4142 235.414C32.0391 235.789 31.5304 236 31 236H25C24.4696 236 23.9609 235.789 23.5858 235.414C23.2107 235.039 23 234.53 23 234V226" stroke="#28293C" stroke-width="1.5" stroke-linecap="round" stroke-linejoin="round"/>
<path d="M-18 206H38" stroke="#28293C" stroke-width="1.5" stroke-linecap="round" stroke-linejoin="round"/>
<path d="M14 214V226" stroke="#28293C" stroke-width="1.5" stroke-linecap="round" stroke-linejoin="round"/>
<path d="M6 214V226" stroke="#28293C" stroke-width="1.5" stroke-linecap="round" stroke-linejoin="round"/>
<path d="M33 226H-13V206L-11.2453 193.717C-11.1772 193.241 -10.9395 192.805 -10.5758 192.489C-10.2121 192.174 -9.74684 192 -9.26541 192H29.2654C29.7468 192 30.2121 192.174 30.5758 192.489C30.9395 192.805 31.1772 193.241 31.2453 193.717L33 206V226Z" stroke="#28293C" stroke-width="1.5" stroke-linecap="round" stroke-linejoin="round"/>
<path d="M24 217.5C25.3807 217.5 26.5 216.381 26.5 215C26.5 213.619 25.3807 212.5 24 212.5C22.6193 212.5 21.5 213.619 21.5 215C21.5 216.381 22.6193 217.5 24 217.5Z" fill="#28293C"/>
<path d="M116 212H172" stroke="#28293C" stroke-width="1.5" stroke-linecap="round" stroke-linejoin="round"/>
<path d="M168 228V234C168 234.53 167.789 235.039 167.414 235.414C167.039 235.789 166.53 236 166 236H160C159.47 236 158.961 235.789 158.586 235.414C158.211 235.039 158 234.53 158 234V228" stroke="#28293C" stroke-width="1.5" stroke-linecap="round" stroke-linejoin="round"/>
<path d="M130 228V234C130 234.53 129.789 235.039 129.414 235.414C129.039 235.789 128.53 236 128 236H122C121.47 236 120.961 235.789 120.586 235.414C120.211 235.039 120 234.53 120 234V228" stroke="#28293C" stroke-width="1.5" stroke-linecap="round" stroke-linejoin="round"/>
<path d="M128 220H132" stroke="#28293C" stroke-width="1.5" stroke-linecap="round" stroke-linejoin="round"/>
<path d="M156 220H160" stroke="#28293C" stroke-width="1.5" stroke-linecap="round" stroke-linejoin="round"/>
<path d="M168 212L160.528 195.188C160.371 194.834 160.114 194.534 159.79 194.323C159.466 194.112 159.087 194 158.7 194H129.3C128.913 194 128.534 194.112 128.21 194.323C127.886 194.534 127.629 194.834 127.472 195.188L120 212V228H168V212Z" stroke="#28293C" stroke-width="1.5" stroke-linecap="round" stroke-linejoin="round"/>
<path d="M250 212H306" stroke="#28293C" stroke-width="1.5" stroke-linecap="round" stroke-linejoin="round"/>
<path d="M300 236H294C293.47 236 292.961 235.789 292.586 235.414C292.211 235.039 292 234.53 292 234V228H264V234C264 234.53 263.789 235.039 263.414 235.414C263.039 235.789 262.53 236 262 236H256C255.47 236 254.961 235.789 254.586 235.414C254.211 235.039 254 234.53 254 234V212L261.472 195.188C261.629 194.834 261.886 194.534 262.21 194.323C262.534 194.112 262.913 194 263.3 194H292.7C293.087 194 293.466 194.112 293.79 194.323C294.114 194.534 294.371 194.834 294.528 195.188L302 212V234C302 234.53 301.789 235.039 301.414 235.414C301.039 235.789 300.53 236 300 236Z" stroke="#28293C" stroke-width="1.5" stroke-linecap="round" stroke-linejoin="round"/>
<path d="M384 212H440" stroke="#28293C" stroke-width="1.5" stroke-linecap="round" stroke-linejoin="round"/>
<path d="M436 228V234C436 234.53 435.789 235.039 435.414 235.414C435.039 235.789 434.53 236 434 236H428C427.47 236 426.961 235.789 426.586 235.414C426.211 235.039 426 234.53 426 234V228" stroke="#28293C" stroke-width="1.5" stroke-linecap="round" stroke-linejoin="round"/>
<path d="M398 228V234C398 234.53 397.789 235.039 397.414 235.414C397.039 235.789 396.53 236 396 236H390C389.47 236 388.961 235.789 388.586 235.414C388.211 235.039 388 234.53 388 234V228" stroke="#28293C" stroke-width="1.5" stroke-linecap="round" stroke-linejoin="round"/>
<path d="M396 220H400" stroke="#28293C" stroke-width="1.5" stroke-linecap="round" stroke-linejoin="round"/>
<path d="M424 220H428" stroke="#28293C" stroke-width="1.5" stroke-linecap="round" stroke-linejoin="round"/>
<path d="M436 212L428.528 195.188C428.371 194.834 428.114 194.534 427.79 194.323C427.466 194.112 427.087 194 426.7 194H397.3C396.913 194 396.534 194.112 396.21 194.323C395.886 194.534 395.629 194.834 395.472 195.188L388 212V228H436V212Z" stroke="#28293C" stroke-width="1.5" stroke-linecap="round" stroke-linejoin="round"/>
</g>
<defs>
<clipPath id="clip0_1952_38237">
<rect width="486" height="234" fill="white"/>
</clipPath>
</defs>
</svg>
