<svg width="64" height="64" viewBox="0 0 64 64" fill="none" xmlns="http://www.w3.org/2000/svg">
<path d="M44.847 37C44.4217 39.7242 43.1419 42.2428 41.1923 44.1924C39.2427 46.142 36.7241 47.4218 34 47.8471" stroke="#808080" stroke-width="1.5" stroke-linecap="round" stroke-linejoin="round"/>
<path d="M18.009 16.3393C14.1494 22.1577 11 28.8038 11 35C11 40.5696 13.2125 45.911 17.1508 49.8492C21.089 53.7875 26.4305 56 32 56C37.5695 56 42.911 53.7875 46.8492 49.8492C50.7875 45.911 53 40.5696 53 35C53 22 44 12 36.7059 4.71788L36.7057 4.71808L28 23L18.0093 16.3395L18.009 16.3393Z" stroke="#808080" stroke-width="1.5" stroke-linecap="round" stroke-linejoin="round"/>
</svg>
